{
.appVersion = "3343";
.formatVersion = 3;
classes = (
{
automatic = 1;

glyphs = (
{
glyphname = A;
kernLeft = A;
kernRight = A;
lastChange = "2025-02-13 13:54:34 +0000";
layers = (
{
anchors = (
{
name = bottom;
pos = (334,0);
},
{
name = ogonek;
pos = (581,10);
},
{
name = top;
pos = (330,660);
}
);
layerId = "7C3BCDA4-8F92-4DF1-91BA-B714BE37B8B5";
shapes = (
{
closed = 1;
nodes = (
(440,449,o),
(433,451,o),
(431,458,cs),
(428,471,o),
(423,482,o),
(419,493,c),
(410,505,o),
(403,519,o),
(400,537,c),
(393,546,o),
(387,556,o),
(383,567,cs),
(378,578,o),
(372,587,o),
(367,599,cs),
(362,609,o),
(355,618,o),
(352,632,c),
(346,641,o),
(341,653,o),
(326,654,c),
(317,653,o),
(316,644,o),
(313,639,c),
(313,632,o),
(306,628,o),
(305,620,c),
(293,607,o),
(285,589,o),
(279,570,c),
(274,563,o),
(270,553,o),
(266,543,c),
(261,536,o),
(259,525,o),
(252,519,c),
(252,506,o),
(243,494,o),
(240,487,cs),
(238,480,ls),
(238,477,o),
(234,476,o),
(233,474,cs),
(232,472,o),
(233,468,o),
(232,466,cs),
(228,458,o),
(222,452,o),
(218,444,cs),
(213,436,o),
(211,427,o),
(205,420,c),
(205,413,o),
(200,409,o),
(200,402,c),
(191,390,o),
(187,373,o),
(178,362,c),
(175,348,o),
(168,336,o),
(162,325,c),
(162,315,o),
(155,312,o),
(152,306,cs),
(148,298,o),
(147,292,o),
(144,285,cs),
(143,281,o),
(139,277,o),
(137,273,c),
(135,271,o),
(137,267,o),
(135,265,c),
(134,263,o),
(131,262,o),
(130,259,cs),
(124,246,l),
(119,237,o),
(116,228,o),
(111,219,cs),
(108,214,o),
(105,207,o),
(104,201,cs),
(102,197,o),
(99,194,o),
(97,188,c),
(94,183,o),
(94,179,o),
(92,173,cs),
(88,164,o),
(80,157,o),
(79,146,c),
(62,111,ls),
(56,99,o),
(48,86,o),
(46,72,c),
(39,66,o),
(34,54,o),
(29,46,c),
(25,35,o),
(16,28,o),
(20,10,c),
(26,-2,o),
(40,-7,o),
(56,-7,cs),
(66,-6,o),
(77,-1,o),
(87,-2,c),
(95,6,o),
(105,12,o),
(109,22,cs),
(113,28,o),
(113,35,o),
(116,41,c),
(125,53,o),
(129,69,o),
(140,81,c),
(141,90,o),
(145,95,o),
(146,105,c),
(159,121,l),
(162,138,o),
(165,155,o),
(181,161,c),
(194,162,o),
(207,161,o),
(219,161,cs),
(257,161,o),
(298,163,o),
(343,162,cs),
(349,162,o),
(353,164,o),
(359,165,c),
(376,161,o),
(395,165,o),
(416,165,cs),
(436,165,o),
(457,162,o),
(478,163,c),
(487,158,o),
(491,145,o),
(495,136,c),
(500,132,l),
(503,128,o),
(504,124,o),
(508,121,c),
(508,113,o),
(511,110,o),
(511,103,c),
(516,98,o),
(520,93,o),
(524,86,cs),
(526,82,o),
(524,74,o),
(527,71,cs),
(535,61,o),
(541,48,o),
(546,34,c),
(555,26,o),
(559,10,o),
(568,1,c),
(592,-5,o),
(604,10,o),
(618,17,c),
(620,26,o),
(629,28,o),
(627,38,cs),
(626,47,o),
(622,54,o),
(622,64,c),
(618,69,o),
(613,77,o),
(610,84,c),
(605,101,o),
(596,112,o),
(591,128,c),
(580,140,o),
(576,157,o),
(568,171,c),
(565,175,o),
(567,183,o),
(565,187,cs),
(561,194,o),
(557,199,o),
(552,206,cs),
(543,223,o),
(538,246,o),
(525,262,cs),
(515,279,o),
(509,300,o),
(499,317,c),
(494,334,o),
(485,349,o),
(478,362,c),
(476,368,o),
(471,374,o),
(469,378,cs),
(468,381,o),
(469,383,o),
(468,386,cs),
(465,393,o),
(461,400,o),
(456,406,c),
(457,418,o),
(448,425,o),
(445,433,c),
(443,441,ls)
);
},
{
closed = 1;
nodes = (
(439,238,o),
(423,238,o),
(409,238,c),
(401,238,o),
(397,240,o),
(390,240,c),
(359,237,l),
(346,239,o),
(323,241,o),
(310,237,c),
(292,234,o),
(275,238,o),
(259,239,cs),
(243,239,o),
(228,235,o),
(213,240,c),
(215,254,o),
(217,266,o),
(225,273,c),
(240,303,ls),
(250,321,o),
(257,346,o),
(270,360,c),
(276,390,o),
(297,406,o),
(303,436,c),
(309,442,o),
(310,451,o),
(315,455,c),
(315,468,o),
(318,477,o),
(327,483,c),
(334,482,o),
(335,473,o),
(336,466,c),
(341,463,o),
(342,454,o),
(346,450,c),
(349,441,o),
(355,433,o),
(359,425,cs),
(370,400,ls),
(377,383,o),
(390,369,o),
(394,351,c),
(403,338,o),
(411,324,o),
(416,308,c),
(426,291,o),
(433,273,o),
(445,258,c),
(444,255,o),
(446,255,o),
(447,252,c),
(447,245,l)
);
}
);
width = 646;
}
);
unicode = 65;
},
{
glyphname = Adieresis;
kernLeft = A;
kernRight = A;
lastChange = "2025-02-13 12:00:19 +0000";
layers = (
{
anchors = (
{
name = top;
pos = (329,859);
}
);
layerId = "7C3BCDA4-8F92-4DF1-91BA-B714BE37B8B5";
shapes = (
{
closed = 1;
nodes = (
(453,547,o),
(459,544,cs),
(465,541,o),
(479,534,o),
(486,534,c),
(510,540,o),
(530,547,o),
(541,566,c),
(541,586,o),
(537,613,o),
(530,623,cs),
(525,631,o),
(521,636,o),
(513,641,cs),
(507,645,o),
(502,649,o),
(494,650,c),
(483,648,o),
(473,645,o),
(461,644,c),
(442,633,o),
(429,616,o),
(426,590,c),
(428,586,o),
(428,580,o),
(428,578,cs),
(436,561,o)
);
},
{
closed = 1;
nodes = (
(198,648,o),
(157,647,c),
(144,642,o),
(135,635,o),
(126,627,c),
(124,620,o),
(123,615,o),
(120,609,cs),
(115,596,o),
(111,585,o),
(115,567,c),
(123,561,o),
(126,551,o),
(132,544,c),
(144,542,o),
(150,536,o),
(162,534,c),
(169,535,o),
(179,537,o),
(186,534,c),
(193,541,o),
(201,543,o),
(209,547,c),
(212,554,o),
(219,558,o),
(221,566,cs),
(224,574,o),
(223,582,o),
(225,592,cs),
(225,593,o),
(224,594,o),
(223,593,c),
(220,631,o)
);
},
{
ref = A;
}
);
width = 646;
}
);
unicode = 196;
},
{
glyphname = AE;
kernLeft = A;
kernRight = E;
lastChange = "2025-02-13 12:00:19 +0000";
layers = (
{
anchors = (
{
name = bottom;
pos = (477,0);
},
{
name = top;
pos = (481,683);
}
);
layerId = "7C3BCDA4-8F92-4DF1-91BA-B714BE37B8B5";
shapes = (
{
closed = 1;
nodes = (
(620,100,l),
(618,103,o),
(619,105,o),
(618,108,c),
(618,109,o),
(616,109,o),
(615,110,cs),
(610,116,o),
(608,125,o),
(605,132,cs),
(599,146,o),
(591,161,o),
(584,174,cs),
(577,195,o),
(568,214,o),
(558,231,cs),
(554,241,o),
(552,253,o),
(544,260,c),
(541,272,o),
(536,280,o),
(532,291,cs),
(527,298,o),
(519,310,o),
(523,321,c),
(535,322,o),
(541,318,o),
(551,318,c),
(561,320,o),
(569,320,o),
(582,319,cs),
(593,318,o),
(604,320,o),
(618,319,cs),
(626,319,o),
(636,316,o),
(645,316,cs),
(658,316,o),
(673,318,o),
(689,318,cs),
(705,318,o),
(725,316,o),
(740,315,cs),
(757,314,o),
(778,309,o),
(782,327,c),
(783,338,o),
(779,340,o),
(774,345,c),
(773,354,o),
(770,359,o),
(767,366,c),
(766,373,o),
(760,376,o),
(759,384,c),
(755,389,o),
(756,399,o),
(749,401,c),
(735,407,o),
(719,402,o),
(704,402,c),
(698,403,o),
(693,404,o),
(688,404,cs),
(669,404,o),
(653,400,o),
(637,404,c),
(622,399,o),
(605,402,o),
(590,402,c),
(584,403,o),
(580,401,o),
(575,401,cs),
(570,401,o),
(564,402,o),
(559,402,cs),
(532,403,o),
(508,399,o),
(487,404,cs),
(479,406,o),
(477,415,o),
(474,422,cs),
(471,428,o),
(466,436,o),
(466,446,c),
(459,449,o),
(459,460,o),
(452,465,c),
(450,472,o),
(446,479,o),
(445,487,c),
(439,498,o),
(433,508,o),
(428,519,cs),
(424,531,o),
(419,542,o),
(413,553,c),
(411,560,o),
(404,568,o),
(408,576,c),
(415,575,o),
(424,575,o),
(429,575,cs),
(439,574,o),
(446,570,o),
(452,570,c),
(459,572,o),
(465,575,o),
(469,575,cs),
(480,575,o),
(488,569,o),
(497,567,c),
(507,573,o),
(518,570,o),
(529,570,c),
(539,572,o),
(549,573,o),
(559,573,cs),
(566,573,o),
(572,570,o),
(578,570,c),
(596,575,l),
(613,575,o),
(631,570,o),
(648,570,c),
(654,577,o),
(668,575,o),
(668,585,c),
(670,597,o),
(663,598,o),
(659,604,c),
(657,609,o),
(652,612,o),
(649,618,c),
(645,632,o),
(638,644,o),
(633,656,c),
(588,658,o),
(538,656,o),
(490,655,cs),
(481,655,o),
(470,653,o),
(461,654,cs),
(455,654,o),
(447,656,o),
(443,656,cs),
(439,656,o),
(434,655,o),
(429,655,cs),
(417,655,o),
(408,656,o),
(398,657,c),
(380,653,o),
(358,660,o),
(342,656,c),
(332,648,o),
(329,631,o),
(320,620,c),
(313,590,o),
(295,568,o),
(286,538,cs),
(280,524,o),
(271,514,o),
(268,496,c),
(264,489,o),
(259,482,o),
(254,475,c),
(249,452,o),
(238,435,o),
(228,417,cs),
(215,390,ls),
(210,381,o),
(203,371,o),
(201,359,c),
(195,353,o),
(193,341,o),
(186,335,c),
(182,311,o),
(167,298,o),
(160,276,c),
(154,270,o),
(152,257,o),
(146,247,cs),
(141,238,o),
(137,227,o),
(134,216,c),
(129,210,o),
(125,204,o),
(121,198,c),
(112,172,o),
(101,148,o),
(89,125,cs),
(86,116,o),
(80,110,o),
(78,100,c),
(69,86,o),
(64,69,o),
(56,52,cs),
(49,36,o),
(35,23,o),
(39,2,c),
(47,-7,o),
(68,-1,o),
(81,-4,cs),
(88,-5,o),
(90,0,o),
(96,-1,cs),
(109,-3,o),
(120,-3,o),
(128,2,c),
(135,9,o),
(138,16,o),
(143,26,cs),
(145,33,o),
(150,44,o),
(155,49,c),
(154,58,o),
(157,63,o),
(157,68,c),
(170,92,l),
(172,101,o),
(180,107,o),
(183,116,cs),
(187,125,o),
(190,134,o),
(197,142,c),
(198,152,o),
(202,161,o),
(210,164,c),
(236,161,o),
(257,164,o),
(283,164,cs),
(289,164,o),
(294,162,o),
(299,161,cs),
(304,161,o),
(308,162,o),
(313,162,cs),
(318,162,o),
(323,161,o),
(330,161,cs),
(351,160,o),
(371,164,o),
(392,161,c),
(408,166,o),
(430,167,o),
(447,162,c),
(461,163,o),
(472,166,o),
(487,167,c),
(501,161,o),
(504,142,o),
(513,129,c),
(518,113,o),
(526,101,o),
(529,82,c),
(536,71,o),
(541,60,o),
(547,49,c),
(549,42,o),
(553,32,o),
(556,29,cs),
(559,23,o),
(561,15,o),
(566,10,c),
(570,5,o),
(573,3,o),
(578,0,c),
(601,3,o),
(631,4,o),
(656,5,cs),
(674,5,o),
(691,6,o),
(706,3,c),
(709,6,o),
(714,5,o),
(719,7,c),
(735,2,o),
(752,9,o),
(770,7,cs),
(777,7,o),
(783,5,o),
(789,5,cs),
(797,5,o),
(802,7,o),
(809,6,cs),
(817,6,o),
(819,2,o),
(826,2,c),
(849,10,o),
(886,5,o),
(915,10,c),
(918,13,o),
(923,16,o),
(923,23,cs),
(923,26,o),
(922,26,o),
(922,28,c),
(913,37,o),
(911,52,o),
(902,63,c),
(898,77,o),
(893,92,o),
(881,97,c),
(868,100,o),
(853,96,o),
(842,94,c),
(805,97,o),
(778,91,o),
(744,96,c),
(734,92,o),
(721,94,o),
(713,94,cs),
(709,94,o),
(707,93,o),
(703,93,c),
(627,93,l)
);
},
{
closed = 1;
nodes = (
(460,243,o),
(449,244,o),
(441,244,c),
(423,248,o),
(401,242,o),
(379,242,cs),
(374,242,o),
(367,244,o),
(360,244,cs),
(286,240,ls),
(281,240,o),
(277,242,o),
(273,242,cs),
(262,242,o),
(251,238,o),
(241,244,c),
(240,261,o),
(250,268,o),
(255,278,c),
(261,289,o),
(264,301,o),
(271,309,c),
(275,319,o),
(279,328,o),
(286,335,c),
(285,340,o),
(289,342,o),
(289,349,c),
(294,352,o),
(295,360,o),
(299,364,c),
(301,376,o),
(307,385,o),
(313,392,c),
(313,404,o),
(319,405,o),
(318,416,c),
(328,428,o),
(335,439,o),
(336,459,c),
(344,464,o),
(344,475,o),
(352,478,c),
(361,476,o),
(362,466,o),
(365,455,cs),
(368,449,o),
(373,444,o),
(377,437,c),
(377,424,l),
(383,413,o),
(387,400,o),
(395,390,c),
(396,377,o),
(402,371,o),
(406,359,c),
(415,343,o),
(423,325,o),
(431,309,cs),
(440,291,o),
(449,274,o),
(459,256,c),
(459,253,ls)
);
}
);
width = 962;
}
);
unicode = 198;
},
{
glyphname = B;
kernLeft = H;
kernRight = B;
lastChange = "2025-02-13 12:00:19 +0000";
layers = (
{
layerId = "7C3BCDA4-8F92-4DF1-91BA-B714BE37B8B5";
shapes = (
{
closed = 1;
nodes = (
(376,413,o),
(383,417,o),
(385,425,cs),
(390,455,o),
(390,489,o),
(386,521,c),
(378,536,o),
(371,550,o),
(366,568,c),
(353,584,o),
(339,599,o),
(326,615,c),
(306,624,o),
(288,637,o),
(269,648,c),
(216,659,o),
(154,655,o),
(98,660,c),
(86,656,o),
(70,656,o),
(64,649,c),
(60,640,o),
(62,630,o),
(62,619,cs),
(64,589,o),
(62,559,o),
(66,533,c),
(60,517,o),
(66,499,o),
(66,481,cs),
(66,412,o),
(66,338,o),
(67,274,cs),
(67,250,o),
(70,221,o),
(66,200,c),
(68,131,o),
(70,73,o),
(66,8,cs),
(65,0,o),
(75,-5,o),
(83,-7,cs),
(92,-9,o),
(104,-5,o),
(112,-5,cs),
(124,-5,o),
(136,-8,o),
(148,-8,cs),
(160,-8,o),
(173,-5,o),
(184,-5,cs),
(192,-5,o),
(200,-6,o),
(208,-7,cs),
(212,-7,o),
(216,-5,o),
(219,-5,cs),
(223,-5,o),
(227,-7,o),
(233,-7,cs),
(257,-6,o),
(282,0,o),
(308,-2,c),
(317,2,o),
(324,6,o),
(335,8,c),
(343,12,o),
(352,16,o),
(362,19,c),
(377,33,o),
(394,46,o),
(411,58,c),
(414,67,o),
(421,74,o),
(426,84,cs),
(430,93,o),
(437,102,o),
(440,110,c),
(442,113,o),
(443,119,o),
(445,124,cs),
(448,138,o),
(456,157,o),
(456,173,cs),
(456,175,o),
(455,177,o),
(454,180,c),
(452,195,o),
(453,209,o),
(451,225,cs),
(450,237,o),
(447,251,o),
(443,259,cs),
(431,278,o),
(418,293,o),
(407,312,c),
(402,314,o),
(390,321,o),
(388,323,c),
(384,332,o),
(372,332,o),
(369,338,c),
(369,338,o),
(356,343,o),
(350,345,c),
(348,345,o),
(334,348,o),
(333,355,c),
(338,367,o),
(351,371,o),
(359,378,c),
(376,403,l)
);
},
{
closed = 1;
nodes = (
(307,485,o),
(305,474,o),
(308,469,c),
(307,466,o),
(307,453,o),
(305,447,cs),
(304,446,o),
(301,442,o),
(300,439,cs),
(294,422,ls),
(292,417,o),
(290,415,o),
(288,410,c),
(280,401,o),
(268,392,o),
(258,384,c),
(250,383,o),
(243,376,o),
(236,372,c),
(209,368,o),
(180,368,o),
(153,370,c),
(142,382,o),
(155,409,o),
(145,424,c),
(148,474,o),
(145,526,o),
(148,576,c),
(158,588,o),
(178,582,o),
(197,582,c),
(210,577,o),
(227,577,o),
(241,573,c),
(262,563,o),
(278,548,o),
(292,530,c),
(307,491,l)
);
},
{
closed = 1;
nodes = (
(149,239,o),
(145,268,o),
(148,295,c),
(159,302,o),
(173,298,o),
(187,298,cs),
(213,299,o),
(240,301,o),
(266,297,cs),
(288,293,o),
(306,284,o),
(321,276,c),
(328,274,o),
(331,268,o),
(335,263,cs),
(339,258,o),
(345,256,o),
(348,251,c),
(356,242,o),
(361,231,o),
(369,220,c),
(369,215,o),
(371,211,o),
(371,206,cs),
(372,190,o),
(370,180,o),
(371,165,c),
(368,156,o),
(362,148,o),
(360,138,c),
(329,100,l),
(312,93,o),
(299,81,o),
(280,74,cs),
(268,70,o),
(253,74,o),
(238,74,cs),
(228,74,o),
(219,70,o),
(209,69,cs),
(204,69,o),
(200,71,o),
(194,71,cs),
(181,71,o),
(162,67,o),
(150,73,c),
(145,84,o),
(149,98,o),
(148,111,cs),
(146,124,o),
(148,138,o),
(150,149,c),
(150,156,o),
(146,159,o),
(145,165,c),
(149,172,o),
(148,181,o),
(148,188,cs),
(148,213,ls)
);
}
);
width = 475;
}
);
unicode = 66;
},
{
glyphname = C;
kernLeft = O;
kernRight = C;
lastChange = "2025-02-13 12:00:19 +0000";
layers = (
{
anchors = (
{
name = bottom;
pos = (384,0);
},
{
name = top;
pos = (384,660);
}
);
layerId = "7C3BCDA4-8F92-4DF1-91BA-B714BE37B8B5";
shapes = (
{
closed = 1;
nodes = (
(516,652,o),
(504,657,o),
(490,664,c),
(473,661,o),
(457,671,o),
(439,673,cs),
(409,675,o),
(380,671,o),
(351,673,c),
(333,666,o),
(314,665,o),
(296,660,c),
(279,654,ls),
(276,653,o),
(273,654,o),
(270,653,cs),
(261,650,o),
(249,644,o),
(242,641,cs),
(214,628,l),
(203,619,o),
(191,617,o),
(184,604,c),
(168,595,l),
(163,588,o),
(157,582,o),
(150,578,c),
(145,571,o),
(138,565,o),
(133,559,c),
(120,548,o),
(111,533,o),
(100,521,c),
(96,507,o),
(89,496,o),
(81,487,c),
(79,483,o),
(72,473,o),
(72,464,c),
(67,458,o),
(67,448,o),
(62,443,c),
(60,425,o),
(54,409,o),
(50,391,c),
(50,380,o),
(49,368,o),
(49,355,cs),
(48,342,o),
(47,331,o),
(48,319,cs),
(48,314,o),
(49,307,o),
(50,301,cs),
(52,282,ls),
(54,264,o),
(57,244,o),
(62,232,c),
(63,231,o),
(63,228,o),
(64,225,cs),
(70,203,o),
(82,184,o),
(88,165,c),
(98,154,o),
(106,143,o),
(114,133,cs),
(117,129,o),
(122,126,o),
(122,121,c),
(133,105,o),
(148,95,o),
(158,80,c),
(167,74,o),
(177,69,o),
(182,62,c),
(194,58,o),
(198,48,o),
(207,45,cs),
(227,34,o),
(248,27,o),
(265,14,c),
(288,10,o),
(309,3,o),
(331,-3,c),
(358,-5,o),
(389,-8,o),
(419,-7,cs),
(437,-5,o),
(456,-1,o),
(472,3,cs),
(491,7,o),
(507,13,o),
(522,19,c),
(530,20,o),
(535,22,o),
(541,26,c),
(555,29,o),
(567,34,o),
(574,45,c),
(577,51,o),
(575,62,o),
(577,68,c),
(575,71,o),
(576,78,o),
(574,81,c),
(574,93,o),
(574,105,o),
(576,114,cs),
(577,121,o),
(574,124,o),
(574,130,c),
(571,133,o),
(573,141,o),
(566,141,cs),
(547,140,o),
(543,123,o),
(530,117,c),
(520,115,o),
(514,108,o),
(504,105,c),
(491,105,o),
(485,97,o),
(476,94,c),
(469,94,o),
(465,89,o),
(457,88,cs),
(448,86,o),
(437,88,o),
(428,86,cs),
(421,86,o),
(416,83,o),
(409,83,cs),
(402,82,o),
(393,82,o),
(386,83,cs),
(355,84,o),
(330,91,o),
(304,95,c),
(297,100,o),
(288,103,o),
(279,105,c),
(274,113,o),
(263,115,o),
(254,117,c),
(247,124,o),
(238,131,o),
(230,136,cs),
(220,141,o),
(216,150,o),
(206,155,c),
(201,164,o),
(195,169,o),
(190,178,c),
(178,187,o),
(168,200,o),
(162,218,c),
(158,223,o),
(153,230,o),
(152,238,c),
(143,249,o),
(139,265,o),
(133,279,c),
(132,301,o),
(131,323,o),
(131,348,c),
(134,359,o),
(135,373,o),
(136,387,c),
(140,398,o),
(144,408,o),
(146,420,c),
(151,427,o),
(155,436,o),
(161,441,cs),
(163,444,o),
(163,446,o),
(165,449,cs),
(166,453,o),
(166,458,o),
(169,461,c),
(175,469,o),
(182,475,o),
(185,485,c),
(203,500,o),
(217,519,o),
(237,532,c),
(254,547,o),
(273,560,o),
(296,568,c),
(335,571,o),
(363,586,o),
(405,587,c),
(425,583,o),
(446,581,o),
(464,578,cs),
(483,573,o),
(500,567,o),
(518,560,cs),
(535,552,o),
(543,529,o),
(568,533,c),
(580,540,o),
(575,559,o),
(574,574,cs),
(574,592,o),
(576,612,o),
(570,623,cs),
(565,632,o),
(557,633,o),
(551,637,cs),
(532,649,l)
);
}
);
width = 619;
}
);
unicode = 67;
},
{
glyphname = D;
kernLeft = H;
kernRight = O;
lastChange = "2025-02-13 12:00:19 +0000";
layers = (
{
anchors = (
{
name = bottom;
pos = (274,0);
},
{
name = center;
pos = (317,331);
},
{
name = top;
pos = (274,660);
}
);
layerId = "7C3BCDA4-8F92-4DF1-91BA-B714BE37B8B5";
shapes = (
{
closed = 1;
nodes = (
(340,648,o),
(323,654,o),
(297,653,c),
(277,657,o),
(254,661,o),
(228,658,c),
(222,659,o),
(217,661,o),
(211,661,cs),
(201,662,o),
(191,661,o),
(181,661,cs),
(169,661,o),
(157,659,o),
(148,660,cs),
(140,660,o),
(131,664,o),
(124,664,cs),
(107,664,o),
(90,659,o),
(74,658,c),
(68,654,o),
(68,643,o),
(63,637,c),
(63,584,o),
(60,534,o),
(65,485,c),
(63,482,o),
(62,475,o),
(62,469,c),
(65,447,o),
(66,418,o),
(62,395,c),
(65,381,o),
(62,359,o),
(63,342,cs),
(64,335,o),
(66,332,o),
(66,325,c),
(67,318,o),
(63,314,o),
(63,308,cs),
(66,269,o),
(63,225,o),
(63,188,c),
(70,161,o),
(65,131,o),
(65,100,cs),
(65,74,o),
(70,48,o),
(68,22,c),
(73,12,o),
(80,5,o),
(90,0,c),
(110,0,o),
(129,1,o),
(145,1,cs),
(173,2,o),
(197,5,o),
(225,1,c),
(232,1,o),
(236,4,o),
(242,4,cs),
(274,6,o),
(299,7,o),
(325,12,cs),
(350,17,o),
(371,31,o),
(395,34,c),
(404,41,o),
(411,48,o),
(424,50,c),
(432,57,o),
(441,64,o),
(451,68,c),
(462,78,o),
(472,86,o),
(484,95,c),
(487,102,o),
(493,105,o),
(496,111,c),
(501,117,o),
(509,118,o),
(512,124,c),
(518,132,o),
(523,140,o),
(525,149,c),
(539,163,o),
(549,181,o),
(556,201,c),
(561,207,o),
(554,215,o),
(554,220,c),
(561,221,o),
(567,222,o),
(567,230,c),
(574,247,o),
(577,265,o),
(582,281,c),
(580,295,o),
(583,312,o),
(582,322,cs),
(580,345,o),
(581,369,o),
(576,389,c),
(578,392,o),
(578,400,o),
(578,406,c),
(575,416,o),
(569,424,o),
(567,435,c),
(564,441,o),
(557,443,o),
(554,450,c),
(555,456,o),
(557,461,o),
(554,466,cs),
(543,488,o),
(530,506,o),
(521,529,c),
(512,537,o),
(502,543,o),
(493,552,c),
(492,559,o),
(486,561,o),
(481,565,c),
(477,570,o),
(473,574,o),
(470,580,c),
(453,586,o),
(443,599,o),
(429,609,c),
(410,615,o),
(398,626,o),
(379,631,c),
(358,642,l)
);
},
{
closed = 1;
nodes = (
(488,265,o),
(489,262,o),
(489,259,c),
(486,253,o),
(478,248,o),
(478,239,c),
(475,232,o),
(468,228,o),
(467,219,c),
(463,214,o),
(460,207,o),
(457,200,c),
(450,197,o),
(447,189,o),
(444,182,c),
(429,167,o),
(412,154,o),
(398,139,c),
(387,136,o),
(380,127,o),
(370,122,cs),
(341,105,l),
(321,101,o),
(300,96,o),
(283,88,c),
(273,89,o),
(265,86,o),
(258,84,c),
(239,87,o),
(217,88,o),
(196,86,cs),
(188,84,o),
(178,82,o),
(166,84,cs),
(162,85,o),
(159,87,o),
(156,90,c),
(149,104,o),
(152,133,o),
(154,149,c),
(153,155,o),
(153,162,o),
(151,168,c),
(152,228,o),
(152,290,o),
(151,350,c),
(149,362,o),
(151,373,o),
(151,386,cs),
(151,415,o),
(149,441,o),
(151,471,cs),
(151,474,o),
(148,476,o),
(148,480,cs),
(149,486,o),
(151,498,o),
(147,507,c),
(151,529,o),
(146,557,o),
(154,574,c),
(161,582,o),
(174,576,o),
(184,580,c),
(199,581,o),
(216,577,o),
(235,576,cs),
(253,575,o),
(271,575,o),
(287,573,c),
(296,569,o),
(305,564,o),
(319,565,c),
(327,560,o),
(336,556,o),
(347,554,c),
(359,543,o),
(377,539,o),
(389,529,c),
(391,523,o),
(396,524,o),
(399,522,c),
(409,517,o),
(417,506,o),
(428,502,c),
(434,494,o),
(438,485,o),
(444,480,cs),
(450,473,o),
(456,467,o),
(460,458,c),
(473,447,o),
(476,425,o),
(487,410,c),
(488,400,o),
(491,391,o),
(495,384,c),
(496,356,o),
(504,324,o),
(493,303,c),
(492,292,o),
(493,280,o),
(492,271,c),
(489,267,ls)
);
}
);
width = 625;
}
);
unicode = 68;
},
{
glyphname = Eth;
kernLeft = H;
kernRight = O;
lastChange = "2025-02-13 12:00:19 +0000";
layers = (
{
layerId = "7C3BCDA4-8F92-4DF1-91BA-B714BE37B8B5";
shapes = (
{
closed = 1;
nodes = (
(385,648,o),
(368,654,o),
(342,653,c),
(322,657,o),
(298,661,o),
(273,658,c),
(267,659,o),
(261,661,o),
(256,661,cs),
(246,662,o),
(236,661,o),
(225,661,cs),
(214,661,o),
(201,659,o),
(193,660,cs),
(184,660,o),
(176,664,o),
(168,664,cs),
(152,664,o),
(135,659,o),
(119,658,c),
(113,654,o),
(113,643,o),
(107,637,c),
(107,584,o),
(105,534,o),
(109,485,c),
(107,482,o),
(106,475,o),
(106,469,c),
(109,447,o),
(110,418,o),
(106,395,c),
(107,388,o),
(107,380,o),
(107,371,c),
(74,368,l),
(60,355,o),
(60,328,o),
(67,306,c),
(73,301,o),
(85,300,o),
(92,296,c),
(107,299,l),
(109,263,o),
(107,222,o),
(107,188,c),
(115,161,o),
(109,131,o),
(109,100,cs),
(109,74,o),
(115,48,o),
(113,22,c),
(118,12,o),
(124,5,o),
(135,0,c),
(155,0,o),
(174,1,o),
(190,1,cs),
(218,2,o),
(241,5,o),
(270,1,c),
(276,1,o),
(280,4,o),
(287,4,cs),
(318,6,o),
(344,7,o),
(370,12,cs),
(394,17,o),
(415,31,o),
(440,34,c),
(448,41,o),
(456,48,o),
(468,50,c),
(477,57,o),
(485,64,o),
(496,68,c),
(506,78,o),
(517,86,o),
(528,95,c),
(532,102,o),
(538,105,o),
(541,111,c),
(545,117,o),
(554,118,o),
(557,124,c),
(562,132,o),
(567,140,o),
(570,149,c),
(583,163,o),
(594,181,o),
(600,201,c),
(605,207,o),
(599,215,o),
(599,220,c),
(605,221,o),
(612,222,o),
(612,230,c),
(618,247,o),
(621,265,o),
(627,281,c),
(625,295,o),
(628,312,o),
(627,322,cs),
(625,345,o),
(626,369,o),
(620,389,c),
(622,392,o),
(622,400,o),
(622,406,c),
(619,416,o),
(614,424,o),
(612,435,c),
(609,441,o),
(601,443,o),
(599,450,c),
(599,456,o),
(601,461,o),
(599,466,cs),
(588,488,o),
(575,506,o),
(565,529,c),
(557,537,o),
(546,543,o),
(538,552,c),
(537,559,o),
(531,561,o),
(525,565,c),
(522,570,o),
(518,574,o),
(515,580,c),
(498,586,o),
(487,599,o),
(474,609,c),
(455,615,o),
(443,626,o),
(424,631,c),
(403,642,l)
);
},
{
closed = 1;
nodes = (
(194,374,o),
(196,380,o),
(196,386,cs),
(196,415,o),
(194,441,o),
(196,471,cs),
(196,474,o),
(193,476,o),
(193,480,cs),
(194,486,o),
(196,498,o),
(192,507,c),
(196,529,o),
(191,557,o),
(199,574,c),
(205,582,o),
(219,576,o),
(229,580,c),
(243,581,o),
(260,577,o),
(279,576,cs),
(297,575,o),
(315,575,o),
(332,573,c),
(341,569,o),
(350,564,o),
(364,565,c),
(371,560,o),
(381,556,o),
(391,554,c),
(404,543,o),
(422,539,o),
(433,529,c),
(436,523,o),
(441,524,o),
(444,522,c),
(453,517,o),
(462,506,o),
(473,502,c),
(479,494,o),
(483,485,o),
(488,480,cs),
(495,473,o),
(501,467,o),
(504,458,c),
(518,447,o),
(521,425,o),
(532,410,c),
(533,400,o),
(536,391,o),
(540,384,c),
(541,356,o),
(549,324,o),
(538,303,c),
(537,292,o),
(538,280,o),
(537,271,c),
(534,267,ls),
(533,265,o),
(534,262,o),
(534,259,c),
(531,253,o),
(523,248,o),
(523,239,c),
(520,232,o),
(513,228,o),
(512,219,c),
(507,214,o),
(504,207,o),
(502,200,c),
(495,197,o),
(492,189,o),
(488,182,c),
(474,167,o),
(457,154,o),
(443,139,c),
(431,136,o),
(424,128,o),
(414,122,cs),
(386,105,l),
(366,101,o),
(345,96,o),
(328,88,c),
(317,89,o),
(310,86,o),
(303,84,c),
(284,87,o),
(261,88,o),
(240,86,cs),
(233,84,o),
(222,82,o),
(211,84,cs),
(206,85,o),
(203,87,o),
(200,90,c),
(194,104,o),
(197,133,o),
(199,149,c),
(198,155,o),
(198,162,o),
(196,168,c),
(196,211,o),
(197,255,o),
(196,298,c),
(200,298,ls),
(219,298,o),
(235,304,o),
(251,307,c),
(252,312,o),
(255,314,o),
(256,315,cs),
(260,324,o),
(263,338,o),
(261,349,c),
(258,356,o),
(256,366,o),
(248,370,c),
(233,371,o),
(218,369,o),
(201,370,cs),
(194,370,l)
);
}
);
width = 671;
}
);
unicode = 208;
},
{
glyphname = E;
kernLeft = H;
kernRight = E;
lastChange = "2025-02-13 12:00:19 +0000";
layers = (
{
anchors = (
{
name = bottom;
pos = (259,0);
},
{
name = ogonek;
pos = (364,10);
},
{
name = top;
pos = (240,660);
},
{
name = topleft;
pos = (26,660);
}
);
layerId = "7C3BCDA4-8F92-4DF1-91BA-B714BE37B8B5";
shapes = (
{
closed = 1;
nodes = (
(145,229,o),
(145,252,o),
(146,268,c),
(151,275,o),
(145,290,o),
(152,295,c),
(148,305,o),
(153,312,o),
(158,317,c),
(174,324,o),
(200,322,o),
(216,322,cs),
(220,322,o),
(224,323,o),
(227,323,cs),
(256,324,o),
(280,325,o),
(306,325,cs),
(315,325,o),
(325,323,o),
(336,323,cs),
(345,323,o),
(355,325,o),
(364,323,c),
(381,329,o),
(405,326,o),
(416,336,c),
(426,354,o),
(413,374,o),
(416,397,c),
(402,408,o),
(374,406,o),
(348,406,c),
(321,415,o),
(288,406,o),
(262,413,c),
(256,408,o),
(247,412,o),
(236,410,cs),
(208,409,o),
(169,403,o),
(153,420,c),
(146,433,o),
(148,457,o),
(150,468,cs),
(151,481,o),
(147,489,o),
(146,500,c),
(153,517,o),
(150,535,o),
(150,555,c),
(155,560,o),
(153,571,o),
(160,573,c),
(165,580,o),
(179,578,o),
(190,576,c),
(227,582,o),
(266,580,o),
(306,580,cs),
(331,580,o),
(356,584,o),
(380,581,c),
(393,584,o),
(412,582,o),
(414,597,cs),
(416,615,o),
(416,643,o),
(406,654,c),
(380,659,o),
(352,658,o),
(323,658,cs),
(315,658,o),
(308,660,o),
(301,660,cs),
(294,659,o),
(287,656,o),
(279,656,cs),
(265,656,o),
(251,658,o),
(236,658,cs),
(186,658,o),
(141,656,o),
(92,658,c),
(84,655,o),
(71,654,o),
(67,645,c),
(61,626,o),
(65,605,o),
(67,584,cs),
(67,563,o),
(67,541,o),
(67,522,c),
(64,510,o),
(63,498,o),
(62,485,cs),
(62,465,o),
(63,443,o),
(67,428,c),
(67,423,o),
(63,421,o),
(64,414,c),
(67,408,o),
(68,400,o),
(67,390,c),
(65,380,o),
(71,376,o),
(70,367,c),
(64,347,o),
(69,323,o),
(69,300,cs),
(68,271,o),
(67,242,o),
(69,218,c),
(65,202,o),
(67,185,o),
(69,169,cs),
(70,162,o),
(65,162,o),
(67,155,c),
(69,150,o),
(71,144,o),
(67,138,c),
(69,132,o),
(68,122,o),
(70,116,c),
(70,113,o),
(69,110,o),
(69,105,c),
(67,95,o),
(68,73,o),
(69,62,cs),
(69,49,o),
(65,38,o),
(70,29,c),
(76,23,o),
(81,16,o),
(89,14,cs),
(113,8,o),
(143,11,o),
(167,11,cs),
(183,11,o),
(199,10,o),
(215,10,cs),
(230,10,o),
(246,10,o),
(259,12,c),
(292,8,o),
(328,15,o),
(358,10,c),
(364,10,o),
(369,13,o),
(375,12,c),
(385,13,o),
(397,10,o),
(403,16,c),
(409,18,o),
(417,20,o),
(420,29,c),
(423,49,o),
(426,77,o),
(413,88,c),
(390,95,o),
(363,91,o),
(339,91,cs),
(330,91,o),
(322,94,o),
(313,94,cs),
(307,94,o),
(301,90,o),
(295,90,cs),
(289,89,o),
(281,91,o),
(276,91,cs),
(269,91,o),
(261,89,o),
(255,90,cs),
(247,90,o),
(241,94,o),
(235,94,cs),
(228,94,o),
(222,91,o),
(216,91,cs),
(210,91,o),
(203,94,o),
(197,94,cs),
(188,94,o),
(179,88,o),
(169,91,c),
(158,97,o),
(151,105,o),
(146,117,c),
(144,126,o),
(147,139,o),
(146,152,c),
(152,156,o),
(147,163,o),
(148,166,c),
(148,172,o),
(151,178,o),
(152,184,c),
(146,215,l)
);
}
);
width = 470;
}
);
unicode = 69;
},
{
glyphname = Schwa;
kernLeft = O;
kernRight = O;
lastChange = "2025-02-13 12:00:19 +0000";
layers = (
{
layerId = "7C3BCDA4-8F92-4DF1-91BA-B714BE37B8B5";
shapes = (
{
closed = 1;
nodes = (
(524,22,l),
(530,28,o),
(536,30,o),
(544,32,c),
(548,38,o),
(555,40,o),
(561,44,c),
(565,48,o),
(570,52,o),
(577,54,c),
(580,59,o),
(582,64,o),
(588,66,c),
(596,75,o),
(603,82,o),
(616,86,c),
(620,98,o),
(630,104,o),
(636,113,cs),
(642,122,o),
(652,129,o),
(658,137,c),
(661,144,o),
(662,151,o),
(665,157,cs),
(670,168,o),
(677,176,o),
(682,187,cs),
(684,191,o),
(684,196,o),
(685,199,cs),
(688,205,o),
(692,212,o),
(695,219,c),
(697,227,o),
(697,235,o),
(703,241,c),
(704,256,o),
(705,270,o),
(712,280,c),
(706,295,o),
(708,313,o),
(707,330,cs),
(707,347,o),
(707,366,o),
(706,383,cs),
(704,413,o),
(690,437,o),
(687,463,c),
(682,469,o),
(678,478,o),
(674,486,c),
(669,492,o),
(665,501,o),
(662,509,c),
(649,521,o),
(642,537,o),
(630,547,c),
(621,561,o),
(606,568,o),
(599,583,c),
(589,586,o),
(586,594,o),
(580,599,c),
(570,600,o),
(565,607,o),
(561,614,c),
(547,622,o),
(531,630,o),
(519,638,c),
(500,642,o),
(484,650,o),
(467,657,c),
(451,656,o),
(445,664,o),
(430,664,c),
(427,668,o),
(418,668,o),
(412,669,c),
(403,667,o),
(401,672,o),
(395,672,cs),
(347,674,o),
(306,668,o),
(268,660,c),
(259,657,o),
(251,653,o),
(243,650,cs),
(234,647,o),
(224,646,o),
(217,640,c),
(199,636,o),
(185,625,o),
(167,619,c),
(154,606,o),
(139,594,o),
(122,584,c),
(110,569,o),
(93,560,o),
(86,539,c),
(91,523,o),
(104,516,o),
(114,506,cs),
(124,498,o),
(132,485,o),
(149,484,c),
(156,485,o),
(164,486,o),
(167,492,c),
(174,497,o),
(174,505,o),
(181,508,c),
(189,518,o),
(200,525,o),
(209,536,c),
(225,541,o),
(236,550,o),
(249,558,c),
(257,558,o),
(263,562,o),
(268,566,c),
(281,564,o),
(292,572,o),
(302,573,cs),
(317,576,o),
(332,572,o),
(348,579,c),
(366,577,o),
(381,580,o),
(396,577,cs),
(409,575,o),
(419,567,o),
(431,570,c),
(441,565,o),
(453,563,o),
(465,559,cs),
(479,553,o),
(488,543,o),
(503,539,c),
(506,533,o),
(514,530,o),
(520,525,c),
(526,523,o),
(529,515,o),
(536,513,c),
(545,503,o),
(554,492,o),
(565,484,c),
(567,475,o),
(573,472,o),
(577,466,c),
(582,463,o),
(582,453,o),
(588,449,c),
(599,429,o),
(606,406,o),
(618,386,c),
(618,373,o),
(619,364,o),
(621,352,c),
(624,303,o),
(616,266,o),
(602,232,cs),
(599,224,o),
(594,219,o),
(591,208,c),
(580,196,o),
(566,184,o),
(561,167,c),
(543,149,o),
(523,136,o),
(504,120,c),
(495,116,o),
(485,112,o),
(478,105,c),
(463,104,o),
(453,98,o),
(443,93,c),
(407,85,l),
(390,84,o),
(372,83,o),
(359,80,c),
(335,83,o),
(315,83,o),
(296,87,cs),
(278,93,o),
(262,101,o),
(244,105,c),
(232,113,o),
(219,119,o),
(208,127,cs),
(193,141,o),
(183,161,o),
(169,176,c),
(167,184,o),
(162,191,o),
(156,200,c),
(155,203,o),
(155,206,o),
(153,210,cs),
(151,216,o),
(149,219,o),
(147,229,cs),
(145,236,o),
(143,243,o),
(144,251,c),
(148,257,o),
(238,253,o),
(254,253,cs),
(276,253,o),
(300,252,o),
(321,251,c),
(372,253,ls),
(406,254,o),
(438,252,o),
(470,251,cs),
(531,251,ls),
(549,251,o),
(568,248,o),
(587,248,c),
(600,254,o),
(614,237,o),
(623,244,c),
(623,254,o),
(624,282,o),
(621,291,c),
(626,303,o),
(636,319,o),
(626,333,c),
(613,336,o),
(594,338,o),
(575,338,cs),
(568,338,o),
(557,341,o),
(549,341,cs),
(528,339,ls),
(517,339,o),
(505,339,o),
(494,338,cs),
(473,338,o),
(454,336,o),
(431,337,cs),
(389,337,o),
(347,340,o),
(310,335,c),
(292,337,o),
(268,340,o),
(242,338,cs),
(226,337,ls),
(208,336,o),
(154,338,o),
(136,338,cs),
(96,339,o),
(81,341,o),
(69,340,cs),
(63,339,o),
(53,339,o),
(50,333,c),
(48,333,o),
(48,332,o),
(48,330,cs),
(48,295,ls),
(47,276,o),
(50,256,o),
(53,238,cs),
(55,224,o),
(61,212,o),
(62,198,c),
(68,188,o),
(70,174,o),
(76,162,c),
(83,153,o),
(87,141,o),
(92,129,c),
(96,124,o),
(100,120,o),
(103,113,cs),
(105,106,o),
(113,105,o),
(115,99,c),
(124,88,o),
(132,80,o),
(139,68,c),
(156,56,o),
(169,40,o),
(188,30,c),
(196,23,o),
(210,23,o),
(216,15,c),
(226,11,o),
(235,6,o),
(244,0,c),
(260,2,o),
(269,-4,o),
(280,-8,c),
(319,-11,o),
(363,-11,o),
(401,-15,c),
(422,-9,l),
(429,-8,o),
(437,-9,o),
(443,-4,c),
(457,-2,o),
(470,2,o),
(485,5,c)
);
}
);
width = 759;
}
);
unicode = 399;
},
{
glyphname = F;
kernLeft = H;
kernRight = F;
lastChange = "2025-02-13 13:58:41 +0000";
layers = (
{
anchors = (
{
name = bottom;
pos = (219,0);
},
{
name = top;
pos = (219,660);
}
);
layerId = "7C3BCDA4-8F92-4DF1-91BA-B714BE37B8B5";
shapes = (
{
closed = 1;
nodes = (
(66,271,o),
(67,238,o),
(67,204,cs),
(67,166,o),
(67,127,o),
(68,88,cs),
(68,82,o),
(66,76,o),
(66,68,cs),
(66,61,o),
(67,52,o),
(67,45,cs),
(67,32,o),
(62,21,o),
(66,11,c),
(73,3,o),
(88,1,o),
(102,1,cs),
(111,1,o),
(121,2,o),
(129,3,cs),
(140,4,o),
(148,2,o),
(154,8,cs),
(163,19,o),
(158,32,o),
(157,46,cs),
(156,65,o),
(158,83,o),
(159,103,cs),
(159,123,o),
(160,144,o),
(159,165,c),
(154,191,l),
(154,203,o),
(156,215,o),
(157,225,cs),
(158,236,o),
(157,247,o),
(157,257,cs),
(157,268,o),
(154,280,o),
(154,290,cs),
(154,300,o),
(157,313,o),
(160,320,c),
(167,325,o),
(179,323,o),
(189,323,cs),
(208,324,o),
(240,325,o),
(258,323,cs),
(263,323,o),
(267,321,o),
(272,322,cs),
(290,325,o),
(314,325,o),
(335,325,cs),
(360,325,o),
(385,321,o),
(399,334,c),
(404,345,o),
(402,358,o),
(399,370,c),
(399,384,o),
(400,398,o),
(393,405,c),
(384,409,o),
(372,406,o),
(363,406,cs),
(330,407,o),
(292,409,o),
(258,405,c),
(250,405,o),
(245,409,o),
(236,408,cs),
(225,408,o),
(219,404,o),
(209,405,cs),
(201,406,o),
(196,409,o),
(189,409,c),
(177,410,o),
(165,407,o),
(157,413,c),
(153,426,o),
(159,440,o),
(159,455,cs),
(159,483,o),
(154,513,o),
(160,537,c),
(160,542,o),
(156,548,o),
(154,557,c),
(154,565,o),
(153,574,o),
(159,580,c),
(190,580,o),
(221,581,o),
(255,581,cs),
(277,581,o),
(302,580,o),
(321,580,cs),
(324,580,o),
(324,580,o),
(327,581,c),
(329,581,o),
(332,580,o),
(333,580,cs),
(342,580,o),
(351,581,o),
(360,581,cs),
(371,581,o),
(385,576,o),
(396,582,c),
(411,603,o),
(409,656,o),
(387,667,c),
(371,665,o),
(352,666,o),
(342,665,cs),
(329,664,o),
(318,665,o),
(305,665,cs),
(280,666,o),
(259,664,o),
(237,661,cs),
(232,661,o),
(226,662,o),
(223,660,c),
(219,662,o),
(214,665,o),
(211,661,c),
(198,662,o),
(191,659,o),
(179,660,c),
(169,658,o),
(168,665,o),
(160,664,c),
(150,665,o),
(141,661,o),
(129,661,cs),
(107,661,o),
(81,669,o),
(66,656,c),
(58,637,o),
(66,616,o),
(66,595,cs),
(66,588,o),
(65,582,o),
(65,574,cs),
(65,565,o),
(67,555,o),
(67,546,cs),
(67,539,o),
(65,532,o),
(65,523,cs),
(65,515,o),
(67,504,o),
(67,496,cs),
(67,486,o),
(66,479,o),
(66,469,cs),
(67,416,o),
(67,365,o),
(67,315,cs),
(67,301,ls)
);
}
);
width = 448;
}
);
unicode = 70;
},
{
glyphname = G;
kernLeft = O;
kernRight = G;
lastChange = "2025-02-13 12:00:19 +0000";
layers = (
{
anchors = (
{
name = bottom;
pos = (390,0);
},
{
name = top;
pos = (390,660);
}
);
layerId = "7C3BCDA4-8F92-4DF1-91BA-B714BE37B8B5";
shapes = (
{
closed = 1;
nodes = (
(289,3,o),
(302,-1,o),
(316,-3,c),
(322,-8,o),
(330,-7,o),
(337,-8,c),
(358,-14,l),
(396,-10,o),
(440,-10,o),
(479,-7,c),
(490,-3,o),
(499,3,o),
(515,1,c),
(524,7,o),
(533,12,o),
(543,16,c),
(549,24,o),
(563,24,o),
(571,31,c),
(590,41,o),
(603,57,o),
(620,69,c),
(627,81,o),
(636,89,o),
(644,100,c),
(646,105,o),
(654,107,o),
(656,114,cs),
(659,121,o),
(663,124,o),
(667,130,c),
(672,142,o),
(676,154,o),
(683,163,c),
(689,175,o),
(691,189,o),
(697,199,c),
(698,213,o),
(704,225,o),
(706,239,cs),
(709,257,o),
(713,277,o),
(712,295,cs),
(712,331,ls),
(712,333,o),
(711,333,o),
(709,334,c),
(706,340,o),
(696,340,o),
(690,341,cs),
(678,342,o),
(663,340,o),
(647,339,cs),
(621,338,o),
(594,341,o),
(576,336,c),
(561,341,o),
(543,338,o),
(526,338,cs),
(517,337,o),
(509,339,o),
(501,339,cs),
(482,340,o),
(461,342,o),
(447,333,c),
(443,320,o),
(447,304,o),
(448,292,c),
(447,283,o),
(446,275,o),
(446,265,c),
(449,257,o),
(457,255,o),
(463,249,c),
(505,251,o),
(559,256,o),
(599,254,cs),
(605,254,o),
(611,257,o),
(615,252,c),
(616,244,o),
(614,237,o),
(612,230,cs),
(610,220,o),
(608,217,o),
(606,211,cs),
(604,207,o),
(604,204,o),
(603,201,c),
(598,192,o),
(592,185,o),
(590,177,c),
(576,162,o),
(566,142,o),
(551,128,cs),
(541,120,o),
(527,114,o),
(515,105,c),
(497,102,o),
(481,94,o),
(463,88,cs),
(444,84,o),
(424,84,o),
(400,81,c),
(387,84,o),
(370,85,o),
(352,86,c),
(316,94,l),
(306,99,o),
(296,105,o),
(281,105,c),
(275,113,o),
(264,117,o),
(255,121,c),
(237,137,o),
(216,150,o),
(199,168,c),
(193,185,o),
(179,197,o),
(168,209,c),
(165,219,o),
(160,225,o),
(157,233,cs),
(143,267,o),
(135,304,o),
(138,353,c),
(140,365,o),
(142,374,o),
(142,387,c),
(153,407,o),
(161,430,o),
(171,450,c),
(177,454,o),
(177,464,o),
(182,466,c),
(186,473,o),
(192,476,o),
(194,485,c),
(205,493,o),
(214,504,o),
(223,514,c),
(230,516,o),
(233,523,o),
(239,526,c),
(245,531,o),
(253,534,o),
(257,540,c),
(271,544,o),
(280,554,o),
(295,560,cs),
(306,564,o),
(318,566,o),
(328,571,c),
(340,568,o),
(350,576,o),
(363,578,cs),
(378,580,o),
(393,578,o),
(411,580,c),
(428,573,o),
(442,577,o),
(457,574,cs),
(467,573,o),
(478,565,o),
(491,567,c),
(496,563,o),
(503,559,o),
(510,559,c),
(523,551,o),
(534,542,o),
(550,537,c),
(559,526,o),
(570,519,o),
(579,509,c),
(585,506,o),
(585,498,o),
(592,493,c),
(595,487,o),
(603,485,o),
(610,485,c),
(627,485,o),
(636,499,o),
(645,507,cs),
(656,517,o),
(668,524,o),
(673,540,c),
(666,561,o),
(649,570,o),
(637,585,c),
(620,595,o),
(605,607,o),
(592,620,c),
(574,626,o),
(561,637,o),
(542,641,c),
(535,647,o),
(525,648,o),
(516,651,cs),
(508,654,o),
(500,658,o),
(491,661,c),
(453,669,o),
(412,675,o),
(364,673,cs),
(358,673,o),
(356,668,o),
(347,670,c),
(341,669,o),
(333,669,o),
(329,665,c),
(314,665,o),
(308,656,o),
(292,658,c),
(276,651,o),
(259,643,o),
(240,639,c),
(228,631,o),
(212,623,o),
(199,615,c),
(194,608,o),
(189,601,o),
(180,600,c),
(173,595,o),
(170,587,o),
(161,584,c),
(153,569,o),
(138,561,o),
(129,548,c),
(117,538,o),
(110,522,o),
(97,510,c),
(94,502,o),
(90,493,o),
(86,487,c),
(81,479,o),
(77,470,o),
(72,464,c),
(69,438,o),
(55,414,o),
(53,384,cs),
(52,367,o),
(52,348,o),
(52,331,cs),
(51,314,o),
(53,296,o),
(48,281,c),
(54,271,o),
(55,257,o),
(56,242,c),
(62,236,o),
(62,228,o),
(64,220,c),
(67,213,o),
(71,206,o),
(74,200,cs),
(75,197,o),
(75,192,o),
(77,188,cs),
(82,177,o),
(89,169,o),
(94,158,cs),
(97,152,o),
(98,145,o),
(101,138,c),
(107,130,o),
(117,123,o),
(124,114,cs),
(129,105,o),
(139,99,o),
(143,86,c),
(156,83,o),
(163,76,o),
(171,67,c),
(177,65,o),
(180,60,o),
(182,55,c),
(189,53,o),
(194,48,o),
(198,45,c),
(204,41,o),
(211,39,o),
(215,33,c),
(223,31,o),
(229,29,o),
(235,23,c),
(274,6,l)
);
}
);
width = 759;
}
);
unicode = 71;
},
{
glyphname = H;
kernLeft = H;
kernRight = H;
lastChange = "2025-02-13 12:00:19 +0000";
layers = (
{
anchors = (
{
name = bottom;
pos = (313,0);
},
{
name = center;
pos = (313,331);
},
{
name = top;
pos = (313,660);
},
{
name = topleft;
pos = (31,660);
}
);
layerId = "7C3BCDA4-8F92-4DF1-91BA-B714BE37B8B5";
shapes = (
{
closed = 1;
nodes = (
(555,247,o),
(554,262,o),
(557,276,cs),
(561,302,o),
(557,332,o),
(557,352,cs),
(557,356,o),
(559,362,o),
(559,367,cs),
(559,376,o),
(555,386,o),
(555,395,cs),
(555,412,o),
(556,430,o),
(557,441,cs),
(557,447,o),
(559,450,o),
(557,455,c),
(553,475,o),
(559,497,o),
(559,518,cs),
(559,536,o),
(554,554,o),
(557,573,c),
(545,599,o),
(568,641,o),
(549,661,c),
(523,665,o),
(497,667,o),
(475,658,c),
(472,652,o),
(469,647,o),
(469,639,cs),
(469,633,o),
(472,624,o),
(472,618,cs),
(472,605,o),
(470,593,o),
(471,581,cs),
(471,574,o),
(473,563,o),
(475,560,c),
(475,559,o),
(472,558,o),
(472,557,cs),
(472,553,o),
(475,549,o),
(475,543,cs),
(475,539,o),
(472,535,o),
(472,530,cs),
(475,435,ls),
(476,427,o),
(472,422,o),
(472,416,c),
(469,412,o),
(471,403,o),
(466,402,cs),
(434,396,o),
(391,403,o),
(354,400,c),
(348,401,o),
(343,404,o),
(333,403,c),
(324,404,o),
(316,402,o),
(310,400,c),
(285,403,o),
(257,402,o),
(228,402,cs),
(200,402,o),
(170,395,o),
(150,406,c),
(146,425,o),
(150,444,o),
(145,460,c),
(148,473,o),
(150,488,o),
(150,503,cs),
(150,527,o),
(149,555,o),
(149,578,cs),
(148,606,o),
(156,635,o),
(149,660,c),
(128,667,o),
(88,672,o),
(67,660,c),
(60,653,o),
(62,642,o),
(62,634,cs),
(62,593,o),
(63,561,o),
(63,523,cs),
(64,500,o),
(64,474,o),
(63,450,cs),
(63,426,o),
(64,403,o),
(65,380,cs),
(66,353,o),
(62,330,o),
(67,306,c),
(64,273,o),
(69,228,o),
(63,197,c),
(67,136,o),
(64,79,o),
(65,20,c),
(69,16,o),
(68,7,o),
(78,6,c),
(86,0,o),
(104,4,o),
(115,6,c),
(128,3,o),
(146,3,o),
(152,12,c),
(157,29,o),
(149,45,o),
(149,61,cs),
(146,110,o),
(150,147,o),
(147,194,c),
(148,200,o),
(150,204,o),
(150,213,cs),
(151,221,o),
(146,223,o),
(147,232,cs),
(149,276,ls),
(149,293,o),
(146,310,o),
(153,322,c),
(170,328,o),
(198,323,o),
(216,322,cs),
(219,322,o),
(221,323,o),
(225,323,cs),
(251,322,o),
(280,319,o),
(304,322,cs),
(314,323,o),
(322,329,o),
(332,329,cs),
(342,329,o),
(351,320,o),
(360,320,cs),
(368,320,o),
(374,323,o),
(381,323,c),
(401,318,o),
(421,323,o),
(442,323,c),
(446,324,o),
(452,322,o),
(452,322,c),
(458,321,o),
(466,326,o),
(471,320,c),
(477,307,o),
(472,293,o),
(472,279,cs),
(472,166,ls),
(472,156,o),
(475,146,o),
(475,136,cs),
(475,118,o),
(473,99,o),
(472,81,cs),
(472,63,o),
(473,46,o),
(471,29,cs),
(469,19,o),
(477,17,o),
(478,11,c),
(488,4,o),
(503,7,o),
(517,8,cs),
(531,8,o),
(546,4,o),
(557,11,c),
(561,16,o),
(561,23,o),
(561,31,cs),
(560,41,o),
(556,52,o),
(555,64,cs),
(553,96,o),
(559,128,o),
(559,161,cs),
(559,180,o),
(555,199,o),
(555,218,cs),
(555,230,ls)
);
}
);
width = 622;
}
);
unicode = 72;
},
{
glyphname = I;
kernLeft = H;
kernRight = H;
lastChange = "2025-02-13 12:00:19 +0000";
layers = (
{
anchors = (
{
name = bottom;
pos = (103,0);
},
{
name = ogonek;
pos = (83,10);
},
{
name = top;
pos = (103,660);
},
{
name = topleft;
pos = (20,660);
}
);
layerId = "7C3BCDA4-8F92-4DF1-91BA-B714BE37B8B5";
shapes = (
{
closed = 1;
nodes = (
(146,130,o),
(144,180,c),
(147,200,o),
(148,219,o),
(144,238,c),
(149,284,o),
(141,328,o),
(147,378,c),
(141,396,o),
(146,418,o),
(145,439,cs),
(145,458,o),
(143,475,o),
(147,491,c),
(145,498,o),
(144,505,o),
(142,513,c),
(149,548,o),
(144,593,o),
(147,626,cs),
(147,628,o),
(146,630,o),
(145,632,c),
(144,640,o),
(142,648,o),
(136,654,c),
(118,661,o),
(79,662,o),
(66,648,c),
(61,637,o),
(65,622,o),
(65,615,cs),
(64,605,o),
(65,592,o),
(63,585,cs),
(59,568,o),
(67,551,o),
(67,533,cs),
(67,530,o),
(66,524,o),
(66,521,cs),
(67,507,o),
(67,501,o),
(63,490,c),
(69,456,o),
(61,415,o),
(70,386,c),
(65,369,o),
(67,346,o),
(67,331,cs),
(67,314,o),
(66,300,o),
(69,286,c),
(69,278,o),
(64,277,o),
(65,270,c),
(69,257,o),
(66,241,o),
(66,227,c),
(67,220,o),
(70,218,o),
(70,211,c),
(56,182,o),
(77,143,o),
(63,116,c),
(67,106,o),
(68,94,o),
(70,83,c),
(69,60,o),
(61,32,o),
(75,17,c),
(86,15,o),
(103,14,o),
(111,19,c),
(123,19,o),
(135,20,o),
(142,28,c),
(146,77,o)
);
}
);
width = 209;
}
);
unicode = 73;
},
{
glyphname = J;
kernLeft = J;
kernRight = J;
lastChange = "2025-02-13 12:00:19 +0000";
layers = (
{
anchors = (
{
name = bottom;
pos = (149,0);
},
{
name = top;
pos = (179,660);
}
);
layerId = "7C3BCDA4-8F92-4DF1-91BA-B714BE37B8B5";
shapes = (
{
closed = 1;
nodes = (
(-20,-211,o),
(4,-220,c),
(17,-220,o),
(28,-222,o),
(38,-224,c),
(63,-218,o),
(86,-212,o),
(114,-206,c),
(122,-199,o),
(133,-197,o),
(142,-190,c),
(151,-185,o),
(158,-175,o),
(169,-171,c),
(174,-163,o),
(181,-156,o),
(189,-149,c),
(194,-141,o),
(199,-134,o),
(203,-127,c),
(205,-119,o),
(208,-112,o),
(214,-106,c),
(213,-97,o),
(217,-93,o),
(219,-85,c),
(219,-63,o),
(222,-38,o),
(222,-14,cs),
(222,10,o),
(219,32,o),
(224,53,c),
(219,81,o),
(220,121,o),
(224,147,c),
(220,178,o),
(221,209,o),
(221,238,cs),
(221,248,o),
(223,258,o),
(222,265,cs),
(220,301,o),
(222,342,o),
(222,381,cs),
(222,410,o),
(218,452,o),
(222,481,c),
(219,508,o),
(222,539,o),
(221,570,cs),
(220,585,o),
(220,602,o),
(221,618,cs),
(221,632,o),
(225,647,o),
(217,658,c),
(206,661,o),
(186,665,o),
(179,660,c),
(163,659,o),
(145,661,o),
(137,654,cs),
(132,649,o),
(130,633,o),
(134,623,c),
(137,561,o),
(134,492,o),
(137,428,c),
(133,420,o),
(135,407,o),
(132,397,c),
(134,384,o),
(137,372,o),
(137,358,cs),
(138,347,o),
(135,340,o),
(134,331,c),
(137,306,o),
(135,281,o),
(136,259,cs),
(137,239,ls),
(137,235,o),
(134,230,o),
(134,225,cs),
(134,222,o),
(136,221,o),
(136,219,cs),
(136,217,o),
(134,213,o),
(134,211,cs),
(134,198,o),
(137,184,o),
(137,171,cs),
(137,157,o),
(136,143,o),
(136,128,cs),
(136,113,o),
(137,97,o),
(137,81,cs),
(138,49,o),
(133,18,o),
(139,-10,c),
(136,-24,o),
(134,-41,o),
(132,-57,c),
(127,-69,o),
(122,-82,o),
(118,-96,c),
(103,-110,o),
(90,-125,o),
(68,-134,c),
(50,-137,o),
(31,-133,o),
(13,-135,c),
(8,-131,o),
(-2,-132,o),
(-7,-127,c),
(-14,-125,o),
(-24,-122,o),
(-31,-125,cs),
(-44,-130,o),
(-41,-147,o),
(-50,-154,cs),
(-55,-157,o),
(-57,-163,o),
(-58,-170,c),
(-64,-173,o),
(-66,-180,o),
(-66,-187,c),
(-54,-209,o)
);
}
);
width = 286;
}
);
unicode = 74;
},
{
glyphname = K;
kernLeft = H;
kernRight = K;
lastChange = "2025-02-13 13:55:11 +0000";
layers = (
{
anchors = (
{
name = bottom;
pos = (289,0);
},
{
name = top;
pos = (289,660);
}
);
layerId = "7C3BCDA4-8F92-4DF1-91BA-B714BE37B8B5";
shapes = (
{
closed = 1;
nodes = (
(537,32,o),
(535,33,c),
(526,43,o),
(519,49,o),
(514,62,c),
(501,70,o),
(492,86,o),
(480,95,c),
(475,105,o),
(468,112,o),
(461,119,c),
(455,127,o),
(450,136,o),
(442,143,c),
(439,153,o),
(430,159,o),
(423,166,cs),
(420,170,o),
(417,174,o),
(416,180,c),
(413,184,o),
(407,185,o),
(406,191,c),
(397,197,o),
(390,204,o),
(386,213,c),
(378,219,o),
(371,227,o),
(367,235,c),
(352,249,o),
(342,266,o),
(329,279,c),
(323,288,o),
(315,295,o),
(310,303,c),
(302,308,o),
(296,316,o),
(292,325,c),
(283,331,o),
(280,340,o),
(271,346,c),
(266,357,o),
(255,358,o),
(255,371,cs),
(255,381,o),
(265,389,o),
(273,397,cs),
(280,405,o),
(290,412,o),
(293,419,c),
(304,422,o),
(308,432,o),
(317,438,c),
(322,447,o),
(333,451,o),
(339,460,c),
(352,466,o),
(358,480,o),
(367,487,cs),
(369,489,o),
(371,490,o),
(372,491,c),
(376,496,o),
(380,500,o),
(384,503,cs),
(399,517,o),
(410,534,o),
(430,543,c),
(444,565,o),
(466,580,o),
(483,599,c),
(492,606,o),
(500,617,o),
(510,623,c),
(518,635,o),
(532,638,o),
(530,658,c),
(522,668,o),
(508,662,o),
(494,661,cs),
(476,660,o),
(456,662,o),
(438,661,c),
(418,652,o),
(405,634,o),
(389,619,c),
(387,614,o),
(381,611,o),
(378,607,c),
(373,604,o),
(370,599,o),
(367,595,c),
(358,588,o),
(348,583,o),
(345,571,c),
(338,569,o),
(333,565,o),
(329,561,c),
(323,550,o),
(312,546,o),
(306,535,c),
(299,535,o),
(297,530,o),
(292,529,c),
(287,523,o),
(284,515,o),
(277,510,cs),
(272,505,o),
(267,500,o),
(263,491,c),
(256,488,o),
(251,484,o),
(244,480,c),
(241,474,o),
(238,471,o),
(235,468,cs),
(232,465,o),
(230,458,o),
(224,457,c),
(219,449,o),
(209,444,o),
(204,435,cs),
(199,427,o),
(187,423,o),
(182,414,c),
(172,409,o),
(169,399,o),
(155,398,c),
(150,402,o),
(154,407,o),
(153,413,cs),
(152,431,o),
(151,453,o),
(152,473,cs),
(152,481,o),
(156,483,o),
(157,488,c),
(149,504,o),
(152,531,o),
(150,552,c),
(153,563,o),
(154,574,o),
(153,585,cs),
(153,595,o),
(152,609,o),
(152,620,cs),
(152,635,o),
(156,649,o),
(149,658,c),
(140,667,o),
(126,661,o),
(112,661,cs),
(98,661,o),
(82,665,o),
(69,661,c),
(61,653,o),
(60,627,o),
(64,611,c),
(68,540,o),
(61,453,o),
(67,375,cs),
(67,369,o),
(63,367,o),
(64,358,cs),
(67,340,o),
(66,322,o),
(65,304,cs),
(65,285,o),
(67,265,o),
(67,245,cs),
(67,221,o),
(65,199,o),
(65,177,cs),
(65,149,o),
(63,111,o),
(67,86,c),
(66,65,o),
(64,35,o),
(65,16,c),
(71,5,o),
(89,5,o),
(107,6,c),
(120,3,o),
(145,2,o),
(153,10,cs),
(162,18,o),
(159,39,o),
(155,50,c),
(154,76,o),
(153,100,o),
(150,124,c),
(153,134,o),
(152,147,o),
(155,157,c),
(149,178,o),
(153,203,o),
(152,229,cs),
(151,247,o),
(149,263,o),
(150,278,c),
(152,287,o),
(162,288,o),
(163,297,c),
(170,300,o),
(172,309,o),
(182,312,c),
(194,305,o),
(199,292,o),
(207,284,cs),
(217,275,o),
(224,265,o),
(233,256,c),
(237,253,o),
(239,250,o),
(242,246,cs),
(246,241,o),
(247,237,o),
(251,233,cs),
(256,227,o),
(266,220,o),
(268,211,c),
(274,207,o),
(276,201,o),
(279,196,c),
(295,184,o),
(306,168,o),
(317,152,cs),
(330,137,o),
(342,122,o),
(356,110,c),
(360,105,o),
(363,100,o),
(367,95,c),
(369,89,o),
(375,88,o),
(378,83,cs),
(385,73,o),
(391,66,o),
(398,55,c),
(406,48,o),
(413,38,o),
(422,31,c),
(429,22,o),
(435,12,o),
(447,8,c),
(460,5,o),
(476,7,o),
(491,8,cs),
(507,8,o),
(524,8,o),
(538,14,c),
(539,18,o),
(540,22,o),
(539,29,cs),
(539,30,o)
);
}
);
width = 567;
}
);
unicode = 75;
},
{
glyphname = L;
kernLeft = H;
kernRight = L;
lastChange = "2025-02-13 13:52:11 +0000";
layers = (
{
anchors = (
{
name = bottom;
pos = (200,0);
},
{
name = middle;
pos = (238,313);
},
{
name = top;
pos = (200,660);
},
{
name = topright;
pos = (380,660);
}
);
layerId = "7C3BCDA4-8F92-4DF1-91BA-B714BE37B8B5";
shapes = (
{
closed = 1;
nodes = (
(65,124,ls),
(65,122,o),
(66,121,o),
(67,119,c),
(67,86,ls),
(67,74,o),
(65,62,o),
(65,53,cs),
(65,49,o),
(67,47,o),
(67,43,cs),
(66,33,o),
(59,26,o),
(63,16,cs),
(73,-9,o),
(105,-3,o),
(137,-3,cs),
(169,-3,o),
(203,1,o),
(226,-5,c),
(252,1,o),
(287,-5,o),
(312,-5,cs),
(315,-5,o),
(318,-3,o),
(321,-3,cs),
(326,-4,o),
(327,-5,o),
(332,-5,cs),
(337,-4,o),
(344,-2,o),
(351,0,cs),
(356,1,o),
(362,3,o),
(368,6,c),
(371,14,o),
(378,18,o),
(376,31,c),
(376,67,ls),
(376,68,o),
(375,70,o),
(373,71,c),
(372,87,o),
(322,86,o),
(322,86,c),
(263,94,l),
(248,88,o),
(225,91,o),
(210,86,c),
(194,90,o),
(171,82,o),
(163,95,c),
(161,134,o),
(164,177,o),
(163,213,cs),
(162,238,o),
(162,266,o),
(164,293,c),
(161,321,o),
(159,356,o),
(164,384,c),
(160,390,o),
(163,399,o),
(163,408,cs),
(162,416,o),
(160,426,o),
(160,435,cs),
(160,453,o),
(161,471,o),
(161,490,cs),
(161,500,o),
(163,508,o),
(163,518,cs),
(163,526,o),
(161,535,o),
(161,543,cs),
(163,597,ls),
(164,615,o),
(165,633,o),
(160,649,c),
(156,651,o),
(156,655,o),
(153,656,c),
(147,662,o),
(138,662,o),
(130,667,c),
(108,666,o),
(85,667,o),
(69,660,c),
(62,645,o),
(63,625,o),
(63,604,cs),
(63,574,o),
(66,541,o),
(63,514,c),
(65,507,o),
(67,502,o),
(67,491,cs),
(65,406,o),
(66,314,o),
(65,233,c),
(63,233,o),
(66,225,o),
(67,223,c),
(67,207,l)
);
}
);
width = 405;
}
);
unicode = 76;
},
{
glyphname = Lslash;
kernLeft = H;
kernRight = L;
lastChange = "2025-02-13 12:00:19 +0000";
layers = (
{
layerId = "7C3BCDA4-8F92-4DF1-91BA-B714BE37B8B5";
shapes = (
{
closed = 1;
nodes = (
(103,315,o),
(85,314,o),
(68,302,c),
(56,284,o),
(64,261,o),
(78,244,c),
(88,241,o),
(103,248,o),
(114,246,c),
(120,250,o),
(125,254,o),
(132,257,c),
(132,233,l),
(130,233,o),
(133,225,o),
(135,223,c),
(135,207,l),
(132,124,ls),
(132,122,o),
(133,121,o),
(135,119,c),
(135,86,l),
(133,74,o),
(132,62,o),
(132,53,cs),
(132,49,o),
(135,47,o),
(135,43,c),
(133,33,o),
(127,26,o),
(130,16,c),
(142,-9,o),
(174,-3,o),
(205,-3,cs),
(238,-3,o),
(272,1,o),
(295,-5,c),
(320,1,o),
(355,-5,o),
(380,-5,cs),
(383,-5,o),
(387,-3,o),
(390,-3,cs),
(394,-4,o),
(395,-5,o),
(399,-5,cs),
(406,-4,o),
(412,-2,o),
(418,0,cs),
(425,1,o),
(430,3,o),
(435,6,c),
(439,14,o),
(447,18,o),
(445,31,c),
(445,67,ls),
(445,68,o),
(444,70,o),
(442,71,c),
(441,87,o),
(390,86,o),
(390,86,c),
(331,94,l),
(315,88,o),
(294,91,o),
(278,86,c),
(262,90,o),
(239,82,o),
(231,95,c),
(229,134,o),
(232,177,o),
(231,213,cs),
(230,237,o),
(230,265,o),
(232,292,c),
(245,296,ls),
(265,306,o),
(284,317,o),
(304,325,c),
(303,329,o),
(306,331,o),
(306,333,c),
(310,346,o),
(307,359,o),
(303,365,cs),
(296,372,o),
(290,381,o),
(278,382,c),
(260,376,o),
(247,367,o),
(229,364,c),
(232,384,l),
(228,390,o),
(231,399,o),
(231,408,cs),
(230,416,o),
(228,426,o),
(228,435,cs),
(228,453,o),
(229,471,o),
(229,490,cs),
(229,500,o),
(231,508,o),
(231,518,cs),
(231,526,o),
(229,535,o),
(229,543,cs),
(231,597,ls),
(231,615,o),
(233,633,o),
(228,649,c),
(224,651,o),
(224,655,o),
(221,656,cs),
(215,662,o),
(206,662,o),
(198,667,c),
(177,666,o),
(153,667,o),
(138,660,c),
(129,645,o),
(130,625,o),
(130,604,cs),
(130,574,o),
(133,541,o),
(130,514,c),
(132,507,o),
(135,502,o),
(135,491,cs),
(133,438,o),
(132,383,o),
(132,329,c),
(119,325,l)
);
}
);
width = 492;
}
);
unicode = 321;
},
{
glyphname = M;
kernLeft = M;
kernRight = M;
lastChange = "2025-02-13 12:00:19 +0000";
layers = (
{
anchors = (
{
name = bottom;
pos = (391,0);
},
{
name = top;
pos = (391,660);
}
);
layerId = "7C3BCDA4-8F92-4DF1-91BA-B714BE37B8B5";
shapes = (
{
closed = 1;
nodes = (
(640,584,o),
(637,603,o),
(632,620,c),
(633,639,o),
(628,659,o),
(614,658,cs),
(603,657,o),
(602,648,o),
(599,637,c),
(585,609,o),
(573,582,o),
(558,557,c),
(556,546,o),
(552,537,o),
(545,530,c),
(546,522,o),
(541,517,o),
(538,509,cs),
(529,487,ls),
(523,473,o),
(516,461,o),
(507,449,c),
(505,436,o),
(499,428,o),
(496,416,c),
(492,409,o),
(488,404,o),
(484,398,c),
(484,392,o),
(482,388,o),
(481,383,c),
(472,372,o),
(468,359,o),
(461,350,c),
(461,341,o),
(454,339,o),
(453,332,cs),
(453,323,o),
(447,320,o),
(444,314,c),
(443,305,o),
(438,301,o),
(438,292,c),
(426,279,o),
(421,257,o),
(414,242,c),
(412,240,o),
(410,239,o),
(410,238,c),
(405,224,o),
(404,213,o),
(397,201,c),
(393,189,o),
(391,178,o),
(381,173,c),
(371,181,o),
(371,201,o),
(364,213,c),
(358,227,o),
(353,240,o),
(348,254,c),
(347,263,o),
(339,265,o),
(339,274,c),
(336,281,o),
(333,288,o),
(330,293,c),
(324,307,o),
(318,320,o),
(311,332,c),
(312,338,o),
(309,340,o),
(309,346,c),
(304,352,o),
(302,359,o),
(298,367,c),
(294,384,o),
(286,396,o),
(279,408,cs),
(267,430,o),
(258,453,o),
(251,480,c),
(246,485,o),
(240,490,o),
(238,499,cs),
(233,509,o),
(230,522,o),
(224,532,cs),
(221,539,o),
(218,544,o),
(218,552,c),
(206,565,o),
(201,581,o),
(194,597,cs),
(188,612,o),
(179,627,o),
(176,645,c),
(169,654,o),
(165,670,o),
(152,665,cs),
(143,661,o),
(143,650,o),
(141,641,cs),
(138,632,o),
(137,621,o),
(133,615,c),
(133,577,o),
(120,554,o),
(116,521,c),
(109,489,o),
(103,459,o),
(93,432,c),
(93,413,l),
(87,402,o),
(87,388,o),
(86,375,c),
(75,339,l),
(74,314,o),
(68,295,o),
(64,273,c),
(64,258,l),
(49,221,o),
(46,174,o),
(34,133,c),
(39,114,o),
(29,95,o),
(34,74,c),
(34,66,o),
(24,67,o),
(25,57,c),
(29,43,o),
(19,30,o),
(26,17,c),
(41,10,o),
(71,4,o),
(91,11,c),
(98,18,o),
(99,30,o),
(105,38,c),
(105,44,o),
(102,46,o),
(103,52,c),
(117,104,o),
(123,164,o),
(138,216,c),
(137,238,o),
(142,255,o),
(149,270,c),
(149,287,l),
(162,312,o),
(157,353,o),
(171,378,c),
(170,388,o),
(172,398,o),
(174,408,cs),
(176,417,o),
(175,430,o),
(183,433,c),
(194,414,o),
(201,390,o),
(210,370,c),
(217,360,o),
(219,348,o),
(224,338,cs),
(231,328,o),
(234,316,o),
(239,306,c),
(247,282,o),
(259,265,o),
(268,242,c),
(279,222,o),
(288,201,o),
(295,178,c),
(299,172,o),
(303,166,o),
(306,161,cs),
(309,153,o),
(311,144,o),
(314,139,cs),
(317,134,o),
(318,131,o),
(320,124,cs),
(323,117,o),
(328,111,o),
(330,103,cs),
(336,83,o),
(348,67,o),
(352,43,c),
(355,36,o),
(360,30,o),
(364,22,cs),
(367,15,o),
(369,6,o),
(378,6,c),
(391,8,o),
(397,17,o),
(400,30,c),
(405,39,o),
(409,49,o),
(414,61,c),
(420,68,o),
(421,83,o),
(428,90,c),
(433,101,o),
(436,112,o),
(444,119,c),
(444,126,o),
(447,131,o),
(449,138,c),
(466,165,o),
(476,200,o),
(493,227,cs),
(508,257,o),
(520,290,o),
(536,317,c),
(537,326,o),
(541,332,o),
(542,339,c),
(550,349,o),
(555,358,o),
(558,371,c),
(563,373,o),
(563,382,o),
(565,389,c),
(568,392,o),
(572,397,o),
(574,403,cs),
(578,412,o),
(577,426,o),
(587,428,c),
(593,407,o),
(594,381,o),
(601,360,c),
(601,355,o),
(599,353,o),
(599,348,c),
(609,326,o),
(609,295,o),
(618,273,c),
(618,266,o),
(614,265,o),
(616,258,c),
(619,253,o),
(620,246,o),
(623,239,c),
(622,227,o),
(625,219,o),
(628,209,c),
(628,185,o),
(636,169,o),
(639,149,cs),
(642,129,o),
(653,114,o),
(651,88,c),
(656,77,o),
(653,56,o),
(658,46,c),
(657,28,o),
(663,16,o),
(673,8,c),
(693,3,o),
(726,4,o),
(744,11,c),
(753,24,o),
(745,35,o),
(742,49,cs),
(740,57,o),
(740,67,o),
(739,74,cs),
(738,83,o),
(736,90,o),
(734,98,cs),
(733,106,o),
(733,115,o),
(730,122,c),
(724,154,o),
(713,181,o),
(713,219,c),
(706,238,o),
(707,265,o),
(697,282,c),
(699,296,o),
(694,302,o),
(694,315,c),
(689,323,o),
(692,338,o),
(686,346,c),
(685,358,o),
(680,370,o),
(677,379,c),
(676,409,o),
(667,428,o),
(661,454,cs),
(660,460,o),
(663,463,o),
(662,468,c),
(657,481,o),
(657,493,o),
(656,506,cs),
(653,519,o),
(649,533,o),
(649,548,c),
(642,563,l)
);
}
);
width = 772;
}
);
unicode = 77;
},
{
glyphname = N;
kernLeft = H;
kernRight = H;
lastChange = "2025-02-13 12:00:19 +0000";
layers = (
{
anchors = (
{
name = bottom;
pos = (360,0);
},
{
name = top;
pos = (379,660);
}
);
layerId = "7C3BCDA4-8F92-4DF1-91BA-B714BE37B8B5";
shapes = (
{
closed = 1;
nodes = (
(143,605,o),
(130,619,o),
(116,634,c),
(100,644,o),
(93,665,o),
(67,667,c),
(59,657,o),
(63,633,o),
(66,620,c),
(66,602,o),
(67,592,o),
(62,580,c),
(68,568,o),
(64,556,o),
(64,543,cs),
(64,539,o),
(65,533,o),
(66,526,c),
(66,469,ls),
(65,450,o),
(70,431,o),
(67,413,c),
(69,398,o),
(73,384,o),
(71,368,cs),
(70,357,o),
(67,348,o),
(67,336,cs),
(67,326,o),
(68,316,o),
(68,306,cs),
(67,295,o),
(65,282,o),
(68,270,c),
(64,252,o),
(67,236,o),
(66,215,c),
(74,194,o),
(62,159,o),
(71,143,c),
(66,126,o),
(65,102,o),
(68,84,c),
(66,63,o),
(67,34,o),
(71,16,c),
(86,4,o),
(132,4,o),
(146,16,c),
(149,24,o),
(150,36,o),
(151,48,cs),
(151,55,o),
(146,58,o),
(146,67,c),
(143,91,o),
(146,123,o),
(146,144,cs),
(146,148,o),
(144,151,o),
(144,155,c),
(148,180,l),
(148,190,o),
(146,202,o),
(146,215,cs),
(146,221,o),
(149,230,o),
(149,238,cs),
(151,265,o),
(144,292,o),
(149,320,c),
(144,337,o),
(146,367,o),
(149,384,c),
(146,398,o),
(149,418,o),
(146,432,c),
(149,436,o),
(151,442,o),
(152,447,cs),
(153,451,o),
(158,450,o),
(158,454,c),
(162,454,o),
(159,461,o),
(163,460,cs),
(176,457,o),
(180,446,o),
(191,441,c),
(197,431,o),
(208,426,o),
(216,419,c),
(219,412,o),
(225,409,o),
(229,403,c),
(231,396,o),
(237,392,o),
(243,389,c),
(251,378,o),
(263,371,o),
(270,358,c),
(291,340,o),
(312,323,o),
(329,301,c),
(338,297,o),
(344,288,o),
(351,281,cs),
(358,274,o),
(367,268,o),
(372,259,c),
(378,255,o),
(380,248,o),
(388,246,c),
(395,235,o),
(406,227,o),
(416,218,cs),
(427,207,o),
(436,199,o),
(447,190,c),
(451,181,o),
(460,178,o),
(466,169,cs),
(471,162,o),
(481,155,o),
(487,149,cs),
(496,142,o),
(501,134,o),
(507,127,cs),
(514,122,o),
(520,119,o),
(526,114,c),
(532,102,o),
(543,93,o),
(553,84,cs),
(561,73,o),
(571,65,o),
(580,53,c),
(601,38,o),
(612,10,o),
(641,1,c),
(654,8,o),
(656,26,o),
(656,46,c),
(647,72,o),
(654,116,o),
(650,147,cs),
(650,153,o),
(651,157,o),
(653,162,c),
(648,182,o),
(651,204,o),
(651,227,cs),
(651,237,o),
(648,246,o),
(651,256,c),
(649,263,o),
(648,270,o),
(648,278,cs),
(648,284,o),
(651,290,o),
(651,297,c),
(652,302,o),
(650,307,o),
(650,313,cs),
(650,318,o),
(651,324,o),
(651,331,cs),
(651,353,o),
(648,375,o),
(650,400,cs),
(650,407,o),
(653,415,o),
(653,422,cs),
(653,436,o),
(649,451,o),
(650,466,cs),
(650,471,o),
(651,477,o),
(651,483,cs),
(651,490,o),
(648,500,o),
(648,507,cs),
(648,515,o),
(650,521,o),
(650,526,cs),
(650,546,o),
(647,566,o),
(653,584,c),
(645,600,o),
(654,634,o),
(647,649,c),
(641,655,o),
(633,655,o),
(623,656,c),
(613,655,o),
(606,657,o),
(596,656,c),
(589,654,o),
(579,655,o),
(573,651,c),
(567,639,o),
(566,621,o),
(568,611,c),
(569,609,o),
(567,609,o),
(567,609,c),
(566,600,o),
(569,598,o),
(570,590,cs),
(572,576,o),
(569,564,o),
(568,551,cs),
(567,542,o),
(572,541,o),
(571,533,c),
(572,513,o),
(568,491,o),
(571,469,cs),
(572,464,o),
(568,461,o),
(568,455,c),
(571,448,o),
(570,438,o),
(571,430,c),
(564,408,o),
(574,379,o),
(568,353,c),
(568,347,o),
(572,343,o),
(571,336,cs),
(571,328,o),
(572,317,o),
(571,308,cs),
(571,298,o),
(569,287,o),
(571,278,c),
(566,265,o),
(571,241,o),
(565,230,c),
(571,221,o),
(550,212,o),
(543,218,c),
(533,221,o),
(529,232,o),
(519,237,c),
(512,244,o),
(503,249,o),
(496,256,c),
(490,259,o),
(487,266,o),
(483,271,cs),
(468,287,o),
(452,298,o),
(438,313,c),
(431,324,o),
(418,331,o),
(410,341,cs),
(401,352,o),
(390,360,o),
(378,368,c),
(365,392,o),
(341,407,o),
(325,428,c),
(319,432,o),
(313,435,o),
(306,438,c),
(303,451,o),
(292,456,o),
(284,466,c),
(276,474,o),
(266,483,o),
(257,490,cs),
(241,507,o),
(225,526,o),
(204,541,c),
(199,558,o),
(183,566,o),
(174,580,c),
(155,590,l)
);
}
);
width = 717;
}
);
unicode = 78;
},
{
glyphname = Nhookleft;
kernLeft = Nhookleft;
kernRight = Nhookleft;
lastChange = "2025-02-13 12:00:19 +0000";
layers = (
{
layerId = "7C3BCDA4-8F92-4DF1-91BA-B714BE37B8B5";
shapes = (
{
ref = N;
},
{
closed = 1;
nodes = (
(68,185,o),
(67,180,o),
(68,176,c),
(69,149,l),
(68,143,ls),
(67,138,o),
(68,132,o),
(69,122,cs),
(70,115,l),
(70,69,l),
(69,58,ls),
(67,48,o),
(67,42,o),
(68,38,c),
(69,11,l),
(68,5,ls),
(67,0,o),
(67,-4,o),
(68,-8,c),
(69,-34,l),
(68,-41,ls),
(67,-46,o),
(67,-49,o),
(68,-54,c),
(69,-80,l),
(68,-85,ls),
(67,-89,o),
(67,-93,o),
(68,-100,cs),
(69,-125,l),
(67,-137,l),
(67,-147,l),
(49,-160,l),
(22,-152,l),
(4,-141,l),
(-7,-131,l),
(-9,-129,ls),
(-18,-121,o),
(-27,-121,o),
(-35,-129,cs),
(-47,-143,l),
(-52,-147,ls),
(-60,-154,o),
(-64,-159,o),
(-67,-163,cs),
(-70,-168,o),
(-70,-172,o),
(-66,-176,cs),
(-63,-180,o),
(-59,-184,o),
(-50,-191,cs),
(-46,-195,l),
(-37,-202,ls),
(-28,-209,o),
(-22,-214,o),
(-12,-218,cs),
(2,-223,l),
(10,-226,ls),
(20,-230,o),
(28,-232,o),
(39,-231,cs),
(57,-229,ls),
(68,-227,o),
(75,-225,o),
(85,-221,cs),
(93,-218,o),
(99,-214,o),
(105,-208,cs),
(112,-203,o),
(117,-199,o),
(123,-192,cs),
(127,-185,o),
(130,-180,o),
(134,-174,cs),
(138,-167,o),
(140,-161,o),
(141,-149,cs),
(143,-137,l),
(143,-117,l),
(143,-104,l),
(144,-92,l),
(144,-57,l),
(145,-47,l),
(145,-34,l),
(146,-10,l),
(147,1,l),
(147,13,l),
(148,25,l),
(148,183,ls),
(148,199,o),
(140,207,o),
(124,207,cs),
(109,207,l),
(102,206,l),
(73,207,l),
(72,207,ls),
(71,207,o),
(69,202,o),
(69,195,cs)
);
}
);
width = 717;
}
);
unicode = 413;
},
{
glyphname = Eng;
kernLeft = H;
kernRight = J;
lastChange = "2025-02-13 12:00:19 +0000";
layers = (
{
layerId = "7C3BCDA4-8F92-4DF1-91BA-B714BE37B8B5";
shapes = (
{
ref = N;
},
{
closed = 1;
nodes = (
(577,180,l),
(577,167,l),
(574,154,l),
(575,155,l),
(575,148,l),
(576,149,l),
(576,120,l),
(575,116,ls),
(574,112,o),
(574,110,o),
(574,108,cs),
(577,89,l),
(578,67,l),
(577,44,l),
(576,32,l),
(574,18,l),
(572,18,o),
(573,10,o),
(577,-1,c),
(576,-12,ls),
(575,-21,o),
(575,-28,o),
(576,-38,cs),
(577,-46,l),
(576,-58,ls),
(575,-67,o),
(574,-75,o),
(576,-85,cs),
(577,-91,l),
(574,-117,l),
(571,-120,l),
(575,-122,l),
(574,-122,ls),
(573,-122,o),
(573,-130,o),
(573,-145,cs),
(573,-147,l),
(556,-160,ls),
(555,-161,o),
(552,-158,o),
(540,-155,cs),
(528,-152,l),
(528,-151,l),
(528,-151,o),
(525,-148,o),
(516,-143,cs),
(510,-141,l),
(500,-132,l),
(500,-131,o),
(498,-129,o),
(492,-123,c),
(486,-120,o),
(478,-123,o),
(468,-133,cs),
(459,-143,l),
(444,-160,l),
(442,-160,o),
(440,-161,o),
(438,-164,cs),
(435,-168,o),
(446,-183,o),
(447,-185,c),
(447,-185,o),
(454,-191,o),
(461,-195,c),
(466,-200,ls),
(468,-204,o),
(473,-208,o),
(484,-212,c),
(490,-216,l),
(494,-219,o),
(499,-221,o),
(508,-223,c),
(508,-224,ls),
(508,-226,o),
(512,-227,o),
(520,-229,cs),
(527,-231,o),
(534,-231,o),
(545,-230,cs),
(564,-228,ls),
(576,-227,o),
(584,-226,o),
(593,-221,cs),
(603,-216,l),
(611,-211,l),
(623,-201,l),
(624,-201,o),
(626,-199,o),
(633,-189,cs),
(637,-183,l),
(643,-171,l),
(646,-163,o),
(649,-157,o),
(649,-147,cs),
(649,-137,l),
(650,-114,l),
(649,-91,l),
(649,-47,l),
(650,-24,l),
(655,-1,l),
(656,0,o),
(655,1,o),
(654,4,c),
(654,32,l),
(649,44,l),
(650,67,l),
(649,89,l),
(650,113,l),
(649,134,l),
(649,180,l),
(650,180,l),
(650,193,l),
(650,201,l),
(651,202,l),
(650,214,ls),
(649,220,o),
(641,224,o),
(626,224,cs),
(613,224,l),
(613,221,l),
(610,222,ls),
(608,223,o),
(606,222,o),
(604,220,c),
(578,224,l),
(577,223,o),
(577,216,o),
(577,201,cs)
);
}
);
width = 717;
}
);
unicode = 330;
},
{
glyphname = O;
kernLeft = O;
kernRight = O;
lastChange = "2025-02-13 13:52:27 +0000";
layers = (
{
anchors = (
{
name = bottom;
pos = (393,0);
},
{
name = center;
pos = (393,331);
},
{
name = ogonek;
pos = (430,10);
},
{
name = top;
pos = (393,660);
},
{
name = topleft;
pos = (16,660);
},
{
name = topright;
pos = (485,658);
}
);
layerId = "7C3BCDA4-8F92-4DF1-91BA-B714BE37B8B5";
shapes = (
{
closed = 1;
nodes = (
(97,507,o),
(98,504,o),
(97,503,cs),
(96,502,o),
(93,501,o),
(92,499,cs),
(88,493,ls),
(77,479,o),
(70,459,o),
(64,439,c),
(61,426,o),
(59,413,o),
(53,402,c),
(50,376,o),
(49,351,o),
(49,323,c),
(48,314,o),
(48,305,o),
(48,297,cs),
(48,281,o),
(59,268,o),
(55,252,c),
(62,238,o),
(67,224,o),
(69,207,c),
(91,169,o),
(114,132,o),
(144,103,c),
(153,91,o),
(167,86,o),
(175,72,c),
(187,67,o),
(199,57,o),
(211,50,cs),
(225,43,o),
(239,32,o),
(256,28,cs),
(258,27,o),
(260,24,o),
(263,23,cs),
(269,22,o),
(276,21,o),
(281,19,c),
(282,16,l),
(284,15,o),
(286,16,o),
(287,16,c),
(295,12,o),
(303,10,o),
(312,6,c),
(326,8,o),
(335,4,o),
(346,1,c),
(362,2,o),
(375,1,o),
(387,-2,c),
(418,1,o),
(453,-1,o),
(480,8,cs),
(494,12,o),
(510,15,o),
(522,22,c),
(536,27,o),
(550,31,o),
(561,39,c),
(575,44,o),
(583,54,o),
(599,58,c),
(631,83,l),
(637,94,o),
(653,99,o),
(658,111,c),
(678,129,o),
(692,153,o),
(708,174,c),
(713,192,o),
(726,206,o),
(732,225,cs),
(734,233,o),
(733,240,o),
(735,249,c),
(735,251,o),
(737,253,o),
(738,256,cs),
(740,266,o),
(741,276,o),
(745,287,c),
(743,314,o),
(746,337,o),
(747,365,cs),
(747,366,o),
(746,367,o),
(745,367,c),
(743,387,o),
(735,402,o),
(736,425,c),
(731,435,o),
(729,448,o),
(722,457,c),
(720,470,o),
(710,476,o),
(709,490,c),
(698,504,o),
(690,521,o),
(678,533,c),
(668,548,o),
(655,561,o),
(645,576,c),
(634,581,o),
(623,587,o),
(616,595,c),
(605,600,o),
(597,607,o),
(589,616,c),
(562,622,o),
(550,644,o),
(516,644,c),
(508,650,o),
(502,654,o),
(491,656,cs),
(485,658,o),
(477,660,o),
(468,661,c),
(461,664,o),
(452,666,o),
(445,667,cs),
(440,667,o),
(435,666,o),
(430,667,cs),
(427,667,o),
(423,670,o),
(419,670,cs),
(397,672,o),
(381,670,o),
(362,668,cs),
(351,668,o),
(339,667,o),
(331,665,cs),
(327,664,o),
(322,660,o),
(319,660,c),
(314,658,o),
(309,659,o),
(303,658,cs),
(298,657,o),
(295,655,o),
(290,654,cs),
(285,653,o),
(281,653,o),
(276,651,c),
(263,642,o),
(246,639,o),
(235,631,c),
(219,624,o),
(212,612,o),
(194,609,c),
(179,597,o),
(164,583,o),
(146,573,c),
(141,566,o),
(136,558,o),
(130,551,cs),
(124,543,o),
(116,539,o),
(111,532,cs),
(108,526,o),
(105,519,o),
(103,514,c),
(98,509,l)
);
},
{
closed = 1;
nodes = (
(667,362,o),
(667,362,o),
(667,360,c),
(665,353,o),
(667,347,o),
(667,339,cs),
(666,329,o),
(663,316,o),
(664,303,c),
(658,288,o),
(656,273,o),
(656,254,c),
(650,248,o),
(648,237,o),
(641,232,c),
(637,224,o),
(634,216,o),
(631,207,c),
(620,199,o),
(612,188,o),
(606,174,c),
(599,169,o),
(592,162,o),
(587,155,c),
(579,149,o),
(568,144,o),
(562,135,c),
(551,130,o),
(542,124,o),
(533,117,c),
(517,115,o),
(504,107,o),
(496,98,c),
(480,100,o),
(469,96,o),
(461,90,c),
(439,90,o),
(418,82,o),
(397,86,c),
(379,81,o),
(353,86,o),
(338,91,c),
(320,91,l),
(299,100,o),
(283,111,o),
(260,117,c),
(252,123,o),
(245,130,o),
(235,133,c),
(230,142,o),
(221,147,o),
(215,154,cs),
(203,163,o),
(191,175,o),
(180,185,c),
(178,194,o),
(172,197,o),
(168,201,c),
(165,217,o),
(156,227,o),
(152,240,cs),
(147,254,o),
(143,268,o),
(136,281,c),
(133,314,ls),
(133,323,o),
(131,334,o),
(132,342,cs),
(132,352,o),
(135,360,o),
(136,370,cs),
(138,379,o),
(141,388,o),
(142,397,c),
(147,404,o),
(148,416,o),
(152,425,c),
(160,434,o),
(159,444,o),
(163,454,cs),
(169,466,o),
(181,472,o),
(184,485,c),
(197,496,o),
(206,507,o),
(216,521,c),
(220,521,o),
(224,525,o),
(227,529,c),
(231,532,o),
(241,535,o),
(246,540,c),
(257,543,o),
(266,555,o),
(278,560,c),
(288,565,o),
(303,567,o),
(317,571,cs),
(336,578,ls),
(343,580,o),
(350,582,o),
(355,582,c),
(366,584,o),
(378,583,o),
(389,584,cs),
(401,585,o),
(412,586,o),
(424,585,cs),
(434,585,o),
(445,581,o),
(455,581,c),
(465,578,o),
(473,575,o),
(485,573,c),
(502,567,o),
(515,557,o),
(533,552,c),
(539,544,o),
(549,542,o),
(555,535,c),
(581,521,o),
(597,498,o),
(618,480,c),
(622,468,o),
(629,458,o),
(637,450,c),
(639,439,o),
(647,430,o),
(653,420,c),
(652,419,o),
(653,418,o),
(654,417,c),
(655,397,o),
(663,384,o),
(665,365,cs),
(665,362,l)
);
}
);
width = 794;
}
);
unicode = 79;
},
{
glyphname = Oslash;
kernLeft = O;
kernRight = O;
lastChange = "2025-02-13 12:00:19 +0000";
layers = (
{
anchors = (
{
name = bottom;
pos = (393,0);
},
{
name = top;
pos = (393,660);
}
);
layerId = "7C3BCDA4-8F92-4DF1-91BA-B714BE37B8B5";
shapes = (
{
closed = 1;
nodes = (
(516,644,l),
(508,650,o),
(502,654,o),
(491,656,cs),
(485,658,o),
(477,660,o),
(468,661,c),
(461,664,o),
(452,666,o),
(445,667,cs),
(440,667,o),
(435,666,o),
(430,667,cs),
(427,667,o),
(423,670,o),
(419,670,cs),
(397,672,o),
(381,670,o),
(362,668,cs),
(351,668,o),
(339,667,o),
(331,665,cs),
(327,664,o),
(322,660,o),
(319,660,c),
(314,658,o),
(309,659,o),
(303,658,cs),
(298,657,o),
(295,655,o),
(290,654,cs),
(285,653,o),
(281,653,o),
(276,651,c),
(263,642,o),
(246,639,o),
(235,631,c),
(219,624,o),
(212,612,o),
(194,609,c),
(179,597,o),
(164,583,o),
(146,573,c),
(141,566,o),
(136,558,o),
(130,551,cs),
(124,543,o),
(116,539,o),
(111,532,cs),
(108,526,o),
(105,519,o),
(103,514,c),
(98,509,l),
(97,507,o),
(98,504,o),
(97,503,cs),
(96,502,o),
(93,501,o),
(92,499,cs),
(88,493,ls),
(77,479,o),
(70,459,o),
(64,439,c),
(61,426,o),
(59,413,o),
(53,402,c),
(50,376,o),
(49,351,o),
(49,323,c),
(48,314,o),
(48,305,o),
(48,297,cs),
(48,281,o),
(59,268,o),
(55,252,c),
(62,238,o),
(67,224,o),
(69,207,c),
(91,169,o),
(114,132,o),
(144,103,c),
(153,91,o),
(167,86,o),
(175,72,c),
(187,67,o),
(199,57,o),
(211,50,cs),
(224,43,o),
(237,33,o),
(252,29,c),
(249,22,o),
(247,17,o),
(246,13,c),
(238,2,o),
(233,-10,o),
(230,-21,c),
(225,-29,o),
(219,-36,o),
(215,-46,c),
(216,-61,o),
(235,-64,o),
(255,-63,cs),
(276,-62,o),
(277,-63,o),
(289,-47,c),
(297,-40,o),
(295,-32,o),
(297,-27,c),
(302,-21,o),
(300,-12,o),
(303,-5,cs),
(309,7,l),
(310,7,o),
(311,6,o),
(312,6,cs),
(326,8,o),
(335,4,o),
(346,1,c),
(362,2,o),
(375,1,o),
(387,-2,c),
(418,1,o),
(453,-1,o),
(480,8,cs),
(494,12,o),
(510,15,o),
(522,22,c),
(536,27,o),
(550,31,o),
(561,39,c),
(575,44,o),
(583,54,o),
(599,58,c),
(631,83,l),
(637,94,o),
(653,99,o),
(658,111,c),
(678,129,o),
(692,153,o),
(708,174,c),
(713,192,o),
(726,206,o),
(732,225,cs),
(734,233,o),
(733,240,o),
(735,249,c),
(735,251,o),
(737,253,o),
(738,256,cs),
(740,266,o),
(741,276,o),
(745,287,c),
(743,314,o),
(746,337,o),
(747,365,cs),
(747,366,o),
(746,367,o),
(745,367,c),
(743,387,o),
(735,402,o),
(736,425,c),
(731,435,o),
(729,448,o),
(722,457,c),
(720,470,o),
(710,476,o),
(709,490,c),
(698,504,o),
(690,521,o),
(678,533,c),
(668,548,o),
(655,561,o),
(645,576,c),
(634,581,o),
(623,587,o),
(616,595,c),
(605,600,o),
(597,607,o),
(589,616,c),
(584,617,o),
(580,618,o),
(575,620,c),
(580,635,o),
(587,648,o),
(595,666,c),
(604,678,o),
(615,700,o),
(608,708,c),
(599,713,o),
(584,710,o),
(571,710,cs),
(555,710,o),
(564,713,o),
(546,707,c),
(533,693,o),
(532,676,o),
(526,661,cs),
(520,644,l)
);
},
{
closed = 1;
nodes = (
(133,323,o),
(131,334,o),
(132,342,cs),
(132,352,o),
(135,360,o),
(136,370,cs),
(138,379,o),
(141,388,o),
(142,397,c),
(147,404,o),
(148,416,o),
(152,425,c),
(160,434,o),
(159,444,o),
(163,454,cs),
(169,466,o),
(181,472,o),
(184,485,c),
(197,496,o),
(206,507,o),
(216,521,c),
(220,521,o),
(224,525,o),
(227,529,c),
(231,532,o),
(241,535,o),
(246,540,c),
(257,543,o),
(266,555,o),
(278,560,c),
(288,565,o),
(303,567,o),
(317,571,cs),
(336,578,ls),
(343,580,o),
(350,582,o),
(355,582,c),
(366,584,o),
(378,583,o),
(389,584,cs),
(401,585,o),
(412,586,o),
(424,585,cs),
(434,585,o),
(445,581,o),
(455,581,c),
(465,578,o),
(473,575,o),
(485,573,c),
(486,572,o),
(488,571,o),
(489,571,c),
(483,553,o),
(474,536,o),
(468,523,cs),
(463,507,ls),
(456,494,o),
(452,484,o),
(447,471,cs),
(440,458,o),
(410,381,o),
(399,371,c),
(396,355,ls),
(392,338,o),
(379,322,o),
(377,306,c),
(365,290,o),
(363,273,o),
(352,257,c),
(343,219,o),
(316,171,o),
(300,135,cs),
(289,105,l),
(280,110,o),
(270,114,o),
(260,117,c),
(252,123,o),
(245,130,o),
(235,133,c),
(230,142,o),
(221,147,o),
(215,154,cs),
(203,163,o),
(191,175,o),
(180,185,c),
(178,194,o),
(172,197,o),
(168,201,c),
(165,217,o),
(156,227,o),
(152,240,cs),
(147,254,o),
(143,268,o),
(136,281,c),
(133,314,ls)
);
},
{
closed = 1;
nodes = (
(667,362,o),
(667,362,o),
(667,360,c),
(665,353,o),
(667,347,o),
(667,339,cs),
(666,329,o),
(663,316,o),
(664,303,c),
(658,288,o),
(656,273,o),
(656,254,c),
(650,248,o),
(648,237,o),
(641,232,c),
(637,224,o),
(634,216,o),
(631,207,c),
(620,199,o),
(612,188,o),
(606,174,c),
(599,169,o),
(592,162,o),
(587,155,c),
(579,149,o),
(568,144,o),
(562,135,c),
(551,130,o),
(542,124,o),
(533,117,c),
(517,115,o),
(504,107,o),
(496,98,c),
(480,100,o),
(469,96,o),
(461,90,c),
(439,90,o),
(418,82,o),
(397,86,c),
(381,82,o),
(360,84,o),
(345,88,c),
(348,96,o),
(351,103,o),
(354,110,cs),
(355,112,o),
(353,112,o),
(354,114,cs),
(361,124,o),
(370,138,o),
(371,149,c),
(381,169,o),
(389,191,o),
(399,215,cs),
(407,237,l),
(410,242,o),
(416,251,o),
(419,257,cs),
(428,274,o),
(432,290,o),
(438,304,cs),
(446,322,o),
(450,338,o),
(462,354,c),
(462,354,o),
(491,419,o),
(489,422,c),
(486,424,o),
(495,432,o),
(495,434,c),
(506,471,o),
(523,506,o),
(541,544,c),
(546,542,o),
(551,539,o),
(555,535,c),
(581,521,o),
(597,498,o),
(618,480,c),
(622,468,o),
(629,458,o),
(637,450,c),
(639,439,o),
(647,430,o),
(653,420,c),
(652,419,o),
(653,418,o),
(654,417,c),
(655,397,o),
(663,384,o),
(665,365,cs),
(665,362,l)
);
}
);
width = 794;
}
);
unicode = 216;
},
{
glyphname = OE;
kernLeft = O;
kernRight = E;
lastChange = "2025-02-13 12:00:19 +0000";
layers = (
{
layerId = "7C3BCDA4-8F92-4DF1-91BA-B714BE37B8B5";
shapes = (
{
closed = 1;
nodes = (
(749,203,o),
(752,238,o),
(751,267,c),
(746,289,l),
(746,295,o),
(749,302,o),
(749,308,cs),
(749,310,o),
(747,313,o),
(749,316,cs),
(750,318,o),
(749,322,o),
(752,324,c),
(791,331,o),
(841,318,o),
(878,328,c),
(895,319,o),
(913,324,o),
(930,325,cs),
(953,328,o),
(977,323,o),
(996,324,cs),
(1009,324,o),
(1018,322,o),
(1027,331,c),
(1032,341,o),
(1026,354,o),
(1026,367,cs),
(1025,383,o),
(1032,398,o),
(1024,408,c),
(1000,413,o),
(974,409,o),
(948,408,cs),
(942,408,o),
(934,409,o),
(926,409,cs),
(919,409,o),
(911,408,o),
(904,408,cs),
(887,408,o),
(870,409,o),
(853,408,cs),
(803,408,ls),
(784,409,o),
(766,406,o),
(752,410,c),
(746,419,o),
(750,430,o),
(749,440,cs),
(746,477,o),
(746,522,o),
(746,556,cs),
(747,569,o),
(742,584,o),
(752,592,c),
(762,594,o),
(773,593,o),
(784,592,cs),
(814,592,ls),
(835,592,o),
(855,589,o),
(875,590,cs),
(881,591,o),
(888,592,o),
(894,592,cs),
(902,592,o),
(908,589,o),
(914,589,cs),
(919,589,o),
(923,590,o),
(927,590,cs),
(944,591,o),
(958,589,o),
(972,592,c),
(978,589,o),
(988,589,o),
(997,589,cs),
(1008,589,o),
(1019,587,o),
(1026,594,c),
(1035,605,o),
(1023,618,o),
(1027,632,c),
(1023,642,o),
(1030,666,o),
(1021,672,cs),
(1012,677,o),
(1001,674,o),
(991,673,c),
(991,673,o),
(987,675,o),
(985,675,cs),
(976,674,o),
(969,673,o),
(961,675,c),
(954,675,o),
(953,670,o),
(944,672,c),
(868,674,o),
(783,674,o),
(699,672,c),
(688,675,o),
(670,676,o),
(660,670,c),
(655,658,o),
(661,643,o),
(662,628,cs),
(662,622,o),
(660,616,o),
(660,608,cs),
(660,590,o),
(667,571,o),
(657,557,c),
(651,556,o),
(652,563,o),
(649,565,c),
(641,565,o),
(641,572,o),
(638,575,cs),
(626,587,o),
(615,599,o),
(600,609,c),
(595,618,o),
(583,618,o),
(578,625,c),
(570,628,o),
(562,636,o),
(556,639,cs),
(542,650,o),
(524,659,o),
(506,666,cs),
(498,669,o),
(486,668,o),
(478,675,c),
(427,683,o),
(358,684,o),
(311,672,cs),
(297,668,o),
(284,664,o),
(270,658,cs),
(257,654,o),
(246,647,o),
(233,641,c),
(225,636,o),
(218,632,o),
(206,628,c),
(198,618,o),
(182,611,o),
(172,600,c),
(164,598,o),
(162,590,o),
(156,584,c),
(148,581,o),
(145,574,o),
(140,568,cs),
(129,558,o),
(121,546,o),
(112,534,cs),
(106,527,o),
(102,523,o),
(101,513,c),
(96,506,o),
(88,504,o),
(87,496,c),
(72,466,o),
(58,434,o),
(53,396,c),
(53,373,l),
(44,340,o),
(49,295,o),
(53,261,c),
(58,253,o),
(57,239,o),
(63,232,c),
(66,223,o),
(68,213,o),
(71,206,cs),
(75,199,o),
(80,190,o),
(83,181,cs),
(86,174,o),
(88,167,o),
(90,161,c),
(94,153,o),
(98,149,o),
(101,145,cs),
(102,143,o),
(102,139,o),
(106,140,c),
(113,129,ls),
(118,124,o),
(120,117,o),
(123,110,c),
(133,105,o),
(137,95,o),
(145,87,cs),
(153,80,o),
(162,73,o),
(170,67,cs),
(181,57,o),
(191,49,o),
(201,41,cs),
(202,39,o),
(205,38,o),
(206,36,c),
(212,32,o),
(216,30,o),
(221,28,cs),
(236,19,o),
(253,15,o),
(267,5,c),
(291,4,o),
(305,-6,o),
(322,-13,c),
(331,-13,o),
(334,-12,o),
(340,-11,c),
(346,-13,o),
(351,-15,o),
(356,-16,cs),
(388,-19,o),
(421,-13,o),
(450,-17,c),
(465,-13,o),
(477,-6,o),
(495,-6,c),
(499,-3,o),
(504,-2,o),
(508,-1,c),
(521,6,o),
(533,13,o),
(548,16,c),
(555,22,o),
(562,28,o),
(572,30,c),
(579,40,o),
(589,48,o),
(600,52,c),
(605,58,o),
(609,65,o),
(616,68,c),
(619,74,o),
(624,80,o),
(629,85,c),
(634,86,o),
(633,90,o),
(634,94,c),
(637,97,o),
(641,98,o),
(641,102,c),
(649,105,o),
(650,115,o),
(660,115,c),
(661,107,o),
(667,105,o),
(666,97,cs),
(663,80,o),
(667,54,o),
(666,32,cs),
(665,23,o),
(660,17,o),
(660,6,c),
(667,-3,o),
(677,-7,o),
(690,-8,cs),
(696,-8,o),
(704,-5,o),
(712,-5,c),
(714,-4,o),
(717,-6,o),
(720,-6,cs),
(729,-7,o),
(741,-3,o),
(751,-3,c),
(755,-4,o),
(760,-6,o),
(766,-6,c),
(794,-2,o),
(822,0,o),
(850,-1,cs),
(864,-2,o),
(877,-3,o),
(891,-3,cs),
(902,-3,o),
(912,-1,o),
(922,-1,cs),
(955,-4,o),
(991,-1,o),
(1027,0,c),
(1030,6,o),
(1034,12,o),
(1032,21,c),
(1032,23,o),
(1030,23,o),
(1031,26,c),
(1032,36,o),
(1029,44,o),
(1027,52,c),
(1030,64,o),
(1030,81,o),
(1024,87,c),
(1011,95,o),
(996,87,o),
(981,87,cs),
(975,87,o),
(968,88,o),
(961,88,cs),
(943,88,o),
(926,86,o),
(908,86,cs),
(864,86,o),
(813,86,o),
(766,86,cs),
(761,86,o),
(755,84,o),
(752,87,cs),
(745,93,o),
(750,101,o),
(751,106,cs),
(751,110,o),
(749,112,o),
(749,115,cs),
(749,179,ls)
);
},
{
closed = 1;
nodes = (
(662,286,o),
(659,273,o),
(655,261,cs),
(651,249,o),
(644,238,o),
(641,223,c),
(632,211,o),
(623,196,o),
(616,180,c),
(605,172,o),
(600,162,o),
(591,154,cs),
(590,153,o),
(587,153,o),
(586,152,cs),
(584,151,o),
(584,147,o),
(581,145,c),
(581,144,o),
(579,144,o),
(578,143,cs),
(577,142,o),
(578,139,o),
(577,138,cs),
(576,137,o),
(573,138,o),
(572,137,cs),
(567,130,ls),
(566,129,o),
(564,130,o),
(562,129,cs),
(562,128,o),
(562,126,o),
(561,126,c),
(560,124,o),
(558,124,o),
(556,124,cs),
(555,123,o),
(555,121,o),
(555,121,c),
(547,118,ls),
(537,112,o),
(525,103,o),
(514,97,c),
(498,91,o),
(482,87,o),
(469,80,c),
(455,79,o),
(443,76,o),
(431,73,c),
(410,72,o),
(392,71,o),
(372,73,cs),
(366,73,o),
(358,72,o),
(353,73,cs),
(349,73,o),
(346,77,o),
(341,78,c),
(332,83,o),
(317,85,o),
(305,87,c),
(302,91,o),
(297,91,o),
(293,94,c),
(285,97,o),
(276,102,o),
(267,106,cs),
(264,108,o),
(260,112,o),
(256,113,c),
(239,121,o),
(229,134,o),
(214,143,c),
(206,156,o),
(195,162,o),
(188,174,c),
(158,200,o),
(148,246,o),
(135,289,c),
(137,300,o),
(133,312,o),
(132,322,cs),
(131,343,o),
(137,365,o),
(139,385,c),
(144,399,o),
(152,409,o),
(153,429,c),
(157,436,o),
(164,441,o),
(165,451,c),
(169,458,o),
(176,463,o),
(176,473,c),
(182,475,o),
(182,483,o),
(188,485,c),
(191,488,o),
(195,492,o),
(200,496,c),
(203,505,o),
(210,513,o),
(217,521,cs),
(225,530,o),
(239,534,o),
(247,544,c),
(252,549,o),
(258,551,o),
(264,554,cs),
(270,558,o),
(273,563,o),
(278,567,c),
(294,568,o),
(302,577,o),
(316,580,c),
(329,584,o),
(342,587,o),
(354,592,c),
(372,591,o),
(392,597,o),
(417,594,cs),
(431,591,o),
(448,590,o),
(465,589,c),
(468,587,o),
(472,584,o),
(476,583,cs),
(486,580,o),
(494,575,o),
(504,572,cs),
(508,570,o),
(514,569,o),
(518,567,cs),
(522,565,o),
(524,561,o),
(527,559,cs),
(531,557,o),
(535,556,o),
(539,554,cs),
(559,542,ls),
(572,532,o),
(582,520,o),
(596,511,c),
(603,497,o),
(618,488,o),
(622,471,c),
(635,460,o),
(637,441,o),
(649,430,c),
(649,414,o),
(657,407,o),
(657,390,c),
(662,379,o),
(663,363,o),
(663,347,c),
(666,347,o),
(666,346,o),
(666,345,cs),
(666,300,l)
);
}
);
width = 1080;
}
);
metricLeft = O;
metricRight = E;
unicode = 338;
},
{
glyphname = P;
kernLeft = H;
kernRight = P;
lastChange = "2025-02-13 12:00:19 +0000";
layers = (
{
anchors = (
{
name = bottom;
pos = (230,0);
},
{
name = top;
pos = (230,660);
}
);
layerId = "7C3BCDA4-8F92-4DF1-91BA-B714BE37B8B5";
shapes = (
{
closed = 1;
nodes = (
(235,282,o),
(238,284,o),
(242,284,cs),
(257,284,l),
(268,288,o),
(281,288,o),
(291,290,cs),
(304,293,o),
(319,298,o),
(328,303,cs),
(333,306,o),
(338,308,o),
(343,309,c),
(352,317,o),
(359,326,o),
(371,332,c),
(380,339,o),
(386,350,o),
(395,355,c),
(399,366,o),
(407,370,o),
(410,378,cs),
(415,386,o),
(420,393,o),
(425,402,c),
(428,430,o),
(437,454,o),
(434,490,c),
(431,501,o),
(431,511,o),
(430,522,c),
(428,533,o),
(423,542,o),
(422,552,c),
(408,572,o),
(394,592,o),
(378,609,c),
(372,614,o),
(367,618,o),
(358,619,c),
(353,627,o),
(345,633,o),
(337,637,c),
(326,641,o),
(316,647,o),
(304,649,c),
(298,651,o),
(292,651,o),
(285,653,cs),
(279,654,o),
(272,656,o),
(266,656,cs),
(260,657,o),
(256,656,o),
(250,656,cs),
(242,656,ls),
(238,656,o),
(237,656,o),
(235,656,cs),
(222,656,o),
(210,657,o),
(200,656,c),
(173,667,o),
(130,656,o),
(92,660,c),
(82,659,o),
(78,662,o),
(69,658,c),
(53,636,o),
(68,591,o),
(62,559,cs),
(60,550,o),
(66,548,o),
(65,540,c),
(60,523,o),
(66,504,o),
(67,491,cs),
(67,488,o),
(65,485,o),
(65,483,cs),
(65,468,o),
(67,455,o),
(67,441,cs),
(66,415,o),
(67,390,o),
(67,364,cs),
(67,357,o),
(67,352,o),
(67,346,cs),
(66,332,o),
(67,317,o),
(67,303,cs),
(67,284,o),
(65,259,o),
(65,245,cs),
(65,240,o),
(67,237,o),
(67,233,cs),
(66,225,o),
(63,219,o),
(63,211,cs),
(63,184,o),
(67,158,o),
(67,132,cs),
(66,120,o),
(66,108,o),
(67,97,cs),
(67,84,o),
(66,70,o),
(67,58,c),
(64,48,o),
(63,27,o),
(65,14,c),
(68,10,o),
(72,8,o),
(75,3,c),
(99,7,o),
(126,6,o),
(150,10,c),
(156,30,o),
(153,53,o),
(152,74,cs),
(151,88,o),
(151,105,o),
(152,114,cs),
(152,118,o),
(150,119,o),
(150,122,cs),
(150,128,o),
(152,133,o),
(152,138,cs),
(151,156,o),
(149,174,o),
(149,191,cs),
(148,220,o),
(151,251,o),
(149,276,c),
(154,282,o),
(164,285,o),
(177,284,cs),
(190,284,o),
(201,286,o),
(213,286,c),
(231,282,l)
);
},
{
closed = 1;
nodes = (
(357,480,o),
(354,472,o),
(358,464,c),
(353,459,o),
(354,450,o),
(352,444,cs),
(349,439,o),
(348,432,o),
(348,424,c),
(344,419,o),
(338,417,o),
(339,409,c),
(326,398,o),
(315,386,o),
(299,378,c),
(247,360,l),
(226,357,o),
(207,360,o),
(188,360,cs),
(176,360,o),
(164,355,o),
(153,362,c),
(152,380,o),
(148,400,o),
(149,419,cs),
(149,421,o),
(148,424,o),
(149,427,c),
(149,427,o),
(152,431,o),
(152,432,cs),
(152,434,o),
(150,438,o),
(150,443,cs),
(149,457,o),
(150,465,o),
(141,471,c),
(143,479,o),
(150,482,o),
(152,490,c),
(150,504,o),
(146,523,o),
(152,537,c),
(147,549,o),
(148,573,o),
(156,582,c),
(159,582,o),
(162,583,o),
(163,585,c),
(189,580,o),
(226,584,o),
(255,581,c),
(282,574,o),
(304,561,o),
(324,548,c),
(334,537,o),
(340,522,o),
(351,510,c),
(351,503,o),
(354,499,o),
(356,491,c),
(359,487,l)
);
}
);
width = 464;
}
);
unicode = 80;
},
{
glyphname = Thorn;
kernLeft = H;
kernRight = Thorn;
lastChange = "2025-02-13 12:00:19 +0000";
layers = (
{
layerId = "7C3BCDA4-8F92-4DF1-91BA-B714BE37B8B5";
shapes = (
{
closed = 1;
nodes = (
(151,655,o),
(152,660,o),
(152,660,c),
(142,661,l),
(125,660,o),
(108,658,o),
(92,660,c),
(82,659,o),
(78,662,o),
(69,658,c),
(53,636,o),
(68,591,o),
(62,559,cs),
(60,550,o),
(66,548,o),
(65,540,c),
(60,523,o),
(66,504,o),
(67,491,cs),
(67,488,o),
(65,485,o),
(65,483,cs),
(65,468,o),
(67,455,o),
(67,441,cs),
(66,415,o),
(67,390,o),
(67,364,cs),
(67,357,o),
(67,352,o),
(67,346,cs),
(66,332,o),
(67,317,o),
(67,303,cs),
(67,284,o),
(65,259,o),
(65,245,cs),
(65,240,o),
(67,237,o),
(67,233,cs),
(66,225,o),
(63,219,o),
(63,211,cs),
(63,184,o),
(67,158,o),
(67,132,cs),
(66,120,o),
(66,108,o),
(67,97,cs),
(67,84,o),
(66,70,o),
(67,58,c),
(64,48,o),
(63,27,o),
(65,14,c),
(68,10,o),
(72,8,o),
(75,3,c),
(99,7,o),
(126,6,o),
(150,10,c),
(156,30,o),
(153,53,o),
(152,74,cs),
(151,88,o),
(151,105,o),
(152,114,cs),
(152,118,o),
(150,119,o),
(150,122,cs),
(150,128,o),
(152,133,o),
(152,138,cs),
(151,156,o),
(154,180,o),
(154,197,cs),
(153,226,o),
(151,251,o),
(149,276,c),
(151,278,o),
(146,333,o),
(151,334,c),
(150,352,o),
(148,400,o),
(149,419,cs),
(149,421,o),
(148,424,o),
(149,427,c),
(149,427,o),
(152,431,o),
(152,432,cs),
(152,434,o),
(150,438,o),
(150,443,cs),
(149,457,o),
(150,465,o),
(141,471,c),
(143,479,o),
(150,482,o),
(152,490,c),
(150,504,o),
(146,523,o),
(152,537,c),
(147,549,o),
(149,555,o),
(150,563,cs),
(150,572,o),
(155,603,o),
(155,616,cs),
(155,622,o),
(152,620,o),
(152,625,cs),
(152,631,o),
(153,644,o),
(154,645,c)
);
},
{
closed = 1;
nodes = (
(140,170,o),
(170,171,o),
(177,170,c),
(190,170,o),
(201,172,o),
(213,172,c),
(231,168,l),
(235,168,o),
(238,170,o),
(242,170,cs),
(257,170,l),
(268,174,o),
(281,174,o),
(291,176,cs),
(304,179,o),
(319,184,o),
(328,189,cs),
(333,192,o),
(338,194,o),
(343,195,c),
(352,203,o),
(359,212,o),
(371,218,c),
(380,225,o),
(386,236,o),
(395,241,c),
(399,252,o),
(407,256,o),
(410,264,cs),
(415,272,o),
(420,279,o),
(425,288,c),
(428,316,o),
(437,340,o),
(434,376,c),
(431,387,o),
(431,397,o),
(430,408,c),
(428,419,o),
(423,428,o),
(422,438,c),
(408,458,o),
(394,478,o),
(378,495,c),
(372,500,o),
(367,504,o),
(358,505,c),
(353,513,o),
(345,519,o),
(337,523,c),
(326,527,o),
(316,533,o),
(304,535,c),
(298,537,o),
(292,537,o),
(285,539,cs),
(279,540,o),
(272,542,o),
(266,542,cs),
(260,543,o),
(256,542,o),
(250,542,cs),
(242,542,ls),
(238,542,o),
(237,542,o),
(235,542,cs),
(222,542,o),
(210,543,o),
(200,542,c),
(187,547,o),
(170,547,o),
(153,547,cs),
(152,547,o),
(113,547,o),
(111,547,c),
(125,471,l),
(137,469,o),
(167,467,o),
(181,468,cs),
(209,470,o),
(238,469,o),
(255,467,c),
(282,460,o),
(304,447,o),
(324,434,c),
(334,423,o),
(340,408,o),
(351,396,c),
(351,389,o),
(354,385,o),
(356,377,c),
(359,373,l),
(357,366,o),
(354,358,o),
(358,350,c),
(353,345,o),
(354,336,o),
(352,330,cs),
(349,325,o),
(348,318,o),
(348,310,c),
(344,305,o),
(338,303,o),
(339,295,c),
(326,284,o),
(315,272,o),
(299,264,c),
(247,246,l),
(226,243,o),
(169,246,o),
(150,246,cs),
(138,246,o),
(146,162,o),
(135,168,c)
);
}
);
width = 464;
}
);
metricRight = P;
unicode = 222;
},
{
glyphname = Q;
kernLeft = O;
kernRight = O;
lastChange = "2025-02-13 12:00:19 +0000";
layers = (
{
anchors = (
{
name = bottom;
pos = (409,0);
},
{
name = top;
pos = (409,660);
}
);
layerId = "7C3BCDA4-8F92-4DF1-91BA-B714BE37B8B5";
shapes = (
{
closed = 1;
nodes = (
(457,670,o),
(450,672,o),
(443,675,c),
(428,671,o),
(416,676,o),
(402,677,c),
(393,676,o),
(385,674,o),
(374,673,cs),
(362,672,o),
(348,674,o),
(335,672,c),
(329,665,o),
(315,665,o),
(305,661,c),
(288,658,o),
(270,654,o),
(259,648,c),
(254,643,o),
(246,641,o),
(238,639,c),
(222,630,o),
(208,618,o),
(189,611,c),
(184,603,o),
(178,599,o),
(170,593,cs),
(163,588,o),
(156,581,o),
(148,578,c),
(142,566,o),
(133,556,o),
(122,549,c),
(119,534,o),
(105,530,o),
(100,518,c),
(86,494,o),
(77,466,o),
(64,443,c),
(62,424,o),
(57,408,o),
(52,391,c),
(54,381,o),
(49,370,o),
(49,358,cs),
(48,351,o),
(51,342,o),
(50,334,cs),
(50,325,o),
(48,317,o),
(48,309,cs),
(48,292,o),
(52,276,o),
(55,259,cs),
(61,237,ls),
(63,230,o),
(68,222,o),
(66,215,c),
(75,200,o),
(83,180,o),
(91,163,c),
(103,147,o),
(115,133,o),
(125,117,c),
(138,108,o),
(146,96,o),
(159,86,c),
(165,83,o),
(169,77,o),
(179,74,c),
(182,67,o),
(189,64,o),
(194,57,c),
(204,54,o),
(211,48,o),
(219,43,cs),
(228,37,o),
(238,35,o),
(245,29,c),
(252,29,o),
(255,26,o),
(262,26,c),
(266,21,o),
(273,20,o),
(276,16,c),
(303,8,o),
(330,-1,o),
(360,-5,c),
(390,-3,o),
(427,-8,o),
(455,1,cs),
(464,3,o),
(466,-1,o),
(473,0,c),
(496,10,o),
(520,16,o),
(544,23,c),
(559,32,o),
(570,44,o),
(590,46,c),
(601,41,o),
(610,33,o),
(615,22,c),
(633,16,o),
(637,-3,o),
(656,-10,c),
(670,-10,o),
(684,-9,o),
(694,-10,cs),
(706,-10,ls),
(724,-10,o),
(741,-15,o),
(751,-2,c),
(751,4,o),
(751,10,o),
(748,11,c),
(739,20,o),
(730,29,o),
(717,34,c),
(712,40,o),
(709,48,o),
(702,52,c),
(698,60,o),
(686,60,o),
(684,68,c),
(677,72,o),
(673,80,o),
(667,84,c),
(665,87,o),
(661,90,o),
(658,94,cs),
(656,96,o),
(652,99,o),
(653,105,c),
(656,115,o),
(668,119,o),
(675,124,c),
(683,135,o),
(690,145,o),
(700,152,c),
(703,163,o),
(710,170,o),
(716,178,c),
(717,192,o),
(725,200,o),
(730,211,c),
(733,227,o),
(738,240,o),
(744,254,c),
(748,296,o),
(751,337,o),
(750,384,c),
(744,401,o),
(743,418,o),
(738,433,cs),
(733,448,o),
(724,463,o),
(721,477,c),
(711,491,o),
(700,504,o),
(694,522,c),
(683,534,o),
(675,548,o),
(665,560,c),
(653,569,o),
(642,585,o),
(631,590,c),
(629,590,o),
(629,593,o),
(628,593,c),
(627,594,o),
(626,593,o),
(625,593,c),
(625,594,o),
(624,597,o),
(623,597,c),
(623,598,o),
(621,597,o),
(620,597,c),
(619,600,l),
(615,604,o),
(609,606,o),
(605,609,cs),
(601,611,o),
(598,612,o),
(595,616,c),
(588,618,o),
(586,624,o),
(579,625,c),
(570,633,o),
(558,637,o),
(548,644,c),
(523,651,o),
(502,659,o),
(477,667,c),
(464,667,l)
);
},
{
closed = 1;
nodes = (
(531,219,o),
(523,225,o),
(519,232,cs),
(517,234,o),
(516,238,o),
(515,239,c),
(507,245,ls),
(500,252,o),
(492,259,o),
(482,265,c),
(463,265,o),
(441,259,o),
(425,267,c),
(418,268,o),
(415,264,o),
(409,263,c),
(396,266,o),
(380,266,o),
(376,254,c),
(376,240,o),
(387,238,o),
(393,232,cs),
(401,225,o),
(408,219,o),
(413,211,c),
(424,205,o),
(434,199,o),
(441,188,c),
(452,182,o),
(460,173,o),
(468,165,c),
(476,156,o),
(487,150,o),
(496,141,c),
(502,139,o),
(504,133,o),
(509,130,c),
(513,126,o),
(522,126,o),
(521,117,c),
(522,110,o),
(516,111,o),
(513,107,c),
(507,107,o),
(506,102,o),
(501,103,c),
(491,101,o),
(484,97,o),
(476,94,cs),
(463,89,o),
(442,91,o),
(429,86,c),
(417,86,o),
(408,88,o),
(399,88,cs),
(391,88,o),
(388,86,o),
(381,86,cs),
(366,87,o),
(352,96,o),
(333,94,c),
(315,99,o),
(299,105,o),
(283,113,c),
(275,116,o),
(267,119,o),
(258,124,c),
(254,128,l),
(249,131,o),
(241,133,o),
(237,136,cs),
(224,144,o),
(216,157,o),
(204,166,c),
(202,169,o),
(198,170,o),
(196,173,cs),
(192,178,ls),
(187,183,o),
(182,192,o),
(176,199,c),
(174,209,o),
(167,216,o),
(162,223,c),
(162,235,o),
(154,238,o),
(152,249,c),
(152,257,o),
(145,265,o),
(143,274,cs),
(140,286,o),
(142,299,o),
(137,309,c),
(136,326,o),
(136,335,o),
(137,352,c),
(140,369,o),
(142,387,o),
(146,403,cs),
(151,417,o),
(158,430,o),
(163,444,c),
(182,469,l),
(182,477,o),
(189,477,o),
(190,485,c),
(196,486,o),
(196,492,o),
(199,497,c),
(215,505,o),
(225,522,o),
(241,532,cs),
(255,542,o),
(273,551,o),
(287,561,c),
(300,563,o),
(310,571,o),
(324,574,cs),
(333,577,o),
(340,576,o),
(350,578,cs),
(360,580,o),
(371,584,o),
(383,585,c),
(409,583,o),
(438,582,o),
(464,578,cs),
(485,572,o),
(502,564,o),
(523,559,c),
(534,550,o),
(549,543,o),
(559,533,c),
(573,526,o),
(580,514,o),
(594,507,c),
(602,493,o),
(612,482,o),
(623,469,c),
(632,453,o),
(642,439,o),
(650,420,cs),
(651,418,o),
(650,415,o),
(651,413,cs),
(656,399,o),
(660,374,o),
(664,355,c),
(665,339,o),
(660,326,o),
(664,314,c),
(658,300,o),
(656,284,o),
(653,270,c),
(647,257,o),
(642,244,o),
(637,232,cs),
(626,204,o),
(616,181,o),
(594,165,c),
(585,166,o),
(583,174,o),
(576,178,c),
(573,184,o),
(565,185,o),
(564,194,c),
(556,196,o),
(553,203,o),
(548,207,cs),
(544,211,o),
(541,211,o),
(538,213,c),
(537,216,l)
);
}
);
width = 799;
}
);
unicode = 81;
},
{
glyphname = R;
kernLeft = H;
kernRight = R;
lastChange = "2025-02-13 13:55:28 +0000";
layers = (
{
anchors = (
{
name = bottom;
pos = (257,0);
},
{
name = top;
pos = (257,660);
}
);
layerId = "7C3BCDA4-8F92-4DF1-91BA-B714BE37B8B5";
shapes = (
{
closed = 1;
nodes = (
(266,172,o),
(279,152,o),
(295,136,c),
(301,128,o),
(307,118,o),
(310,111,c),
(314,110,l),
(314,105,o),
(315,101,o),
(318,98,cs),
(323,91,o),
(332,87,o),
(334,80,cs),
(339,71,o),
(346,67,o),
(350,58,cs),
(354,50,o),
(360,45,o),
(366,38,c),
(367,33,o),
(372,32,o),
(373,29,c),
(379,28,o),
(376,18,o),
(383,19,c),
(389,15,o),
(396,14,o),
(403,11,c),
(425,14,o),
(452,13,o),
(464,28,c),
(464,32,o),
(466,33,o),
(466,39,c),
(465,41,o),
(464,43,o),
(464,46,c),
(437,67,o),
(421,99,o),
(399,124,cs),
(395,128,o),
(394,133,o),
(392,136,c),
(387,149,o),
(376,157,o),
(370,168,c),
(363,175,o),
(360,184,o),
(353,188,c),
(352,200,o),
(342,201,o),
(337,209,c),
(335,216,o),
(331,219,o),
(329,225,c),
(318,233,o),
(312,245,o),
(304,256,c),
(297,258,o),
(296,268,o),
(291,271,c),
(287,277,o),
(281,281,o),
(281,290,c),
(288,295,o),
(295,296,o),
(306,297,c),
(320,305,o),
(338,310,o),
(353,319,c),
(353,320,o),
(354,320,o),
(356,320,c),
(365,335,o),
(377,346,o),
(391,355,c),
(405,380,o),
(415,407,o),
(425,436,c),
(423,448,o),
(427,455,o),
(428,466,c),
(426,476,o),
(425,493,o),
(429,503,c),
(425,507,o),
(426,519,o),
(422,525,c),
(421,535,o),
(413,539,o),
(414,551,c),
(397,576,l),
(394,578,l),
(392,582,l),
(392,583,o),
(390,583,o),
(390,584,cs),
(389,585,o),
(390,587,o),
(389,589,c),
(382,597,o),
(374,601,o),
(367,606,c),
(350,620,l),
(340,628,l),
(325,635,o),
(315,641,o),
(301,645,cs),
(291,649,o),
(284,651,o),
(274,653,cs),
(269,654,o),
(263,656,o),
(259,656,cs),
(245,656,o),
(229,650,o),
(216,658,c),
(211,657,o),
(208,655,o),
(202,654,c),
(188,658,o),
(174,655,o),
(160,656,cs),
(153,656,o),
(144,658,o),
(138,658,cs),
(126,658,o),
(117,656,o),
(105,656,c),
(91,652,o),
(70,654,o),
(64,639,c),
(63,628,o),
(67,622,o),
(67,612,c),
(64,599,o),
(65,585,o),
(67,573,cs),
(67,570,o),
(64,569,o),
(64,567,cs),
(64,564,o),
(67,561,o),
(67,559,cs),
(64,524,o),
(63,491,o),
(67,458,cs),
(68,452,o),
(65,448,o),
(64,443,c),
(65,437,o),
(69,434,o),
(69,427,c),
(67,414,o),
(63,400,o),
(64,386,cs),
(64,378,o),
(67,371,o),
(67,364,cs),
(68,353,o),
(67,346,o),
(64,336,c),
(67,329,o),
(67,314,o),
(64,306,c),
(67,301,o),
(68,295,o),
(69,289,c),
(69,269,o),
(65,245,o),
(69,223,c),
(63,201,o),
(68,167,o),
(62,144,c),
(62,137,o),
(67,134,o),
(67,127,cs),
(67,100,o),
(63,78,o),
(64,50,c),
(62,39,o),
(60,33,o),
(64,23,c),
(73,5,o),
(109,6,o),
(136,10,c),
(143,14,o),
(146,21,o),
(152,29,c),
(148,53,o),
(152,82,o),
(150,110,cs),
(150,120,o),
(146,130,o),
(146,139,cs),
(146,154,o),
(151,167,o),
(144,180,c),
(145,186,o),
(152,188,o),
(152,197,c),
(148,205,o),
(146,213,o),
(148,220,cs),
(150,233,o),
(153,240,o),
(154,251,cs),
(154,261,o),
(154,266,o),
(160,276,c),
(173,277,o),
(184,275,o),
(188,267,cs),
(193,257,o),
(201,253,o),
(208,248,c),
(212,239,o),
(219,235,o),
(223,229,cs),
(228,221,o),
(234,216,o),
(238,207,c),
(255,191,l)
);
},
{
closed = 1;
nodes = (
(261,583,o),
(268,574,o),
(285,576,c),
(291,569,o),
(298,565,o),
(310,563,c),
(321,548,o),
(336,536,o),
(345,519,c),
(348,507,o),
(352,498,o),
(356,487,c),
(356,450,o),
(339,430,o),
(328,405,c),
(322,401,o),
(316,398,o),
(314,391,c),
(298,386,l),
(293,385,o),
(293,379,o),
(287,378,c),
(276,374,o),
(271,367,o),
(261,362,c),
(223,364,o),
(196,356,o),
(162,362,c),
(152,374,l),
(151,388,o),
(152,409,o),
(148,424,c),
(150,434,o),
(151,446,o),
(153,455,c),
(150,466,o),
(148,481,o),
(144,491,c),
(146,515,o),
(144,533,o),
(150,552,c),
(148,563,o),
(146,568,o),
(148,580,c),
(160,588,o),
(177,585,o),
(196,585,cs),
(248,585,l)
);
}
);
width = 504;
}
);
unicode = 82;
},
{
glyphname = S;
kernLeft = S;
kernRight = S;
lastChange = "2025-02-13 13:52:38 +0000";
layers = (
{
anchors = (
{
name = bottom;
pos = (228,0);
},
{
name = top;
pos = (228,660);
}
);
layerId = "7C3BCDA4-8F92-4DF1-91BA-B714BE37B8B5";
shapes = (
{
closed = 1;
nodes = (
(105,167,o),
(104,174,o),
(103,181,c),
(98,184,o),
(101,196,o),
(93,196,c),
(84,200,o),
(71,188,o),
(63,194,c),
(52,191,o),
(41,189,o),
(31,185,c),
(26,173,o),
(29,158,o),
(31,144,c),
(34,138,o),
(40,133,o),
(41,124,c),
(44,116,o),
(48,111,o),
(49,102,c),
(57,97,o),
(61,89,o),
(66,84,cs),
(71,78,o),
(78,73,o),
(80,65,c),
(100,58,o),
(109,41,o),
(126,33,c),
(143,23,o),
(163,18,o),
(181,10,c),
(191,10,o),
(198,8,o),
(206,6,c),
(240,5,o),
(257,7,o),
(289,8,c),
(301,11,o),
(312,17,o),
(328,17,c),
(335,24,o),
(348,27,o),
(355,33,c),
(365,38,o),
(373,46,o),
(382,50,c),
(386,55,o),
(390,62,o),
(395,65,c),
(394,69,o),
(399,70,o),
(401,72,cs),
(406,77,o),
(409,80,o),
(410,84,cs),
(413,88,o),
(414,94,o),
(417,98,c),
(424,102,o),
(426,110,o),
(429,116,cs),
(432,122,o),
(432,129,o),
(434,135,cs),
(436,141,o),
(441,145,o),
(443,152,cs),
(444,157,o),
(445,167,o),
(444,171,cs),
(440,191,o),
(456,216,o),
(446,238,c),
(448,257,o),
(429,274,o),
(427,293,c),
(412,309,o),
(399,326,o),
(383,341,c),
(371,349,o),
(360,358,o),
(347,365,c),
(342,370,o),
(335,373,o),
(328,375,c),
(321,380,o),
(314,384,o),
(308,387,c),
(285,392,o),
(267,402,o),
(247,409,cs),
(227,416,o),
(211,428,o),
(189,433,c),
(176,444,o),
(159,451,o),
(147,464,c),
(143,473,o),
(140,484,o),
(138,496,c),
(142,521,o),
(151,539,o),
(162,559,c),
(179,576,o),
(200,588,o),
(228,595,c),
(240,594,o),
(251,595,o),
(261,597,c),
(282,592,o),
(299,585,o),
(316,578,c),
(318,575,o),
(319,573,o),
(324,573,c),
(329,566,o),
(334,561,o),
(339,554,c),
(346,549,o),
(347,537,o),
(358,537,cs),
(374,536,o),
(380,543,o),
(389,551,c),
(398,556,o),
(411,558,o),
(413,570,c),
(413,593,o),
(397,602,o),
(389,618,c),
(382,618,o),
(380,624,o),
(376,626,c),
(371,630,o),
(365,631,o),
(360,634,c),
(359,634,o),
(359,636,o),
(358,637,cs),
(357,637,o),
(355,637,o),
(354,637,c),
(346,643,o),
(340,650,o),
(333,654,c),
(318,651,o),
(313,658,o),
(306,660,cs),
(299,661,o),
(295,658,o),
(290,664,c),
(276,661,o),
(268,666,o),
(258,667,c),
(236,665,o),
(225,668,o),
(204,667,c),
(197,665,o),
(193,657,o),
(184,656,cs),
(174,655,o),
(167,649,o),
(157,648,c),
(149,639,o),
(140,634,o),
(128,631,c),
(125,625,o),
(123,621,o),
(115,620,c),
(109,609,o),
(99,600,o),
(90,592,c),
(88,580,o),
(77,574,o),
(73,563,c),
(71,561,o),
(72,557,o),
(71,554,cs),
(71,553,o),
(67,552,o),
(67,551,cs),
(65,541,o),
(66,534,o),
(63,525,c),
(64,508,o),
(61,497,o),
(62,481,cs),
(64,461,o),
(69,446,o),
(74,428,c),
(85,413,o),
(98,400,o),
(110,387,c),
(124,383,o),
(135,374,o),
(145,367,c),
(157,364,o),
(165,358,o),
(174,352,c),
(192,350,o),
(201,340,o),
(220,339,c),
(236,330,o),
(258,324,o),
(275,314,cs),
(291,304,o),
(306,293,o),
(324,284,c),
(331,274,o),
(342,267,o),
(349,256,c),
(350,250,o),
(352,247,o),
(355,242,c),
(356,227,o),
(365,219,o),
(366,203,cs),
(366,185,o),
(356,179,o),
(357,161,c),
(351,150,o),
(347,137,o),
(341,127,c),
(332,119,o),
(322,114,o),
(314,105,c),
(295,99,o),
(277,87,o),
(254,86,cs),
(240,85,o),
(226,86,o),
(209,86,c),
(189,90,o),
(173,100,o),
(150,103,c),
(147,108,o),
(140,110,o),
(138,117,c),
(134,120,o),
(134,124,o),
(132,128,c),
(124,135,o),
(117,142,o),
(112,152,cs),
(107,162,ls)
);
}
);
width = 478;
}
);
unicode = 83;
},
{
glyphname = Germandbls;
kernLeft = Germandbls;
kernRight = Germandbls;
lastChange = "2025-02-13 12:00:19 +0000";
layers = (
{
layerId = "7C3BCDA4-8F92-4DF1-91BA-B714BE37B8B5";
shapes = (
{
closed = 1;
nodes = (
(110,29,l),
(111,48,l),
(110,66,l),
(111,80,l),
(111,99,l),
(110,131,l),
(110,134,ls),
(110,144,o),
(111,152,o),
(111,162,cs),
(111,164,l),
(112,164,l),
(111,179,l),
(110,196,l),
(110,226,l),
(111,245,l),
(110,261,l),
(112,278,l),
(112,296,l),
(111,327,l),
(112,328,l),
(112,328,o),
(113,332,o),
(112,341,cs),
(111,356,l),
(112,374,l),
(111,392,l),
(112,393,l),
(112,393,o),
(113,397,o),
(112,407,cs),
(111,422,l),
(112,440,l),
(111,457,l),
(112,471,l),
(112,490,l),
(111,523,l),
(112,544,l),
(111,564,l),
(112,564,l),
(112,564,o),
(106,583,o),
(120,585,cs),
(127,586,l),
(135,587,ls),
(136,587,o),
(143,585,o),
(160,587,cs),
(168,588,l),
(234,588,l),
(252,586,ls),
(262,585,o),
(270,585,o),
(280,586,cs),
(299,588,l),
(317,586,ls),
(328,585,o),
(335,585,o),
(346,586,cs),
(365,588,l),
(387,587,ls),
(390,587,o),
(395,592,o),
(389,579,cs),
(379,559,l),
(378,559,ls),
(376,559,o),
(373,554,o),
(366,543,cs),
(364,541,l),
(361,538,l),
(345,518,l),
(345,519,o),
(343,516,o),
(336,507,cs),
(326,493,l),
(308,470,l),
(307,470,ls),
(305,470,o),
(301,466,o),
(295,455,cs),
(289,446,l),
(286,443,l),
(267,422,l),
(267,423,o),
(266,420,o),
(259,410,cs),
(251,398,l),
(235,378,ls),
(222,363,o),
(219,351,o),
(227,350,cs),
(238,348,o),
(241,348,o),
(242,348,cs),
(261,350,l),
(290,350,l),
(304,348,l),
(304,346,o),
(312,347,o),
(324,350,c),
(352,349,l),
(352,348,ls),
(352,347,o),
(360,344,o),
(375,344,cs),
(379,344,l),
(399,340,l),
(427,329,l),
(427,328,ls),
(427,326,o),
(432,323,o),
(444,318,c),
(454,310,l),
(474,287,l),
(472,287,o),
(475,281,o),
(481,274,c),
(481,273,ls),
(481,271,o),
(483,267,o),
(487,257,c),
(493,227,l),
(494,207,l),
(492,181,l),
(490,181,o),
(489,179,o),
(490,173,c),
(486,155,l),
(475,128,l),
(473,128,o),
(473,127,o),
(474,126,c),
(456,104,l),
(454,104,o),
(453,103,o),
(454,102,c),
(431,86,ls),
(432,86,o),
(430,86,o),
(427,83,c),
(400,72,l),
(400,73,o),
(398,72,o),
(393,70,c),
(365,66,l),
(365,67,l),
(365,67,o),
(361,66,o),
(352,65,cs),
(338,64,l),
(324,65,l),
(309,67,l),
(281,74,l),
(282,75,o),
(280,75,o),
(275,76,c),
(250,92,l),
(251,92,o),
(250,92,o),
(249,93,cs),
(232,117,l),
(233,118,o),
(232,119,o),
(231,120,c),
(221,147,l),
(222,147,o),
(221,148,o),
(220,151,cs),
(217,162,o),
(217,166,o),
(202,164,cs),
(193,163,l),
(193,163,o),
(189,162,o),
(180,159,cs),
(168,155,l),
(167,155,ls),
(165,155,o),
(162,157,o),
(152,152,cs),
(148,150,l),
(145,149,l),
(145,146,l),
(147,142,ls),
(150,135,o),
(147,127,o),
(152,118,cs),
(154,114,l),
(153,113,ls),
(151,111,o),
(154,106,o),
(159,93,cs),
(162,85,l),
(162,83,o),
(165,79,o),
(173,69,cs),
(181,59,l),
(181,58,ls),
(180,57,o),
(182,52,o),
(190,44,cs),
(198,36,o),
(204,31,o),
(214,27,cs),
(231,17,l),
(235,15,ls),
(244,10,o),
(251,7,o),
(261,4,cs),
(284,-3,ls),
(295,-6,o),
(302,-8,o),
(313,-8,cs),
(316,-8,l),
(339,-9,l),
(345,-9,ls),
(355,-9,o),
(363,-9,o),
(373,-8,cs),
(401,-2,ls),
(411,0,o),
(419,2,o),
(428,6,cs),
(433,8,l),
(448,14,l),
(449,15,ls),
(457,23,o),
(466,22,o),
(475,29,cs),
(479,31,l),
(480,31,l),
(480,31,o),
(483,34,o),
(491,40,cs),
(494,42,ls),
(503,48,o),
(508,53,o),
(515,62,cs),
(527,78,l),
(546,107,l),
(546,106,ls),
(546,105,o),
(555,128,o),
(559,138,c),
(563,156,l),
(566,172,l),
(568,187,l),
(569,207,l),
(569,226,l),
(567,242,l),
(563,260,l),
(559,276,l),
(553,293,l),
(545,308,l),
(546,308,o),
(543,310,o),
(538,319,cs),
(527,335,l),
(525,338,ls),
(520,347,o),
(514,352,o),
(506,360,cs),
(505,361,l),
(493,371,l),
(479,382,l),
(465,391,l),
(448,400,l),
(446,402,ls),
(437,408,o),
(428,409,o),
(419,411,cs),
(415,412,l),
(378,421,l),
(359,423,l),
(355,423,l),
(356,424,l),
(375,447,l),
(376,447,o),
(378,450,o),
(385,459,cs),
(393,470,l),
(394,470,o),
(396,473,o),
(403,481,cs),
(413,494,l),
(414,495,l),
(431,518,l),
(451,542,l),
(468,565,l),
(469,565,l),
(469,565,o),
(472,567,o),
(479,576,cs),
(487,586,l),
(496,599,l),
(506,613,l),
(506,612,o),
(517,624,o),
(526,637,c),
(527,637,o),
(527,640,o),
(535,648,cs),
(536,649,ls),
(542,655,o),
(528,660,o),
(529,660,cs),
(514,661,l),
(482,660,l),
(418,660,l),
(419,661,o),
(415,661,o),
(406,661,cs),
(388,661,l),
(388,662,l),
(373,661,l),
(355,660,l),
(324,661,l),
(324,662,l),
(310,661,l),
(292,660,l),
(293,661,o),
(289,661,o),
(279,661,cs),
(261,661,l),
(262,662,o),
(258,662,o),
(248,661,cs),
(229,660,l),
(199,661,l),
(165,660,l),
(103,660,l),
(71,661,l),
(63,661,ls),
(48,661,o),
(39,652,o),
(39,637,cs),
(39,595,l),
(38,595,ls),
(37,595,o),
(36,586,o),
(38,570,cs),
(39,562,l),
(39,528,l),
(38,511,l),
(36,492,l),
(34,490,o),
(34,484,o),
(37,471,cs),
(39,463,l),
(37,441,ls),
(36,430,o),
(36,423,o),
(37,412,cs),
(39,396,l),
(37,389,ls),
(35,382,o),
(36,376,o),
(36,366,cs),
(36,363,l),
(35,362,ls),
(33,360,o),
(35,355,o),
(38,345,c),
(37,316,l),
(35,295,l),
(33,295,o),
(34,285,o),
(37,269,cs),
(38,264,l),
(38,232,l),
(37,231,ls),
(35,229,o),
(36,224,o),
(37,211,cs),
(38,199,l),
(36,191,ls),
(34,184,o),
(35,179,o),
(35,168,cs),
(35,165,l),
(37,146,l),
(37,118,l),
(36,118,ls),
(35,118,o),
(34,111,o),
(35,99,c),
(33,99,o),
(34,92,o),
(37,81,c),
(37,52,l),
(35,33,l),
(35,31,ls),
(35,21,o),
(35,15,o),
(36,9,cs),
(37,3,o),
(45,0,o),
(60,0,cs),
(86,0,ls),
(102,0,o),
(110,5,o),
(110,15,cs)
);
}
);
width = 607;
}
);
unicode = 7838;
},
{
glyphname = T;
kernLeft = T;
kernRight = T;
lastChange = "2025-02-13 13:59:01 +0000";
layers = (
{
anchors = (
{
name = bottom;
pos = (237,0);
},
{
name = center;
pos = (237,331);
},
{
name = top;
pos = (237,660);
}
);
layerId = "7C3BCDA4-8F92-4DF1-91BA-B714BE37B8B5";
shapes = (
{
closed = 1;
nodes = (
(428,648,o),
(419,650,o),
(412,654,c),
(400,654,o),
(389,656,o),
(375,656,cs),
(363,656,o),
(351,654,o),
(337,654,cs),
(323,655,o),
(311,656,o),
(296,656,cs),
(282,656,o),
(269,654,o),
(255,654,cs),
(247,655,o),
(238,657,o),
(230,656,cs),
(219,656,o),
(213,655,o),
(204,654,c),
(188,656,o),
(171,655,o),
(153,654,cs),
(151,654,o),
(151,656,o),
(149,656,cs),
(146,656,o),
(146,654,o),
(143,654,cs),
(129,654,o),
(115,656,o),
(101,656,cs),
(82,656,o),
(66,653,o),
(51,649,cs),
(44,647,o),
(35,645,o),
(29,639,c),
(28,619,o),
(30,593,o),
(40,581,c),
(47,577,o),
(52,580,o),
(60,580,cs),
(67,580,o),
(75,578,o),
(82,578,cs),
(95,578,o),
(110,581,o),
(120,581,cs),
(125,581,o),
(129,580,o),
(133,580,cs),
(151,580,o),
(167,581,o),
(183,580,c),
(190,573,o),
(190,564,o),
(191,554,cs),
(195,523,o),
(191,485,o),
(194,458,c),
(191,447,o),
(189,435,o),
(190,422,cs),
(190,414,o),
(194,406,o),
(195,397,cs),
(196,389,o),
(195,379,o),
(195,370,cs),
(195,362,o),
(197,352,o),
(197,345,cs),
(196,338,o),
(191,333,o),
(194,329,c),
(196,316,o),
(197,296,o),
(194,284,c),
(198,266,o),
(197,249,o),
(198,232,c),
(188,197,o),
(202,157,o),
(195,124,c),
(197,118,o),
(199,113,o),
(200,105,c),
(197,87,o),
(198,63,o),
(198,48,c),
(199,43,o),
(196,38,o),
(197,34,cs),
(198,28,o),
(201,21,o),
(204,16,c),
(220,10,o),
(248,14,o),
(266,16,c),
(279,30,o),
(279,55,o),
(279,80,cs),
(279,115,o),
(274,152,o),
(277,184,c),
(274,195,o),
(269,203,o),
(268,216,cs),
(267,223,o),
(274,222,o),
(272,232,c),
(272,244,o),
(272,256,o),
(276,263,c),
(274,281,o),
(271,300,o),
(271,319,cs),
(271,331,o),
(273,341,o),
(269,352,c),
(271,382,o),
(274,414,o),
(271,439,c),
(274,449,o),
(276,460,o),
(276,471,c),
(275,485,o),
(269,500,o),
(268,513,c),
(273,522,o),
(269,540,o),
(274,549,c),
(274,564,o),
(276,576,o),
(285,581,c),
(308,583,o),
(346,578,o),
(370,584,c),
(390,582,o),
(420,576,o),
(433,589,c),
(439,599,o),
(435,619,o),
(436,635,c),
(433,641,l)
);
}
);
width = 465;
}
);
unicode = 84;
},
{
glyphname = U;
kernLeft = U;
kernRight = U;
lastChange = "2025-02-13 13:38:11 +0000";
layers = (
{
anchors = (
{
name = bottom;
pos = (319,0);
},
{
name = ogonek;
pos = (339,10);
},
{
name = top;
pos = (314,660);
},
{
name = top_alt;
pos = (318,660);
},
{
name = topright;
pos = (548,648);
}
);
layerId = "7C3BCDA4-8F92-4DF1-91BA-B714BE37B8B5";
shapes = (
{
closed = 1;
nodes = (
(357,3,o),
(379,5,o),
(397,11,cs),
(414,18,o),
(428,29,o),
(447,33,c),
(466,48,o),
(485,65,o),
(505,80,c),
(507,86,o),
(513,90,o),
(515,98,c),
(520,104,o),
(524,107,o),
(526,116,c),
(535,127,o),
(535,145,o),
(543,155,c),
(555,184,o),
(555,219,o),
(558,252,c),
(555,258,o),
(558,273,o),
(555,279,c),
(561,291,o),
(555,308,o),
(558,320,c),
(558,322,o),
(556,322,o),
(557,325,c),
(554,338,o),
(555,359,o),
(557,372,c),
(552,387,o),
(555,408,o),
(552,424,c),
(553,434,o),
(553,439,o),
(555,450,c),
(555,480,o),
(551,518,o),
(557,548,c),
(555,558,o),
(549,566,o),
(548,578,c),
(555,598,o),
(558,627,o),
(548,648,c),
(532,659,o),
(493,658,o),
(475,648,c),
(467,632,o),
(472,610,o),
(471,590,cs),
(467,532,l),
(469,525,o),
(469,518,o),
(471,513,c),
(468,490,o),
(470,466,o),
(471,447,cs),
(472,408,o),
(470,366,o),
(471,325,cs),
(471,314,o),
(472,303,o),
(472,292,cs),
(472,282,o),
(469,273,o),
(469,263,cs),
(469,256,o),
(471,248,o),
(471,240,cs),
(470,224,o),
(465,211,o),
(466,196,c),
(462,191,o),
(460,184,o),
(459,178,c),
(455,168,o),
(446,164,o),
(442,154,c),
(441,141,o),
(429,139,o),
(426,128,c),
(419,124,o),
(410,120,o),
(406,113,c),
(394,108,o),
(388,102,o),
(376,98,cs),
(364,93,o),
(350,90,o),
(336,86,c),
(310,83,o),
(292,86,o),
(268,88,c),
(255,94,o),
(242,100,o),
(227,103,c),
(212,114,o),
(197,124,o),
(185,138,cs),
(171,156,o),
(162,181,o),
(153,203,c),
(153,218,o),
(153,231,o),
(152,245,cs),
(151,257,o),
(146,269,o),
(144,281,c),
(155,310,o),
(146,352,o),
(143,384,c),
(150,395,o),
(149,407,o),
(149,419,c),
(148,424,o),
(150,428,o),
(150,433,cs),
(150,443,o),
(148,453,o),
(149,464,cs),
(149,477,o),
(151,492,o),
(150,506,cs),
(149,521,o),
(146,535,o),
(146,549,cs),
(146,568,o),
(148,590,o),
(149,607,cs),
(149,618,o),
(150,628,o),
(149,637,c),
(146,644,o),
(142,650,o),
(136,656,c),
(117,656,o),
(85,658,o),
(72,649,c),
(69,648,o),
(69,643,o),
(67,641,c),
(66,637,o),
(61,637,o),
(62,632,c),
(60,623,o),
(66,616,o),
(67,606,cs),
(67,601,o),
(65,598,o),
(65,592,cs),
(65,587,o),
(66,581,o),
(67,576,c),
(67,576,o),
(65,572,o),
(65,570,cs),
(66,542,o),
(63,515,o),
(65,488,cs),
(66,469,o),
(63,450,o),
(67,433,c),
(60,400,o),
(71,362,o),
(62,329,c),
(67,299,o),
(68,270,o),
(65,240,c),
(66,235,o),
(70,232,o),
(70,223,cs),
(67,195,o),
(77,166,o),
(82,139,c),
(91,127,o),
(100,112,o),
(108,98,cs),
(118,84,o),
(129,74,o),
(141,62,c),
(152,56,o),
(160,48,o),
(169,41,c),
(181,36,o),
(191,29,o),
(201,22,c),
(217,19,o),
(226,11,o),
(243,10,c),
(257,5,o),
(274,3,o),
(288,-2,c),
(339,-2,l)
);
}
);
width = 619;
}
);
unicode = 85;
},
{
glyphname = V;
kernLeft = V;
kernRight = V;
lastChange = "2025-02-13 13:59:15 +0000";
layers = (
{
anchors = (
{
name = bottom;
pos = (305,0);
},
{
name = top;
pos = (305,660);
}
);
layerId = "7C3BCDA4-8F92-4DF1-91BA-B714BE37B8B5";
shapes = (
{
closed = 1;
nodes = (
(596,660,o),
(587,658,o),
(579,658,cs),
(560,658,o),
(540,661,o),
(519,658,c),
(507,653,o),
(506,638,o),
(502,626,cs),
(497,615,o),
(490,602,o),
(487,590,c),
(481,580,o),
(477,566,o),
(471,555,c),
(471,547,o),
(468,542,o),
(463,538,c),
(463,530,o),
(459,524,o),
(459,518,c),
(446,493,l),
(445,482,o),
(438,476,o),
(435,466,c),
(433,463,o),
(433,455,o),
(432,450,c),
(426,446,o),
(424,437,o),
(419,432,c),
(419,424,o),
(413,417,o),
(412,413,cs),
(409,404,o),
(408,400,o),
(405,393,cs),
(403,389,o),
(402,384,o),
(400,380,cs),
(396,371,o),
(390,364,o),
(388,355,cs),
(387,353,o),
(387,351,o),
(386,350,c),
(384,341,o),
(380,336,o),
(376,331,c),
(375,312,o),
(366,302,o),
(360,289,c),
(357,273,o),
(346,264,o),
(343,249,c),
(340,241,o),
(338,234,o),
(338,223,c),
(333,219,o),
(333,212,o),
(330,204,c),
(325,200,o),
(327,190,o),
(319,188,c),
(311,190,o),
(310,200,o),
(308,206,cs),
(305,214,o),
(302,220,o),
(302,229,c),
(288,253,o),
(283,285,o),
(267,306,c),
(265,321,o),
(257,333,o),
(253,345,c),
(235,381,l),
(228,391,o),
(226,408,o),
(219,417,c),
(216,431,o),
(205,439,o),
(204,457,c),
(199,463,o),
(193,470,o),
(192,481,c),
(186,487,o),
(184,498,o),
(179,504,c),
(173,523,o),
(164,539,o),
(157,557,c),
(151,564,o),
(149,573,o),
(146,582,c),
(141,589,o),
(136,597,o),
(135,608,c),
(126,618,o),
(125,636,o),
(116,644,c),
(114,649,o),
(114,655,o),
(107,656,cs),
(101,657,o),
(89,657,o),
(83,660,c),
(66,655,o),
(35,664,o),
(25,648,c),
(20,627,o),
(37,618,o),
(39,600,c),
(47,585,o),
(54,571,o),
(61,557,c),
(63,550,o),
(67,544,o),
(67,538,c),
(75,523,o),
(84,507,o),
(88,488,c),
(91,485,o),
(93,479,o),
(96,474,c),
(96,474,o),
(98,473,o),
(99,473,c),
(100,470,o),
(99,467,o),
(100,466,cs),
(104,457,o),
(109,449,o),
(109,438,c),
(120,424,o),
(125,404,o),
(133,387,c),
(143,372,o),
(147,352,o),
(157,336,c),
(159,326,o),
(165,320,o),
(168,312,cs),
(181,282,l),
(181,280,o),
(182,279,o),
(182,278,c),
(189,263,o),
(200,250,o),
(201,232,c),
(207,224,o),
(212,216,o),
(218,207,c),
(219,195,o),
(223,184,o),
(231,177,c),
(232,163,o),
(238,155,o),
(241,143,c),
(255,124,o),
(260,97,o),
(272,74,c),
(277,69,o),
(277,58,o),
(283,52,c),
(284,43,o),
(288,35,o),
(289,26,c),
(299,13,o),
(300,-7,o),
(324,-5,c),
(335,0,o),
(336,14,o),
(341,26,c),
(349,34,o),
(350,48,o),
(358,55,c),
(357,66,o),
(361,69,o),
(361,78,c),
(370,90,o),
(375,105,o),
(383,121,c),
(388,142,o),
(400,155,o),
(403,178,c),
(407,183,o),
(411,188,o),
(413,196,c),
(417,201,o),
(420,207,o),
(421,216,c),
(434,233,o),
(437,258,o),
(451,276,c),
(456,304,o),
(471,322,o),
(476,351,c),
(484,360,o),
(488,372,o),
(493,386,cs),
(496,391,o),
(497,399,o),
(501,405,c),
(503,410,o),
(507,416,o),
(509,422,cs),
(514,434,o),
(518,448,o),
(525,458,c),
(529,471,o),
(534,485,o),
(540,497,cs),
(544,508,o),
(549,523,o),
(554,535,cs),
(560,547,o),
(566,558,o),
(570,571,c),
(577,582,o),
(581,594,o),
(586,607,cs),
(592,619,o),
(601,630,o),
(600,649,c),
(597,654,l)
);
}
);
width = 624;
}
);
unicode = 86;
},
{
glyphname = W;
kernLeft = V;
kernRight = V;
lastChange = "2025-02-13 13:57:12 +0000";
layers = (
{
anchors = (
{
name = bottom;
pos = (486,0);
},
{
name = top;
pos = (486,660);
}
);
layerId = "7C3BCDA4-8F92-4DF1-91BA-B714BE37B8B5";
shapes = (
{
closed = 1;
nodes = (
(554,298,o),
(560,276,o),
(568,258,cs),
(572,249,o),
(574,237,o),
(581,230,c),
(582,218,o),
(587,209,o),
(588,197,c),
(597,186,o),
(600,172,o),
(606,161,cs),
(612,146,o),
(618,136,o),
(618,117,c),
(624,111,o),
(637,78,o),
(639,68,cs),
(641,58,o),
(649,54,o),
(648,41,c),
(652,36,o),
(656,31,o),
(658,26,cs),
(664,14,o),
(663,-2,o),
(678,-3,cs),
(688,-4,o),
(693,1,o),
(695,10,cs),
(697,17,o),
(702,23,o),
(703,31,c),
(708,43,o),
(713,53,o),
(717,62,cs),
(719,65,o),
(723,67,o),
(723,71,cs),
(724,81,o),
(728,89,o),
(729,98,c),
(734,108,o),
(739,120,o),
(746,130,c),
(747,138,o),
(751,141,o),
(751,149,c),
(761,163,o),
(767,181,o),
(771,200,c),
(775,203,o),
(776,212,o),
(781,216,c),
(786,245,o),
(803,262,o),
(808,292,c),
(817,304,o),
(824,316,o),
(827,334,c),
(830,340,o),
(834,345,o),
(836,351,cs),
(840,364,o),
(844,375,o),
(851,386,c),
(855,397,o),
(859,409,o),
(866,419,c),
(870,442,o),
(884,456,o),
(887,481,c),
(894,493,o),
(903,503,o),
(904,521,c),
(908,525,o),
(912,531,o),
(916,535,c),
(915,542,o),
(917,546,o),
(919,549,cs),
(922,552,ls),
(923,555,o),
(922,559,o),
(923,561,cs),
(924,565,o),
(929,566,o),
(929,570,c),
(934,580,o),
(937,594,o),
(944,603,c),
(944,618,o),
(953,623,o),
(956,637,c),
(956,653,l),
(953,656,o),
(950,659,o),
(948,664,c),
(934,667,o),
(919,665,o),
(906,661,c),
(894,665,o),
(876,664,o),
(866,660,c),
(857,653,o),
(856,636,o),
(851,623,c),
(844,612,o),
(842,599,o),
(835,587,c),
(831,573,o),
(825,561,o),
(821,549,cs),
(816,536,o),
(813,521,o),
(805,510,c),
(804,504,o),
(802,500,o),
(802,493,c),
(796,485,o),
(792,474,o),
(786,468,c),
(786,453,o),
(776,447,o),
(772,436,cs),
(770,424,o),
(764,416,o),
(761,405,c),
(751,381,ls),
(748,372,o),
(746,365,o),
(739,358,c),
(736,345,o),
(730,331,o),
(723,317,c),
(718,303,o),
(714,290,o),
(706,278,c),
(697,242,l),
(690,234,o),
(696,214,o),
(681,213,c),
(668,217,o),
(672,238,o),
(662,246,c),
(660,262,o),
(651,271,o),
(649,287,c),
(646,293,o),
(640,296,o),
(639,303,cs),
(637,312,o),
(634,318,o),
(634,329,c),
(625,338,o),
(623,352,o),
(616,362,c),
(608,385,o),
(598,406,o),
(588,428,cs),
(584,440,o),
(581,452,o),
(577,464,cs),
(571,474,o),
(565,485,o),
(562,497,c),
(545,542,o),
(526,587,o),
(507,632,c),
(504,647,o),
(504,666,o),
(487,667,c),
(477,664,o),
(478,650,o),
(474,639,c),
(468,633,o),
(467,618,o),
(462,611,c),
(461,600,o),
(455,590,o),
(452,581,cs),
(448,571,o),
(447,560,o),
(441,551,c),
(433,532,o),
(428,509,o),
(419,491,cs),
(410,472,o),
(407,449,o),
(395,433,c),
(394,419,o),
(388,410,o),
(386,398,c),
(379,389,o),
(375,376,o),
(368,367,c),
(369,354,o),
(362,350,o),
(362,338,c),
(353,329,o),
(351,313,o),
(345,300,c),
(344,282,o),
(333,273,o),
(329,258,cs),
(320,229,ls),
(316,219,o),
(318,204,o),
(306,204,cs),
(298,204,o),
(297,211,o),
(295,216,c),
(292,219,o),
(292,228,o),
(289,233,c),
(286,246,o),
(280,256,o),
(277,268,c),
(269,290,o),
(260,313,o),
(249,332,c),
(243,355,o),
(232,374,o),
(221,395,c),
(222,403,o),
(219,406,o),
(219,413,c),
(213,422,o),
(207,432,o),
(204,447,c),
(197,454,o),
(195,468,o),
(187,477,c),
(180,503,o),
(168,524,o),
(158,546,c),
(150,569,o),
(141,587,o),
(130,606,c),
(129,617,o),
(124,624,o),
(119,634,cs),
(115,642,o),
(114,652,o),
(106,658,c),
(105,658,o),
(103,658,o),
(103,660,c),
(87,662,o),
(73,664,o),
(59,660,c),
(47,662,o),
(36,664,o),
(27,658,c),
(21,652,o),
(25,637,o),
(24,625,c),
(32,611,o),
(38,594,o),
(46,580,cs),
(53,563,o),
(61,547,o),
(65,529,c),
(70,518,o),
(78,508,o),
(81,496,c),
(86,485,o),
(93,473,o),
(95,458,c),
(111,437,o),
(119,408,o),
(133,384,c),
(139,362,o),
(150,343,o),
(161,323,cs),
(162,320,o),
(161,313,o),
(163,309,c),
(165,302,o),
(170,299,o),
(172,292,cs),
(181,266,o),
(193,242,o),
(204,220,c),
(205,214,o),
(209,211,o),
(210,203,c),
(222,184,o),
(232,162,o),
(238,135,c),
(244,129,o),
(247,120,o),
(252,113,c),
(260,90,o),
(270,70,o),
(277,49,c),
(283,40,o),
(285,28,o),
(293,19,c),
(295,7,o),
(299,-3,o),
(314,-3,c),
(327,0,o),
(328,16,o),
(332,29,c),
(339,39,o),
(340,57,o),
(348,69,c),
(349,78,o),
(352,84,o),
(355,90,c),
(355,100,o),
(360,105,o),
(364,111,c),
(368,126,o),
(371,141,o),
(379,152,c),
(381,170,o),
(389,182,o),
(395,196,c),
(400,225,o),
(415,246,o),
(422,274,c),
(431,283,o),
(433,300,o),
(439,312,cs),
(444,325,o),
(448,338,o),
(455,350,c),
(457,368,o),
(465,383,o),
(471,397,c),
(471,409,o),
(476,418,o),
(478,428,c),
(484,436,o),
(482,451,o),
(488,457,c),
(501,454,o),
(503,441,o),
(503,427,c),
(511,416,o),
(514,401,o),
(516,384,c),
(526,368,o),
(529,346,o),
(540,331,c),
(543,314,l)
);
}
);
width = 979;
}
);
unicode = 87;
},
{
glyphname = Wdieresis;
kernLeft = V;
kernRight = V;
lastChange = "2025-02-13 12:00:19 +0000";
layers = (
{
layerId = "7C3BCDA4-8F92-4DF1-91BA-B714BE37B8B5";
shapes = (
{
ref = W;
},
{
closed = 1;
nodes = (
(579,585,o),
(596,571,o),
(601,568,cs),
(607,564,o),
(621,558,o),
(629,558,c),
(653,563,o),
(673,571,o),
(683,590,c),
(683,610,o),
(679,637,o),
(673,647,cs),
(668,655,o),
(663,659,o),
(656,665,cs),
(650,669,o),
(644,673,o),
(637,674,c),
(625,672,o),
(616,669,o),
(603,668,c),
(584,656,o),
(572,639,o),
(568,614,c),
(570,610,o),
(570,604,o),
(571,601,cs)
);
},
{
closed = 1;
nodes = (
(396,655,o),
(373,672,o),
(333,671,c),
(320,666,o),
(311,658,o),
(302,651,c),
(299,644,o),
(298,638,o),
(295,633,cs),
(291,619,o),
(287,609,o),
(291,591,c),
(298,584,o),
(302,575,o),
(308,568,c),
(320,566,o),
(326,560,o),
(337,558,c),
(345,559,o),
(354,561,o),
(362,558,c),
(369,564,o),
(377,567,o),
(385,571,c),
(388,578,o),
(394,581,o),
(397,590,cs),
(400,598,o),
(399,606,o),
(401,616,cs),
(401,617,o),
(400,618,o),
(399,617,c)
);
}
);
width = 979;
}
);
unicode = 7812;
},
{
glyphname = X;
kernLeft = X;
kernRight = X;
lastChange = "2025-02-13 12:00:19 +0000";
layers = (
{
anchors = (
{
name = bottom;
pos = (281,0);
},
{
name = top;
pos = (281,660);
}
);
layerId = "7C3BCDA4-8F92-4DF1-91BA-B714BE37B8B5";
shapes = (
{
closed = 1;
nodes = (
(416,479,o),
(426,497,o),
(439,513,c),
(446,536,o),
(462,551,o),
(473,570,c),
(484,583,o),
(489,599,o),
(501,611,c),
(504,617,o),
(505,621,o),
(510,625,c),
(511,638,o),
(522,648,o),
(514,660,c),
(505,671,o),
(486,662,o),
(470,664,c),
(451,664,o),
(430,671,o),
(417,661,c),
(402,632,o),
(387,600,o),
(364,578,c),
(362,568,o),
(355,564,o),
(354,554,c),
(347,546,o),
(340,536,o),
(335,525,cs),
(330,515,o),
(323,505,o),
(318,496,c),
(310,487,o),
(304,477,o),
(299,466,c),
(295,461,o),
(292,458,o),
(290,452,c),
(286,447,o),
(285,440,o),
(276,439,c),
(265,442,o),
(261,454,o),
(257,466,c),
(244,479,o),
(236,496,o),
(225,513,c),
(213,527,o),
(207,548,o),
(194,561,c),
(187,581,o),
(172,594,o),
(164,612,c),
(152,627,o),
(145,649,o),
(132,661,c),
(111,666,o),
(89,659,o),
(66,661,cs),
(55,661,o),
(42,664,o),
(40,656,c),
(33,640,o),
(48,633,o),
(53,623,cs),
(58,612,o),
(65,600,o),
(72,590,c),
(77,578,o),
(86,570,o),
(94,560,cs),
(105,544,o),
(112,529,o),
(123,514,c),
(124,510,o),
(124,508,o),
(124,503,c),
(133,498,o),
(136,487,o),
(143,481,c),
(148,460,o),
(165,453,o),
(170,433,c),
(185,421,o),
(192,402,o),
(203,386,cs),
(207,381,o),
(209,374,o),
(213,370,c),
(219,367,o),
(222,362,o),
(222,353,cs),
(223,341,o),
(215,338,o),
(215,326,c),
(199,310,o),
(191,284,o),
(173,268,c),
(172,259,o),
(168,254,o),
(166,246,c),
(159,239,o),
(154,232,o),
(146,225,c),
(144,216,o),
(138,213,o),
(137,201,c),
(119,182,o),
(108,154,o),
(90,135,c),
(91,128,o),
(87,127,o),
(87,121,c),
(73,102,o),
(61,83,o),
(49,62,c),
(40,51,o),
(27,47,o),
(24,30,c),
(28,10,o),
(48,5,o),
(66,0,c),
(83,5,o),
(100,1,o),
(118,3,c),
(131,13,o),
(141,27,o),
(146,45,c),
(157,53,o),
(162,66,o),
(169,78,cs),
(178,94,l),
(184,105,ls),
(188,113,o),
(193,120,o),
(194,128,c),
(206,144,o),
(217,162,o),
(229,178,c),
(232,188,o),
(240,194,o),
(244,203,c),
(252,211,o),
(255,222,o),
(260,230,c),
(262,237,o),
(263,244,o),
(267,249,c),
(272,253,o),
(272,263,o),
(279,263,c),
(294,245,o),
(309,223,o),
(316,200,c),
(334,178,o),
(346,150,o),
(364,128,c),
(366,123,o),
(369,118,o),
(371,113,c),
(381,100,o),
(390,85,o),
(397,68,c),
(402,63,o),
(409,57,o),
(411,50,cs),
(416,39,o),
(421,30,o),
(426,20,c),
(433,15,o),
(438,8,o),
(447,4,c),
(484,4,l),
(487,5,o),
(491,0,o),
(494,4,c),
(512,5,o),
(534,2,o),
(536,19,cs),
(536,22,o),
(534,22,o),
(534,26,c),
(528,44,o),
(513,53,o),
(508,72,c),
(502,77,o),
(501,85,o),
(495,90,c),
(493,98,o),
(486,101,o),
(484,107,cs),
(480,116,o),
(472,124,o),
(469,130,c),
(458,148,o),
(445,162,o),
(439,184,c),
(421,200,o),
(409,224,o),
(394,245,cs),
(388,255,o),
(381,267,o),
(375,278,c),
(374,279,o),
(372,279,o),
(371,281,cs),
(369,287,o),
(366,295,o),
(362,298,cs),
(359,302,o),
(353,303,o),
(353,309,c),
(346,323,o),
(338,335,o),
(333,350,c),
(337,364,o),
(348,373,o),
(354,384,cs),
(357,388,o),
(358,392,o),
(362,397,c),
(371,414,o),
(385,426,o),
(390,447,c),
(406,460,l)
);
}
);
width = 560;
}
);
unicode = 88;
},
{
glyphname = Y;
kernLeft = Y;
kernRight = Y;
lastChange = "2025-02-13 13:59:27 +0000";
layers = (
{
anchors = (
{
name = bottom;
pos = (287,0);
},
{
name = top;
pos = (287,660);
},
{
name = topleft;
pos = (14,660);
}
);
layerId = "7C3BCDA4-8F92-4DF1-91BA-B714BE37B8B5";
shapes = (
{
closed = 1;
nodes = (
(418,429,o),
(432,450,o),
(441,473,c),
(450,481,o),
(455,493,o),
(463,504,c),
(471,514,o),
(478,525,o),
(483,538,c),
(497,552,o),
(505,570,o),
(515,589,cs),
(520,598,o),
(524,607,o),
(531,615,c),
(535,632,o),
(550,638,o),
(548,661,cs),
(547,667,o),
(542,669,o),
(540,673,c),
(526,674,o),
(514,673,o),
(502,672,c),
(485,675,o),
(464,674,o),
(448,670,c),
(443,658,o),
(432,652,o),
(432,635,c),
(425,626,o),
(418,617,o),
(413,604,c),
(404,598,o),
(399,585,o),
(396,571,c),
(388,561,o),
(377,538,o),
(377,538,c),
(377,538,o),
(345,497,o),
(342,480,c),
(332,470,o),
(330,452,o),
(317,444,c),
(314,430,l),
(304,424,o),
(302,409,o),
(286,409,c),
(278,410,o),
(278,419,o),
(276,425,c),
(265,428,o),
(261,437,o),
(257,447,c),
(250,447,o),
(251,454,o),
(248,457,c),
(246,461,o),
(241,464,o),
(238,468,c),
(239,474,o),
(237,479,o),
(235,483,c),
(229,490,o),
(220,497,o),
(216,506,c),
(214,516,o),
(208,521,o),
(207,532,c),
(200,534,o),
(200,541,o),
(196,542,c),
(189,559,o),
(179,572,o),
(170,585,c),
(167,588,o),
(169,597,o),
(167,599,cs),
(159,607,o),
(151,618,o),
(144,631,c),
(143,637,o),
(139,641,o),
(135,648,c),
(128,651,o),
(129,660,o),
(123,664,c),
(107,670,o),
(81,666,o),
(64,672,c),
(51,667,o),
(31,670,o),
(25,660,c),
(22,653,o),
(25,648,o),
(25,637,c),
(29,627,o),
(39,621,o),
(44,611,c),
(49,590,o),
(66,578,o),
(78,563,c),
(86,549,o),
(94,533,o),
(100,516,c),
(106,509,o),
(112,504,o),
(116,497,c),
(127,469,o),
(146,450,o),
(158,424,c),
(174,406,l),
(174,401,o),
(176,397,o),
(177,391,c),
(190,379,o),
(198,360,o),
(210,346,c),
(216,331,l),
(222,323,o),
(227,316,o),
(231,308,cs),
(235,300,o),
(242,295,o),
(245,285,c),
(245,251,o),
(244,215,o),
(238,181,c),
(239,165,o),
(246,149,o),
(246,133,cs),
(246,127,o),
(244,121,o),
(243,114,cs),
(241,100,o),
(243,86,o),
(243,74,cs),
(243,54,o),
(235,35,o),
(240,16,c),
(243,15,o),
(243,11,o),
(245,10,cs),
(250,4,o),
(260,4,o),
(268,3,cs),
(294,-1,o),
(318,0,o),
(335,11,c),
(340,17,o),
(340,24,o),
(340,33,cs),
(340,41,o),
(336,51,o),
(336,58,c),
(346,82,o),
(337,110,o),
(332,132,c),
(334,143,o),
(336,162,o),
(333,174,c),
(336,182,o),
(332,252,o),
(333,284,c),
(338,296,o),
(346,307,o),
(350,320,cs),
(352,326,o),
(364,340,o),
(366,342,c),
(367,346,o),
(374,356,o),
(375,360,cs),
(376,364,o),
(378,367,o),
(380,370,cs),
(383,376,o),
(384,384,o),
(388,390,cs),
(390,395,o),
(394,398,o),
(397,402,cs),
(403,410,ls)
);
}
);
width = 572;
}
);
unicode = 89;
},
{
glyphname = Z;
kernLeft = Z;
kernRight = Z;
lastChange = "2025-02-13 12:00:19 +0000";
layers = (
{
anchors = (
{
name = bottom;
pos = (268,0);
},
{
name = center;
pos = (268,331);
},
{
name = top;
pos = (268,660);
}
);
layerId = "7C3BCDA4-8F92-4DF1-91BA-B714BE37B8B5";
shapes = (
{
closed = 1;
nodes = (
(231,6,o),
(247,7,o),
(259,8,cs),
(269,8,o),
(277,6,o),
(287,6,cs),
(311,6,o),
(339,10,o),
(358,4,c),
(365,6,o),
(372,10,o),
(380,10,cs),
(388,10,o),
(394,8,o),
(401,8,cs),
(415,8,o),
(430,11,o),
(446,11,cs),
(465,11,o),
(486,5,o),
(498,17,c),
(504,21,o),
(500,33,o),
(502,39,c),
(498,48,o),
(505,64,o),
(499,69,c),
(502,77,o),
(498,82,o),
(496,90,c),
(490,95,o),
(467,89,o),
(457,90,c),
(447,94,o),
(417,87,o),
(409,88,cs),
(399,89,o),
(394,86,o),
(387,86,c),
(373,93,o),
(327,88,o),
(319,86,c),
(311,86,o),
(303,89,o),
(295,90,cs),
(292,90,o),
(289,88,o),
(286,88,cs),
(281,88,o),
(277,90,o),
(275,90,cs),
(258,90,o),
(243,89,o),
(229,86,c),
(224,88,o),
(179,89,o),
(168,90,c),
(162,118,o),
(186,128,o),
(195,146,c),
(201,154,o),
(204,164,o),
(212,171,c),
(214,183,o),
(257,250,o),
(261,258,cs),
(265,267,o),
(270,277,o),
(277,282,c),
(278,291,o),
(283,295,o),
(286,303,c),
(291,309,o),
(307,333,o),
(308,339,c),
(314,347,o),
(326,371,o),
(328,372,cs),
(338,382,o),
(343,396,o),
(352,405,c),
(354,408,o),
(353,414,o),
(355,417,c),
(362,422,o),
(365,432,o),
(371,438,c),
(374,461,o),
(391,471,o),
(396,493,c),
(400,497,o),
(403,503,o),
(408,504,c),
(410,523,o),
(425,530,o),
(428,548,c),
(434,554,o),
(439,563,o),
(446,570,c),
(447,577,o),
(450,583,o),
(454,590,cs),
(460,598,o),
(466,603,o),
(471,611,c),
(473,620,o),
(482,627,o),
(485,637,c),
(486,638,o),
(487,642,o),
(487,642,c),
(489,651,o),
(488,655,o),
(485,661,c),
(475,671,o),
(445,666,o),
(445,666,c),
(445,666,o),
(414,666,o),
(403,665,cs),
(395,665,o),
(388,667,o),
(380,667,cs),
(352,667,o),
(327,665,o),
(299,667,cs),
(293,667,o),
(290,664,o),
(283,664,c),
(259,670,o),
(235,667,o),
(209,667,cs),
(202,667,o),
(196,668,o),
(190,668,cs),
(181,668,o),
(173,665,o),
(162,665,cs),
(146,665,o),
(129,668,o),
(113,668,cs),
(105,668,o),
(97,667,o),
(88,667,cs),
(79,667,o),
(67,672,o),
(58,665,c),
(51,654,o),
(59,637,o),
(57,620,c),
(55,614,o),
(56,592,o),
(58,589,c),
(75,580,o),
(96,585,o),
(115,585,cs),
(128,586,o),
(142,586,o),
(155,585,cs),
(193,584,o),
(230,585,o),
(268,584,c),
(279,589,o),
(294,586,o),
(306,585,cs),
(316,585,o),
(331,590,o),
(336,581,c),
(329,559,o),
(321,538,o),
(306,523,c),
(299,507,o),
(289,497,o),
(283,480,c),
(266,464,o),
(261,435,o),
(244,420,c),
(241,406,o),
(232,398,o),
(229,384,c),
(214,368,o),
(206,345,o),
(192,326,cs),
(180,306,o),
(171,284,o),
(155,268,c),
(154,257,o),
(148,252,o),
(143,246,c),
(139,228,o),
(126,217,o),
(121,201,c),
(119,192,o),
(110,188,o),
(107,181,cs),
(104,169,o),
(94,162,o),
(88,151,cs),
(82,140,o),
(79,127,o),
(71,117,cs),
(63,103,o),
(54,88,o),
(42,78,c),
(42,65,o),
(30,62,o),
(30,48,c),
(26,39,o),
(20,31,o),
(19,19,c),
(23,8,o),
(33,5,o),
(44,1,c),
(57,5,o),
(67,2,o),
(80,6,c),
(124,8,o),
(156,5,o),
(201,6,c),
(218,10,l)
);
}
);
width = 549;
}
);
unicode = 90;
},
{
glyphname = Saltillo;
lastChange = "2025-02-13 12:00:19 +0000";
layers = (
{
layerId = "7C3BCDA4-8F92-4DF1-91BA-B714BE37B8B5";
shapes = (
{
closed = 1;
nodes = (
(238,688,o),
(247,692,o),
(253,695,cs),
(255,696,l),
(275,695,l),
(317,695,ls),
(323,695,o),
(332,688,o),
(332,682,cs),
(332,662,l),
(330,636,l),
(330,615,l),
(329,603,ls),
(328,593,o),
(329,586,o),
(328,575,cs),
(329,570,l),
(327,557,ls),
(326,547,o),
(325,540,o),
(326,530,cs),
(326,522,l),
(323,497,l),
(324,477,l),
(323,469,o),
(327,458,o),
(321,452,cs),
(316,447,o),
(313,441,o),
(306,438,cs),
(301,436,l),
(292,436,l),
(285,438,o),
(288,434,o),
(277,437,c),
(268,439,ls),
(262,440,o),
(255,446,o),
(252,452,cs),
(248,461,o),
(251,472,o),
(250,482,cs),
(249,494,o),
(249,501,o),
(244,512,cs),
(243,515,l),
(245,530,ls),
(247,540,o),
(246,548,o),
(244,558,c),
(245,574,ls),
(244,586,o),
(243,593,o),
(238,603,c),
(240,621,ls),
(241,632,o),
(241,640,o),
(240,650,cs),
(238,682,ls)
);
}
);
width = 600;
}
);
unicode = 42891;
},
{
glyphname = a;
kernLeft = a;
kernRight = n;
lastChange = "2025-02-13 13:57:31 +0000";
layers = (
{
anchors = (
{
name = bottom;
pos = (252,0);
},
{
name = ogonek;
pos = (405,10);
},
{
name = top;
pos = (252,432);
}
);
layerId = "7C3BCDA4-8F92-4DF1-91BA-B714BE37B8B5";
shapes = (
{
closed = 1;
nodes = (
(459,264,o),
(463,295,o),
(457,319,c),
(464,352,o),
(466,398,o),
(451,424,c),
(429,428,o),
(397,430,o),
(380,419,c),
(374,405,o),
(384,375,o),
(371,369,c),
(356,373,o),
(351,388,o),
(341,399,c),
(328,407,o),
(313,418,o),
(297,423,cs),
(281,427,l),
(273,431,l),
(256,434,o),
(238,430,o),
(219,431,cs),
(214,431,o),
(208,432,o),
(203,432,cs),
(195,432,o),
(182,427,o),
(177,426,cs),
(165,424,ls),
(153,421,o),
(143,413,o),
(132,412,c),
(121,403,o),
(111,393,o),
(99,386,c),
(94,379,o),
(87,372,o),
(82,366,cs),
(76,357,o),
(71,350,o),
(66,343,c),
(64,333,o),
(61,325,o),
(54,319,c),
(53,308,o),
(48,302,o),
(45,292,cs),
(41,278,o),
(45,257,o),
(37,248,c),
(41,234,o),
(36,218,o),
(33,205,c),
(39,184,o),
(37,154,o),
(41,132,c),
(48,122,o),
(53,113,o),
(54,97,c),
(64,90,o),
(68,81,o),
(71,68,c),
(80,64,o),
(84,56,o),
(87,48,c),
(95,45,o),
(101,40,o),
(104,32,c),
(113,30,o),
(118,24,o),
(124,19,c),
(133,17,o),
(139,12,o),
(145,7,c),
(155,5,o),
(164,2,o),
(173,-1,c),
(198,-1,o),
(220,-7,o),
(244,-6,cs),
(248,-6,o),
(254,-4,o),
(258,-3,cs),
(279,0,o),
(293,2,o),
(310,7,c),
(316,12,o),
(323,16,o),
(333,18,c),
(338,28,o),
(348,31,o),
(354,38,cs),
(363,45,o),
(366,55,o),
(376,57,c),
(384,52,o),
(380,41,o),
(380,30,cs),
(380,18,o),
(380,10,o),
(388,3,c),
(400,5,o),
(405,4,o),
(418,3,c),
(433,11,o),
(450,17,o),
(460,30,c),
(463,52,o),
(458,84,o),
(463,106,c),
(455,124,o),
(463,145,o),
(463,164,cs),
(463,182,o),
(456,200,o),
(460,218,c),
(457,237,l)
);
},
{
closed = 1;
nodes = (
(379,268,o),
(383,256,o),
(383,239,c),
(385,240,o),
(385,239,o),
(385,238,cs),
(386,186,o),
(384,137,o),
(352,118,c),
(349,113,o),
(346,105,o),
(341,101,c),
(334,97,o),
(328,94,o),
(322,87,c),
(316,86,o),
(312,85,o),
(307,82,c),
(301,81,o),
(295,83,o),
(291,80,c),
(283,81,o),
(282,73,o),
(275,73,cs),
(268,72,o),
(264,70,o),
(256,70,cs),
(244,69,o),
(240,77,o),
(229,74,c),
(220,77,o),
(214,81,o),
(202,80,c),
(190,86,o),
(180,93,o),
(170,102,c),
(162,112,o),
(149,117,o),
(140,126,c),
(137,136,o),
(131,143,o),
(132,157,c),
(121,183,l),
(122,194,o),
(120,200,o),
(118,208,c),
(119,222,o),
(123,234,o),
(123,250,c),
(127,258,o),
(130,269,o),
(134,280,cs),
(137,289,o),
(144,296,o),
(146,307,c),
(161,314,o),
(168,325,o),
(180,335,c),
(191,340,o),
(202,348,o),
(217,352,c),
(231,352,o),
(241,356,o),
(257,355,cs),
(273,355,o),
(282,350,o),
(297,350,c),
(303,345,o),
(314,341,o),
(321,338,c),
(333,330,o),
(343,318,o),
(355,310,c),
(357,304,o),
(363,300,o),
(366,296,cs),
(369,291,o),
(371,286,o),
(374,281,c)
);
}
);
width = 510;
}
);
unicode = 97;
},
{
glyphname = ae;
kernLeft = a;
kernRight = e;
lastChange = "2025-02-13 12:00:19 +0000";
layers = (
{
anchors = (
{
name = bottom;
pos = (388,0);
},
{
name = top;
pos = (388,432);
}
);
layerId = "7C3BCDA4-8F92-4DF1-91BA-B714BE37B8B5";
shapes = (
{
closed = 1;
nodes = (
(396,390,l),
(392,387,o),
(387,379,o),
(380,383,c),
(382,399,o),
(382,415,o),
(376,428,c),
(335,432,o),
(292,426,o),
(250,426,cs),
(239,426,o),
(230,429,o),
(219,429,cs),
(199,429,o),
(177,427,o),
(156,428,cs),
(146,428,o),
(135,432,o),
(127,424,cs),
(122,415,o),
(126,398,o),
(126,383,c),
(124,371,o),
(122,360,o),
(127,352,c),
(141,346,o),
(161,353,o),
(179,352,cs),
(185,352,o),
(186,355,o),
(195,354,cs),
(217,353,o),
(236,351,o),
(261,354,c),
(277,352,l),
(284,352,o),
(291,359,o),
(300,354,c),
(304,348,o),
(302,336,o),
(302,326,cs),
(302,314,o),
(304,303,o),
(302,295,c),
(307,277,o),
(303,259,o),
(303,244,cs),
(303,221,o),
(305,200,o),
(303,181,cs),
(303,169,o),
(301,158,o),
(302,147,c),
(300,134,o),
(295,124,o),
(291,117,cs),
(289,113,o),
(288,106,o),
(286,104,cs),
(284,101,o),
(279,99,o),
(277,96,c),
(275,95,o),
(275,90,o),
(274,89,cs),
(270,85,o),
(266,85,o),
(262,82,c),
(262,81,o),
(262,79,o),
(261,79,c),
(259,78,o),
(257,78,o),
(256,77,cs),
(247,70,o),
(238,67,o),
(228,65,cs),
(209,60,l),
(146,56,o),
(114,85,o),
(101,132,c),
(99,147,o),
(102,158,o),
(105,169,c),
(114,182,o),
(123,195,o),
(135,203,c),
(147,206,o),
(152,216,o),
(164,218,cs),
(184,219,o),
(211,212,o),
(222,222,c),
(227,233,o),
(219,244,o),
(219,255,cs),
(219,266,o),
(223,277,o),
(219,288,c),
(206,297,o),
(183,291,o),
(162,293,c),
(139,288,o),
(120,281,o),
(101,275,c),
(96,270,o),
(89,268,o),
(85,264,cs),
(80,261,o),
(74,255,o),
(68,253,c),
(66,247,o),
(61,241,o),
(54,238,c),
(49,228,o),
(45,218,o),
(37,208,c),
(36,196,o),
(29,183,o),
(28,169,cs),
(26,154,o),
(28,138,o),
(24,123,c),
(29,112,o),
(31,98,o),
(32,83,c),
(38,73,o),
(44,64,o),
(47,51,c),
(54,47,o),
(61,40,o),
(68,35,c),
(74,22,o),
(87,15,o),
(98,5,c),
(104,4,o),
(110,1,o),
(115,-3,c),
(132,-5,o),
(144,-12,o),
(162,-14,c),
(195,-14,o),
(222,-11,o),
(250,-7,cs),
(257,-5,o),
(261,0,o),
(269,2,cs),
(276,4,o),
(280,10,o),
(288,12,c),
(305,30,o),
(329,44,o),
(340,67,cs),
(343,72,o),
(342,81,o),
(352,80,cs),
(358,80,o),
(358,71,o),
(360,67,c),
(364,63,o),
(370,60,o),
(371,54,c),
(378,45,o),
(389,39,o),
(393,29,c),
(404,24,o),
(412,18,o),
(420,12,cs),
(429,7,o),
(438,2,o),
(447,-4,c),
(460,-6,o),
(474,-8,o),
(486,-12,c),
(522,-10,o),
(555,-6,o),
(591,-4,c),
(600,0,o),
(607,4,o),
(621,4,c),
(630,10,o),
(640,14,o),
(652,18,c),
(658,26,o),
(667,32,o),
(676,37,c),
(697,65,ls),
(706,76,o),
(718,85,o),
(724,96,cs),
(728,102,o),
(731,105,o),
(731,112,c),
(732,115,o),
(731,119,o),
(731,123,c),
(726,132,o),
(716,134,o),
(705,137,c),
(701,142,o),
(694,144,o),
(690,147,c),
(684,149,o),
(678,154,o),
(671,153,cs),
(667,153,o),
(664,149,o),
(662,147,cs),
(656,138,o),
(650,129,o),
(644,120,c),
(635,110,o),
(623,101,o),
(611,93,c),
(605,88,o),
(597,86,o),
(589,83,c),
(585,76,o),
(574,77,o),
(567,71,c),
(542,68,o),
(521,69,o),
(494,70,c),
(476,76,o),
(460,83,o),
(446,89,c),
(433,101,o),
(420,111,o),
(408,121,c),
(399,138,o),
(388,153,o),
(382,173,c),
(383,185,o),
(374,196,o),
(382,202,c),
(403,200,o),
(425,200,o),
(443,200,cs),
(458,200,o),
(474,198,o),
(486,198,cs),
(491,198,o),
(496,200,o),
(501,200,cs),
(509,199,o),
(520,198,o),
(529,198,cs),
(540,198,o),
(550,199,o),
(561,200,cs),
(575,200,o),
(590,196,o),
(603,196,cs),
(618,197,o),
(632,201,o),
(644,202,cs),
(650,202,o),
(654,200,o),
(657,200,cs),
(667,200,o),
(675,201,o),
(682,202,cs),
(704,203,o),
(721,195,o),
(738,206,c),
(742,227,o),
(735,257,o),
(735,274,c),
(729,285,o),
(726,300,o),
(721,314,cs),
(717,328,o),
(708,336,o),
(704,350,c),
(693,360,o),
(686,374,o),
(674,385,cs),
(668,390,o),
(660,398,o),
(655,401,c),
(653,401,o),
(650,406,o),
(649,407,cs),
(645,409,o),
(642,414,o),
(638,415,c),
(623,422,o),
(609,430,o),
(592,435,cs),
(582,438,o),
(568,436,o),
(559,440,c),
(549,436,o),
(533,437,o),
(520,435,c),
(510,437,o),
(505,443,o),
(494,442,cs),
(473,439,o),
(460,429,o),
(442,424,c),
(412,402,l)
);
},
{
closed = 1;
nodes = (
(651,267,o),
(640,268,o),
(631,267,cs),
(616,266,o),
(601,267,o),
(586,267,cs),
(571,268,o),
(556,266,o),
(540,266,cs),
(534,266,o),
(527,267,o),
(521,267,cs),
(504,267,o),
(488,264,o),
(472,264,cs),
(457,264,o),
(441,267,o),
(426,267,cs),
(412,268,o),
(398,264,o),
(386,272,c),
(387,290,o),
(400,295,o),
(405,308,c),
(418,317,o),
(427,330,o),
(437,340,c),
(461,352,o),
(497,367,o),
(532,364,cs),
(543,364,o),
(554,358,o),
(566,357,c),
(575,355,o),
(581,351,o),
(589,347,c),
(595,342,o),
(602,342,o),
(608,338,c),
(609,338,o),
(609,335,o),
(610,335,c),
(612,334,o),
(618,333,o),
(619,331,cs),
(620,330,o),
(620,326,o),
(622,324,cs),
(634,315,l),
(635,314,o),
(635,312,o),
(636,310,c),
(641,303,o),
(650,292,o),
(653,280,c),
(653,275,l)
);
}
);
width = 774;
}
);
unicode = 230;
},
{
glyphname = b;
kernLeft = h;
kernRight = o;
lastChange = "2025-02-13 12:00:19 +0000";
layers = (
{
anchors = (
{
name = bottom;
pos = (252,0);
},
{
name = center;
pos = (252,217);
},
{
name = top;
pos = (252,432);
}
);
layerId = "7C3BCDA4-8F92-4DF1-91BA-B714BE37B8B5";
shapes = (
{
closed = 1;
nodes = (
(391,16,o),
(399,29,o),
(413,33,c),
(417,40,o),
(424,46,o),
(428,50,cs),
(432,56,o),
(436,64,o),
(441,69,c),
(447,84,o),
(455,98,o),
(465,110,c),
(463,119,o),
(468,122,o),
(469,128,cs),
(469,138,o),
(472,145,o),
(471,155,c),
(474,156,o),
(471,157,o),
(471,161,cs),
(471,177,o),
(470,194,o),
(469,209,cs),
(469,227,o),
(470,245,o),
(468,262,cs),
(467,274,o),
(461,290,o),
(458,298,cs),
(456,305,o),
(454,314,o),
(449,319,c),
(448,323,o),
(445,326,o),
(443,331,c),
(441,333,o),
(441,334,o),
(439,336,c),
(431,348,ls),
(427,354,o),
(424,358,o),
(421,365,c),
(418,367,o),
(413,369,o),
(413,372,c),
(409,374,o),
(408,378,o),
(405,381,cs),
(402,384,o),
(396,386,o),
(393,389,cs),
(387,393,o),
(380,402,o),
(372,406,cs),
(359,414,o),
(341,415,o),
(330,427,c),
(317,426,o),
(309,432,o),
(297,433,cs),
(290,434,o),
(288,428,o),
(278,428,cs),
(257,429,o),
(244,423,o),
(223,424,c),
(212,419,o),
(200,414,o),
(187,410,c),
(180,402,o),
(170,396,o),
(162,389,c),
(151,383,o),
(147,371,o),
(133,370,c),
(125,379,o),
(129,388,o),
(129,397,cs),
(129,400,o),
(127,404,o),
(128,408,c),
(128,421,o),
(130,435,o),
(132,449,cs),
(132,456,o),
(129,464,o),
(129,471,cs),
(129,507,o),
(130,548,o),
(129,580,cs),
(129,606,o),
(128,633,o),
(129,658,cs),
(130,682,o),
(132,704,o),
(135,722,c),
(129,734,o),
(132,745,o),
(129,757,c),
(124,761,o),
(116,765,o),
(105,766,cs),
(99,766,o),
(90,761,o),
(84,761,cs),
(69,761,o),
(53,769,o),
(44,758,c),
(41,746,o),
(44,735,o),
(46,722,c),
(45,637,o),
(48,550,o),
(49,466,cs),
(49,421,o),
(45,379,o),
(50,338,c),
(44,321,o),
(46,304,o),
(47,284,cs),
(49,253,o),
(52,219,o),
(52,188,cs),
(52,182,o),
(50,178,o),
(50,171,cs),
(50,166,o),
(52,159,o),
(52,154,cs),
(52,139,o),
(47,124,o),
(53,114,c),
(48,89,o),
(53,66,o),
(52,36,c),
(48,21,o),
(47,3,o),
(57,-7,c),
(78,-10,o),
(107,-7,o),
(126,-7,c),
(130,-2,o),
(136,4,o),
(135,14,cs),
(135,26,o),
(132,30,o),
(136,38,c),
(144,38,o),
(144,30,o),
(151,29,c),
(153,23,o),
(159,21,o),
(162,17,c),
(172,10,o),
(181,3,o),
(192,-2,c),
(210,-6,o),
(229,-11,o),
(248,-14,c),
(267,-9,o),
(283,-11,o),
(301,-13,cs),
(319,-13,o),
(330,-6,o),
(347,-5,c),
(352,-1,o),
(356,1,o),
(361,3,cs),
(379,10,l)
);
},
{
closed = 1;
nodes = (
(384,256,o),
(386,232,c),
(387,232,o),
(387,231,o),
(387,230,cs),
(386,213,o),
(389,197,o),
(387,182,cs),
(386,171,o),
(379,162,o),
(380,151,c),
(373,139,o),
(369,126,o),
(363,113,c),
(355,104,o),
(347,95,o),
(338,86,c),
(314,81,o),
(294,67,o),
(264,65,cs),
(254,65,o),
(243,67,o),
(229,67,cs),
(221,67,o),
(218,74,o),
(206,72,c),
(197,84,o),
(184,89,o),
(169,95,c),
(157,110,o),
(147,128,o),
(136,144,c),
(134,154,o),
(132,165,o),
(128,174,c),
(130,183,o),
(127,191,o),
(128,200,cs),
(128,205,o),
(130,211,o),
(132,216,c),
(132,222,o),
(127,229,o),
(129,237,c),
(134,248,o),
(137,261,o),
(140,274,c),
(147,286,o),
(159,295,o),
(165,309,c),
(182,319,o),
(197,333,o),
(216,341,c),
(226,340,o),
(235,342,o),
(240,346,c),
(257,346,o),
(277,343,o),
(297,342,c),
(316,332,o),
(334,318,o),
(352,306,c),
(355,300,o),
(359,295,o),
(364,290,c),
(370,269,o)
);
}
);
width = 505;
}
);
unicode = 98;
},
{
glyphname = c;
kernLeft = o;
kernRight = c;
lastChange = "2025-02-13 12:00:19 +0000";
layers = (
{
anchors = (
{
name = bottom;
pos = (203,0);
},
{
name = top;
pos = (203,432);
}
);
layerId = "7C3BCDA4-8F92-4DF1-91BA-B714BE37B8B5";
shapes = (
{
closed = 1;
nodes = (
(38,153,o),
(39,151,o),
(39,147,c),
(42,141,o),
(42,135,o),
(45,128,cs),
(47,122,o),
(51,117,o),
(52,110,cs),
(58,87,o),
(74,77,o),
(84,58,c),
(96,53,o),
(102,44,o),
(109,33,c),
(124,22,o),
(141,15,o),
(152,3,c),
(182,-2,ls),
(183,-2,o),
(185,-5,o),
(188,-5,c),
(190,-6,o),
(194,-4,o),
(197,-5,cs),
(201,-6,o),
(207,-9,o),
(211,-10,c),
(224,-9,o),
(232,-12,o),
(244,-11,c),
(260,-8,o),
(272,-9,o),
(291,-8,c),
(307,-4,o),
(327,-4,o),
(343,0,c),
(350,3,o),
(354,10,o),
(361,14,c),
(364,21,o),
(373,23,o),
(375,33,c),
(374,41,o),
(376,52,o),
(373,58,c),
(370,81,o),
(378,105,o),
(365,119,c),
(351,118,o),
(347,106,o),
(337,100,cs),
(323,87,o),
(303,81,o),
(281,76,c),
(266,77,o),
(253,74,o),
(241,72,c),
(234,76,o),
(227,79,o),
(216,78,c),
(209,82,o),
(200,86,o),
(191,86,c),
(178,98,o),
(162,105,o),
(149,117,c),
(136,142,o),
(122,164,o),
(114,196,c),
(114,228,o),
(124,250,o),
(132,274,c),
(136,280,o),
(142,284,o),
(143,292,c),
(153,300,o),
(162,312,o),
(172,319,c),
(176,324,o),
(182,326,o),
(188,331,c),
(195,333,o),
(197,339,o),
(205,341,cs),
(248,351,l),
(258,348,o),
(266,347,o),
(278,348,c),
(286,345,o),
(294,338,o),
(307,339,c),
(315,333,o),
(329,330,o),
(336,322,c),
(349,318,o),
(351,303,o),
(368,304,c),
(376,313,o),
(372,324,o),
(372,334,c),
(370,355,o),
(370,376,o),
(372,395,c),
(370,396,o),
(370,398,o),
(370,400,c),
(364,409,o),
(352,416,o),
(337,419,c),
(329,426,o),
(312,426,o),
(300,432,c),
(263,436,o),
(239,426,o),
(200,430,c),
(191,427,o),
(182,424,o),
(172,422,c),
(164,415,o),
(153,412,o),
(143,408,c),
(134,398,o),
(123,390,o),
(109,386,c),
(100,373,o),
(88,365,o),
(80,352,cs),
(76,346,o),
(70,340,o),
(65,334,c),
(63,326,o),
(59,320,o),
(52,315,c),
(50,307,o),
(49,298,o),
(45,292,cs),
(41,285,o),
(40,275,o),
(37,267,c),
(35,244,o),
(32,224,o),
(33,200,cs),
(33,191,o),
(35,181,o),
(37,174,c),
(37,155,l)
);
}
);
width = 404;
}
);
unicode = 99;
},
{
glyphname = d;
kernLeft = o;
kernRight = l;
lastChange = "2025-02-13 13:44:40 +0000";
layers = (
{
anchors = (
{
name = bottom;
pos = (260,0);
},
{
name = center;
pos = (260,217);
},
{
name = top;
pos = (260,713);
},
{
name = topright;
pos = (499,713);
}
);
layerId = "7C3BCDA4-8F92-4DF1-91BA-B714BE37B8B5";
shapes = (
{
closed = 1;
nodes = (
(459,48,o),
(461,50,o),
(460,52,c),
(460,52,o),
(459,54,o),
(459,57,cs),
(455,85,o),
(461,113,o),
(456,136,c),
(458,140,o),
(458,146,o),
(459,151,c),
(455,194,o),
(460,238,o),
(457,278,cs),
(456,300,o),
(459,332,o),
(459,353,cs),
(458,434,o),
(459,523,o),
(457,600,cs),
(457,602,o),
(459,603,o),
(459,604,cs),
(459,609,o),
(458,620,o),
(457,626,c),
(457,672,ls),
(457,688,o),
(455,704,o),
(456,720,cs),
(456,735,o),
(460,750,o),
(454,763,c),
(439,775,o),
(418,766,o),
(399,770,c),
(391,766,o),
(377,768,o),
(371,761,c),
(365,737,o),
(373,709,o),
(374,681,cs),
(375,666,o),
(374,651,o),
(374,635,cs),
(374,616,ls),
(374,608,o),
(375,600,o),
(373,593,c),
(377,574,o),
(374,554,o),
(373,533,c),
(374,525,o),
(377,520,o),
(377,510,c),
(374,490,l),
(376,454,o),
(376,420,o),
(377,383,cs),
(377,374,o),
(378,367,o),
(373,364,c),
(366,366,o),
(360,371,o),
(355,375,c),
(352,383,o),
(344,386,o),
(340,391,c),
(326,401,o),
(311,409,o),
(299,419,c),
(292,420,o),
(286,422,o),
(280,424,cs),
(273,427,o),
(270,430,o),
(261,432,c),
(257,432,o),
(251,430,o),
(242,430,cs),
(236,430,o),
(228,433,o),
(220,432,cs),
(207,429,o),
(193,427,o),
(180,425,c),
(164,420,o),
(151,412,o),
(134,408,c),
(117,392,o),
(99,381,o),
(83,365,c),
(80,357,o),
(75,352,o),
(71,346,c),
(70,336,o),
(61,335,o),
(59,326,c),
(56,320,o),
(53,314,o),
(52,304,c),
(47,299,o),
(44,290,o),
(40,282,c),
(40,266,o),
(36,248,o),
(35,230,cs),
(34,220,o),
(35,209,o),
(35,200,cs),
(34,189,o),
(33,180,o),
(33,169,c),
(35,155,o),
(40,141,o),
(41,127,c),
(52,105,o),
(61,84,o),
(71,64,c),
(85,52,o),
(94,39,o),
(104,26,c),
(119,19,o),
(132,11,o),
(144,3,c),
(153,2,o),
(160,-1,o),
(167,-5,c),
(182,-6,o),
(198,-10,o),
(215,-11,cs),
(240,-13,o),
(265,-11,o),
(286,-8,cs),
(298,-6,o),
(309,-4,o),
(319,-3,c),
(320,-1,o),
(323,0,o),
(327,0,c),
(336,8,o),
(343,17,o),
(354,23,c),
(355,30,o),
(360,33,o),
(363,38,cs),
(367,44,o),
(377,49,o),
(377,49,c),
(377,49,o),
(376,18,o),
(376,3,c),
(386,-6,o),
(403,-10,o),
(418,-5,c),
(432,-9,o),
(447,-5,o),
(457,0,c),
(463,7,o),
(463,17,o),
(462,23,cs),
(459,48,l)
);
},
{
closed = 1;
nodes = (
(132,143,o),
(125,149,o),
(124,157,cs),
(121,175,o),
(119,198,o),
(119,221,c),
(123,233,o),
(124,245,o),
(126,256,c),
(130,266,o),
(134,275,o),
(138,284,c),
(147,293,o),
(156,301,o),
(162,313,c),
(175,320,o),
(185,330,o),
(198,338,c),
(203,339,o),
(210,341,o),
(215,346,c),
(226,346,o),
(238,347,o),
(244,351,c),
(254,347,o),
(268,349,o),
(277,346,c),
(288,345,o),
(294,337,o),
(305,336,c),
(312,332,o),
(318,325,o),
(327,322,c),
(335,313,o),
(343,302,o),
(354,295,c),
(357,290,o),
(357,282,o),
(360,278,c),
(374,265,o),
(377,239,o),
(379,216,cs),
(382,191,o),
(381,163,o),
(371,143,cs),
(369,136,o),
(365,131,o),
(360,124,cs),
(356,119,o),
(352,114,o),
(350,107,c),
(341,101,o),
(333,95,o),
(325,86,c),
(318,85,o),
(313,82,o),
(308,78,c),
(305,72,o),
(295,74,o),
(292,69,c),
(275,67,o),
(257,66,o),
(237,67,cs),
(225,67,o),
(217,73,o),
(206,76,cs),
(200,78,o),
(194,78,o),
(189,80,c),
(188,80,o),
(184,82,o),
(183,83,c),
(168,89,o),
(158,105,o),
(144,116,c),
(135,136,ls)
);
}
);
width = 504;
}
);
unicode = 100;
},
{
glyphname = eth;
kernLeft = eth;
kernRight = eth;
lastChange = "2025-02-13 12:00:19 +0000";
layers = (
{
layerId = "7C3BCDA4-8F92-4DF1-91BA-B714BE37B8B5";
shapes = (
{
closed = 1;
nodes = (
(329,474,l),
(326,482,o),
(322,486,o),
(318,491,c),
(313,503,o),
(304,513,o),
(299,526,c),
(287,537,o),
(277,550,o),
(273,569,c),
(266,574,o),
(262,583,o),
(255,588,c),
(254,594,o),
(251,599,o),
(250,604,c),
(238,612,o),
(234,628,o),
(223,639,c),
(218,641,o),
(212,645,o),
(205,649,c),
(191,647,o),
(181,641,o),
(174,632,c),
(162,628,o),
(152,622,o),
(147,612,c),
(147,602,o),
(152,597,o),
(156,591,cs),
(158,587,o),
(157,581,o),
(161,580,c),
(162,572,o),
(167,571,o),
(172,568,c),
(174,558,o),
(179,552,o),
(183,547,c),
(186,539,o),
(191,534,o),
(195,526,c),
(195,521,o),
(200,521,o),
(201,517,c),
(203,514,o),
(203,508,o),
(207,507,c),
(212,501,o),
(216,494,o),
(221,489,c),
(225,479,o),
(232,469,o),
(238,461,c),
(241,451,o),
(249,446,o),
(252,436,c),
(263,428,o),
(270,417,o),
(274,403,c),
(267,398,o),
(263,407,o),
(255,406,c),
(207,406,l),
(196,403,o),
(185,399,o),
(169,400,c),
(149,390,o),
(129,380,o),
(112,368,c),
(100,355,o),
(89,340,o),
(76,330,c),
(73,318,o),
(67,313,o),
(62,304,c),
(54,280,o),
(47,257,o),
(40,231,c),
(40,185,l),
(46,161,o),
(50,137,o),
(56,114,c),
(61,110,o),
(64,105,o),
(65,98,c),
(74,87,o),
(84,78,o),
(88,63,c),
(100,50,o),
(113,41,o),
(127,31,c),
(130,29,o),
(132,26,o),
(136,23,cs),
(146,17,o),
(159,13,o),
(169,4,c),
(182,2,o),
(194,-1,o),
(202,-7,c),
(214,-6,o),
(219,-9,o),
(227,-12,c),
(244,-11,o),
(264,-14,o),
(276,-7,c),
(282,-6,o),
(284,-9,o),
(290,-9,c),
(314,-4,o),
(332,8,o),
(355,12,c),
(360,16,o),
(365,21,o),
(373,21,c),
(389,36,o),
(405,49,o),
(420,63,c),
(420,76,l),
(423,82,o),
(432,82,o),
(436,86,c),
(439,97,o),
(441,106,o),
(447,114,c),
(447,120,o),
(446,126,o),
(446,134,c),
(449,147,o),
(458,153,o),
(461,166,c),
(461,172,o),
(458,175,o),
(458,182,cs),
(460,198,o),
(465,215,o),
(464,233,cs),
(461,271,o),
(439,299,o),
(428,330,c),
(420,337,o),
(416,350,o),
(408,358,c),
(401,368,o),
(396,378,o),
(387,385,c),
(385,391,o),
(382,398,o),
(379,404,c),
(371,406,o),
(374,416,o),
(370,420,c),
(370,425,o),
(365,426,o),
(362,428,cs),
(354,438,o),
(348,448,o),
(342,459,c)
);
},
{
closed = 1;
nodes = (
(161,287,l),
(166,295,o),
(173,301,o),
(180,309,c),
(190,312,o),
(196,318,o),
(205,321,c),
(219,323,o),
(234,324,o),
(246,329,c),
(257,326,o),
(264,328,o),
(277,329,c),
(292,323,o),
(306,320,o),
(318,314,cs),
(332,307,o),
(338,296,o),
(351,290,c),
(355,281,o),
(363,274,o),
(370,266,c),
(371,256,o),
(374,249,o),
(379,241,c),
(378,233,o),
(383,229,o),
(384,221,c),
(383,207,o),
(385,200,o),
(384,188,c),
(385,188,o),
(386,187,o),
(384,186,c),
(385,180,o),
(381,177,o),
(382,169,c),
(373,159,o),
(370,144,o),
(358,137,c),
(359,132,o),
(357,130,o),
(356,126,c),
(350,121,o),
(343,115,o),
(339,106,c),
(330,102,o),
(321,95,o),
(313,88,c),
(295,86,o),
(284,74,o),
(266,70,c),
(248,77,o),
(224,78,o),
(205,84,c),
(198,88,o),
(189,96,o),
(180,100,c),
(171,108,o),
(162,117,o),
(153,124,c),
(149,138,o),
(140,147,o),
(133,158,c),
(134,164,o),
(137,167,o),
(136,172,cs),
(135,177,o),
(130,179,o),
(128,182,cs),
(119,198,o),
(127,209,o),
(127,231,c),
(132,242,o),
(137,254,o),
(141,266,c)
);
}
);
width = 494;
}
);
unicode = 240;
},
{
glyphname = e;
kernLeft = o;
kernRight = e;
lastChange = "2025-02-13 12:00:19 +0000";
layers = (
{
anchors = (
{
name = bottom;
pos = (228,0);
},
{
name = ogonek;
pos = (269,10);
},
{
name = top;
pos = (228,432);
}
);
layerId = "7C3BCDA4-8F92-4DF1-91BA-B714BE37B8B5";
shapes = (
{
closed = 1;
nodes = (
(34,259,o),
(34,251,o),
(38,240,c),
(37,235,o),
(32,234,o),
(33,225,c),
(33,188,l),
(36,175,o),
(37,161,o),
(39,146,c),
(49,126,o),
(55,99,o),
(67,84,cs),
(69,80,o),
(71,79,o),
(74,76,cs),
(82,69,o),
(86,62,o),
(90,53,c),
(103,47,o),
(111,34,o),
(121,23,c),
(135,14,o),
(154,10,o),
(170,1,c),
(183,1,o),
(197,-3,o),
(209,-3,cs),
(219,-4,o),
(227,-2,o),
(238,-2,cs),
(248,-2,o),
(257,-4,o),
(265,-3,cs),
(277,-3,o),
(288,1,o),
(298,1,c),
(310,7,o),
(324,11,o),
(338,16,c),
(356,28,o),
(373,41,o),
(390,55,c),
(402,79,o),
(428,85,o),
(427,119,c),
(419,126,o),
(410,132,o),
(400,136,c),
(391,143,o),
(384,151,o),
(369,151,c),
(355,124,l),
(339,110,o),
(323,96,o),
(305,83,c),
(294,81,o),
(286,77,o),
(277,72,c),
(260,68,o),
(241,67,o),
(220,68,cs),
(204,70,o),
(193,78,o),
(180,83,c),
(171,89,o),
(163,97,o),
(152,102,c),
(142,117,o),
(128,126,o),
(122,139,cs),
(116,153,o),
(113,167,o),
(118,178,c),
(116,184,o),
(112,191,o),
(116,199,c),
(125,204,o),
(138,200,o),
(149,201,cs),
(180,203,o),
(209,202,o),
(240,204,cs),
(248,204,o),
(252,201,o),
(258,201,cs),
(291,200,o),
(323,206,o),
(353,201,c),
(374,206,o),
(408,203,o),
(432,204,c),
(439,209,o),
(438,222,o),
(438,235,c),
(432,247,o),
(434,267,o),
(432,282,c),
(426,297,o),
(419,312,o),
(416,329,c),
(407,342,o),
(399,353,o),
(389,365,c),
(386,372,o),
(381,381,o),
(377,389,c),
(364,390,o),
(358,402,o),
(350,409,c),
(338,410,o),
(334,410,o),
(323,414,cs),
(317,417,o),
(318,426,o),
(309,427,c),
(294,433,o),
(273,434,o),
(254,438,c),
(238,436,o),
(226,438,o),
(213,435,c),
(201,438,o),
(196,432,o),
(184,435,c),
(173,429,o),
(155,430,o),
(146,422,c),
(132,419,o),
(125,408,o),
(113,405,c),
(107,398,o),
(101,393,o),
(97,387,c),
(88,384,o),
(86,375,o),
(78,371,c),
(72,352,o),
(50,340,o),
(55,315,c),
(48,312,o),
(45,302,o),
(41,292,c),
(36,271,ls)
);
},
{
closed = 1;
nodes = (
(348,281,o),
(350,276,c),
(338,268,o),
(321,268,o),
(305,268,cs),
(290,268,o),
(276,271,o),
(265,267,c),
(253,270,o),
(238,270,o),
(222,270,cs),
(219,270,o),
(216,268,o),
(213,268,cs),
(208,268,o),
(206,270,o),
(203,270,cs),
(196,269,o),
(188,267,o),
(181,267,cs),
(171,266,o),
(162,268,o),
(151,268,cs),
(141,268,o),
(129,266,o),
(121,273,c),
(119,295,o),
(129,302,o),
(133,317,c),
(141,326,o),
(150,332,o),
(155,342,c),
(160,343,o),
(163,348,o),
(166,351,cs),
(171,354,o),
(181,356,o),
(185,362,c),
(200,363,o),
(214,370,o),
(229,370,cs),
(239,370,o),
(251,365,o),
(264,367,c),
(272,363,o),
(281,359,o),
(292,358,c),
(298,353,o),
(305,350,o),
(313,346,c),
(323,334,o),
(333,322,o),
(342,309,c),
(342,298,o),
(349,293,o),
(351,284,cs),
(352,280,o)
);
}
);
width = 466;
}
);
unicode = 101;
},
{
glyphname = f;
kernLeft = f;
kernRight = f;
lastChange = "2025-02-13 12:00:19 +0000";
layers = (
{
anchors = (
{
name = bottom;
pos = (149,0);
},
{
name = top;
pos = (149,713);
}
);
layerId = "7C3BCDA4-8F92-4DF1-91BA-B714BE37B8B5";
shapes = (
{
closed = 1;
nodes = (
(152,767,o),
(145,768,o),
(142,766,c),
(139,763,o),
(139,759,o),
(135,761,c),
(124,751,o),
(113,738,o),
(101,731,c),
(98,719,o),
(88,711,o),
(85,702,cs),
(79,684,l),
(73,668,l),
(73,659,o),
(71,653,o),
(70,645,c),
(72,625,o),
(69,608,o),
(67,590,c),
(68,585,o),
(70,580,o),
(71,574,c),
(70,571,o),
(67,568,o),
(68,561,cs),
(70,549,o),
(69,534,o),
(70,519,cs),
(70,507,o),
(72,493,o),
(71,485,cs),
(71,482,o),
(69,479,o),
(70,474,c),
(71,455,ls),
(71,450,o),
(69,444,o),
(68,439,cs),
(67,434,o),
(70,427,o),
(65,424,cs),
(57,421,o),
(48,420,o),
(36,421,c),
(26,402,o),
(26,363,o),
(36,342,c),
(43,336,o),
(60,342,o),
(67,336,c),
(72,323,o),
(72,308,o),
(73,295,cs),
(73,290,o),
(71,285,o),
(71,279,cs),
(71,269,o),
(73,258,o),
(73,248,cs),
(73,219,o),
(71,183,o),
(73,151,cs),
(74,112,o),
(73,76,o),
(74,43,c),
(72,31,o),
(67,19,o),
(71,6,c),
(86,-12,o),
(117,3,o),
(143,-3,cs),
(155,-5,o),
(159,2,o),
(164,6,c),
(162,57,o),
(160,118,o),
(160,168,c),
(157,188,l),
(164,238,o),
(155,287,o),
(160,339,c),
(191,342,o),
(226,339,o),
(261,336,c),
(265,341,o),
(273,343,o),
(275,351,cs),
(276,358,o),
(276,368,o),
(277,374,c),
(272,387,o),
(278,413,o),
(270,422,c),
(261,427,o),
(249,423,o),
(237,422,cs),
(223,421,o),
(209,422,o),
(195,422,cs),
(181,422,o),
(169,422,o),
(162,427,c),
(158,436,o),
(158,448,o),
(157,458,cs),
(157,477,ls),
(157,484,o),
(158,492,o),
(159,496,cs),
(159,497,o),
(157,498,o),
(157,499,cs),
(155,547,o),
(158,590,o),
(157,637,c),
(164,655,o),
(168,675,o),
(181,686,c),
(194,685,o),
(200,690,o),
(209,690,cs),
(235,693,o),
(252,684,o),
(272,690,c),
(274,698,o),
(277,703,o),
(277,713,c),
(272,726,o),
(276,751,o),
(273,766,c),
(269,774,o),
(255,775,o),
(246,781,c),
(234,778,o),
(214,778,o),
(201,781,c),
(193,775,o),
(181,775,o),
(171,772,cs),
(157,769,ls)
);
}
);
width = 292;
}
);
unicode = 102;
},
{
glyphname = g;
kernLeft = g;
kernRight = g;
lastChange = "2025-02-13 12:00:19 +0000";
layers = (
{
anchors = (
{
name = bottom;
pos = (267,-237);
},
{
name = top;
pos = (267,432);
}
);
layerId = "7C3BCDA4-8F92-4DF1-91BA-B714BE37B8B5";
shapes = (
{
closed = 1;
nodes = (
(454,-40,o),
(452,-30,o),
(452,-21,cs),
(453,-13,o),
(454,-6,o),
(454,1,cs),
(454,8,o),
(455,21,o),
(454,28,cs),
(452,49,o),
(455,73,o),
(454,97,cs),
(453,129,o),
(454,157,o),
(454,188,cs),
(455,215,o),
(451,241,o),
(452,268,cs),
(454,293,o),
(453,319,o),
(454,345,cs),
(455,370,o),
(455,396,o),
(449,421,c),
(440,428,o),
(426,425,o),
(412,425,cs),
(398,425,o),
(382,428,o),
(373,419,c),
(370,409,o),
(379,386,o),
(369,380,c),
(355,378,o),
(353,388,o),
(347,391,c),
(341,399,o),
(332,401,o),
(328,409,c),
(314,413,o),
(305,423,o),
(293,428,c),
(281,430,o),
(269,428,o),
(259,430,cs),
(252,431,o),
(247,434,o),
(239,435,cs),
(233,435,o),
(226,433,o),
(218,433,cs),
(193,433,l),
(169,427,o),
(149,419,o),
(129,409,c),
(119,399,o),
(108,390,o),
(96,381,c),
(92,371,o),
(84,366,o),
(80,355,c),
(72,351,o),
(66,347,o),
(60,341,c),
(52,316,o),
(39,298,o),
(36,270,cs),
(34,238,o),
(32,219,o),
(33,184,c),
(36,173,o),
(37,162,o),
(36,149,c),
(60,90,l),
(65,84,o),
(70,77,o),
(77,69,c),
(80,60,o),
(88,56,o),
(93,48,c),
(102,43,o),
(110,34,o),
(119,29,cs),
(135,20,l),
(149,11,l),
(166,10,o),
(174,0,o),
(193,1,c),
(199,-2,o),
(206,-2,o),
(215,-3,cs),
(235,-7,o),
(253,-6,o),
(275,-5,cs),
(282,-5,o),
(280,3,o),
(288,1,c),
(303,5,l),
(317,15,o),
(330,27,o),
(347,33,c),
(350,38,o),
(353,43,o),
(357,48,c),
(363,49,o),
(366,60,o),
(371,55,c),
(374,51,o),
(373,47,o),
(373,41,cs),
(373,29,ls),
(373,1,o),
(374,-32,o),
(373,-64,cs),
(372,-79,o),
(375,-93,o),
(371,-104,c),
(351,-115,o),
(328,-111,o),
(303,-112,cs),
(250,-112,ls),
(231,-111,o),
(212,-110,o),
(193,-110,cs),
(173,-110,o),
(154,-112,o),
(135,-112,cs),
(116,-111,o),
(99,-107,o),
(82,-110,c),
(76,-120,o),
(80,-132,o),
(80,-145,cs),
(80,-155,o),
(76,-166,o),
(80,-175,c),
(91,-186,o),
(111,-181,o),
(127,-181,cs),
(138,-181,o),
(148,-183,o),
(160,-183,cs),
(167,-182,o),
(176,-181,o),
(183,-181,cs),
(324,-181,ls),
(370,-181,o),
(406,-183,o),
(446,-181,c),
(454,-172,o),
(456,-165,o),
(454,-151,cs),
(453,-139,o),
(454,-129,o),
(454,-118,cs),
(454,-49,ls)
);
},
{
closed = 1;
nodes = (
(127,264,o),
(127,269,o),
(129,273,c),
(130,277,o),
(134,280,o),
(135,284,cs),
(137,288,o),
(137,293,o),
(138,297,c),
(139,298,o),
(142,298,o),
(143,300,cs),
(144,304,o),
(150,313,o),
(154,317,cs),
(155,318,o),
(159,317,o),
(160,319,cs),
(161,320,o),
(161,321,o),
(161,322,c),
(162,324,o),
(164,326,o),
(165,329,c),
(177,333,o),
(182,339,o),
(193,345,c),
(219,350,o),
(246,358,o),
(275,353,cs),
(294,351,o),
(306,339,o),
(324,334,c),
(337,322,o),
(349,307,o),
(361,293,c),
(363,284,o),
(366,276,o),
(371,270,c),
(370,262,o),
(372,257,o),
(373,251,c),
(374,251,o),
(374,250,o),
(374,249,cs),
(374,233,o),
(375,218,o),
(374,203,cs),
(374,189,o),
(370,177,o),
(371,163,c),
(364,155,o),
(364,145,o),
(358,136,cs),
(356,132,o),
(352,127,o),
(348,122,cs),
(340,112,o),
(333,105,o),
(322,95,c),
(312,90,o),
(303,84,o),
(291,81,c),
(281,76,o),
(267,76,o),
(257,69,c),
(251,69,o),
(245,72,o),
(238,69,c),
(223,73,o),
(209,77,o),
(196,83,cs),
(181,87,o),
(171,98,o),
(160,105,c),
(154,116,o),
(145,124,o),
(138,133,c),
(135,145,o),
(131,157,o),
(124,166,c),
(125,177,o),
(122,181,o),
(119,187,c),
(123,208,o),
(117,229,o),
(121,248,c),
(126,259,l)
);
}
);
width = 498;
}
);
unicode = 103;
},
{
glyphname = h;
kernLeft = h;
kernRight = n;
lastChange = "2025-02-13 12:00:19 +0000";
layers = (
{
anchors = (
{
name = bottom;
pos = (225,0);
},
{
name = center;
pos = (225,356);
},
{
name = top;
pos = (90,770);
}
);
layerId = "7C3BCDA4-8F92-4DF1-91BA-B714BE37B8B5";
shapes = (
{
closed = 1;
nodes = (
(126,480,o),
(128,487,o),
(128,496,cs),
(128,503,o),
(127,509,o),
(126,518,c),
(136,548,o),
(123,584,o),
(130,615,c),
(128,620,o),
(127,627,o),
(126,635,cs),
(126,647,o),
(129,666,o),
(126,673,c),
(126,675,o),
(128,675,o),
(128,675,c),
(128,692,ls),
(127,699,o),
(125,704,o),
(124,711,c),
(129,723,o),
(132,744,o),
(130,760,c),
(124,770,o),
(106,770,o),
(90,770,cs),
(75,770,o),
(58,772,o),
(48,767,c),
(42,748,o),
(45,724,o),
(44,702,cs),
(44,678,o),
(45,657,o),
(43,637,c),
(47,624,o),
(45,611,o),
(44,599,cs),
(44,578,ls),
(45,557,o),
(44,538,o),
(44,518,cs),
(45,501,o),
(48,477,o),
(48,458,cs),
(48,432,o),
(48,405,o),
(44,383,c),
(48,365,o),
(46,347,o),
(46,332,cs),
(46,326,o),
(47,321,o),
(48,315,c),
(48,281,o),
(48,250,o),
(48,216,c),
(45,200,o),
(47,175,o),
(44,157,c),
(46,150,o),
(48,143,o),
(48,135,cs),
(48,129,o),
(48,123,o),
(48,116,cs),
(47,93,o),
(51,69,o),
(48,50,cs),
(48,35,o),
(43,21,o),
(52,11,c),
(60,6,o),
(76,8,o),
(89,8,c),
(102,3,o),
(122,3,o),
(130,11,c),
(138,22,o),
(130,40,o),
(128,52,c),
(130,68,o),
(126,86,o),
(126,105,cs),
(127,118,o),
(126,137,o),
(128,152,cs),
(128,161,o),
(124,163,o),
(124,171,c),
(126,179,o),
(126,192,o),
(124,200,c),
(131,216,o),
(127,247,o),
(130,265,c),
(130,276,ls),
(131,286,o),
(135,293,o),
(135,301,c),
(145,320,o),
(160,337,o),
(179,348,cs),
(204,360,o),
(250,362,o),
(279,351,c),
(296,338,o),
(313,325,o),
(321,303,c),
(321,292,o),
(320,281,o),
(321,268,cs),
(321,247,o),
(323,223,o),
(322,201,cs),
(322,189,o),
(320,179,o),
(321,166,cs),
(322,143,o),
(324,119,o),
(324,97,cs),
(324,88,o),
(322,80,o),
(322,72,cs),
(322,63,o),
(325,53,o),
(324,45,cs),
(323,31,o),
(314,24,o),
(321,16,c),
(328,3,o),
(350,10,o),
(368,10,cs),
(379,10,o),
(388,7,o),
(396,10,c),
(405,14,o),
(410,27,o),
(407,38,c),
(400,99,o),
(400,164,o),
(404,223,c),
(399,238,o),
(398,262,o),
(401,278,c),
(397,296,o),
(397,321,o),
(398,341,c),
(393,354,o),
(387,366,o),
(381,378,c),
(368,387,o),
(358,402,o),
(346,409,c),
(338,415,o),
(327,415,o),
(319,422,c),
(307,424,o),
(300,430,o),
(291,433,c),
(260,435,o),
(226,440,o),
(200,432,c),
(194,429,o),
(188,425,o),
(181,422,cs),
(174,419,o),
(164,418,o),
(159,414,cs),
(148,409,o),
(142,396,o),
(130,398,c),
(125,416,o),
(130,434,o),
(130,450,c),
(126,471,l)
);
}
);
width = 450;
}
);
unicode = 104;
},
{
glyphname = idotless;
kernLeft = i;
kernRight = i;
lastChange = "2025-02-13 12:00:19 +0000";
layers = (
{
anchors = (
{
name = bottom;
pos = (86,0);
},
{
name = ogonek;
pos = (63,10);
},
{
name = top;
pos = (86,432);
}
);
layerId = "7C3BCDA4-8F92-4DF1-91BA-B714BE37B8B5";
shapes = (
{
closed = 1;
nodes = (
(46,172,o),
(50,143,o),
(50,115,cs),
(50,105,o),
(47,95,o),
(47,85,cs),
(48,60,o),
(50,34,o),
(47,10,c),
(58,-5,o),
(86,-2,o),
(105,2,c),
(114,6,o),
(115,16,o),
(122,21,c),
(122,27,o),
(125,29,o),
(129,31,c),
(131,35,o),
(128,77,o),
(128,85,cs),
(128,86,o),
(130,86,o),
(129,89,c),
(129,103,o),
(125,117,o),
(125,131,cs),
(125,137,o),
(128,143,o),
(128,150,cs),
(128,156,o),
(125,162,o),
(125,169,cs),
(126,203,o),
(128,239,o),
(128,274,cs),
(128,297,o),
(124,320,o),
(124,342,cs),
(124,367,o),
(130,390,o),
(125,413,c),
(108,428,o),
(73,421,o),
(48,418,c),
(43,403,o),
(46,386,o),
(46,369,cs),
(46,352,o),
(43,335,o),
(43,318,cs),
(43,308,o),
(47,296,o),
(47,286,cs),
(48,275,o),
(48,264,o),
(48,253,cs),
(48,242,o),
(47,233,o),
(47,222,c),
(50,202,l)
);
}
);
width = 173;
}
);
unicode = 305;
},
{
glyphname = jdotless;
kernLeft = j;
kernRight = j;
lastChange = "2025-02-13 12:00:19 +0000";
layers = (
{
anchors = (
{
name = bottom;
pos = (97,-237);
},
{
name = top;
pos = (99,432);
}
);
layerId = "7C3BCDA4-8F92-4DF1-91BA-B714BE37B8B5";
shapes = (
{
closed = 1;
nodes = (
(150,-164,o),
(150,-159,c),
(149,-157,o),
(148,-157,o),
(148,-154,cs),
(143,-111,o),
(147,-66,o),
(146,-22,cs),
(146,-3,o),
(143,17,o),
(143,36,cs),
(143,45,o),
(145,51,o),
(145,58,cs),
(145,69,o),
(142,81,o),
(142,91,cs),
(142,97,o),
(143,101,o),
(143,105,cs),
(143,136,o),
(142,166,o),
(143,199,cs),
(143,209,o),
(142,220,o),
(142,232,cs),
(141,271,o),
(141,307,o),
(143,345,c),
(141,351,o),
(140,356,o),
(140,365,cs),
(140,385,o),
(147,408,o),
(140,424,c),
(132,430,o),
(118,430,o),
(104,430,cs),
(89,430,o),
(73,431,o),
(64,430,c),
(53,407,o),
(61,373,o),
(61,342,cs),
(61,333,o),
(60,324,o),
(60,315,cs),
(60,305,o),
(61,295,o),
(61,284,cs),
(61,274,o),
(58,263,o),
(63,254,c),
(60,244,o),
(61,233,o),
(61,221,cs),
(62,212,o),
(61,200,o),
(61,190,cs),
(62,150,o),
(64,107,o),
(63,68,cs),
(62,53,o),
(61,38,o),
(61,23,cs),
(61,15,o),
(64,6,o),
(64,-2,cs),
(65,-15,o),
(63,-28,o),
(63,-40,cs),
(63,-70,o),
(64,-99,o),
(61,-127,cs),
(61,-131,o),
(62,-135,o),
(61,-140,cs),
(61,-144,o),
(57,-147,o),
(57,-151,cs),
(57,-159,o),
(57,-166,o),
(63,-173,cs),
(70,-183,o),
(90,-180,o),
(105,-183,c),
(114,-178,o),
(132,-181,o),
(140,-179,c),
(143,-176,o),
(144,-173,o),
(148,-171,c),
(149,-168,o)
);
}
);
width = 193;
}
);
unicode = 567;
},
{
glyphname = k;
kernLeft = h;
kernRight = k;
lastChange = "2025-02-13 12:00:19 +0000";
layers = (
{
anchors = (
{
name = bottom;
pos = (217,0);
},
{
name = top;
pos = (217,713);
}
);
layerId = "7C3BCDA4-8F92-4DF1-91BA-B714BE37B8B5";
shapes = (
{
closed = 1;
nodes = (
(389,43,o),
(378,60,o),
(367,68,c),
(366,68,o),
(363,68,o),
(362,69,cs),
(361,70,o),
(361,73,o),
(361,74,c),
(357,79,o),
(353,82,o),
(351,86,c),
(341,93,o),
(338,106,o),
(327,113,c),
(320,123,o),
(312,131,o),
(305,143,c),
(279,168,o),
(257,198,o),
(232,223,c),
(226,236,o),
(214,240,o),
(211,256,c),
(213,268,o),
(227,269,o),
(227,282,c),
(238,280,o),
(239,287,o),
(244,290,c),
(249,295,o),
(256,298,o),
(260,301,c),
(275,319,o),
(293,333,o),
(309,350,c),
(312,353,o),
(315,357,o),
(321,360,cs),
(328,362,o),
(328,369,o),
(333,371,cs),
(344,376,o),
(350,387,o),
(357,395,c),
(370,402,o),
(387,409,o),
(381,428,c),
(380,435,o),
(368,431,o),
(364,435,c),
(355,436,o),
(352,431,o),
(345,430,c),
(325,431,o),
(309,432,o),
(288,432,c),
(271,424,o),
(262,407,o),
(248,397,c),
(245,388,o),
(237,385,o),
(230,378,cs),
(223,372,o),
(220,364,o),
(211,358,c),
(175,320,ls),
(162,308,o),
(154,289,o),
(130,289,c),
(123,301,o),
(128,317,o),
(128,332,cs),
(128,339,o),
(127,348,o),
(127,355,cs),
(127,378,o),
(128,400,o),
(128,419,cs),
(129,432,o),
(127,446,o),
(127,458,cs),
(127,477,ls),
(127,507,o),
(125,534,o),
(128,557,c),
(125,572,o),
(126,590,o),
(125,608,cs),
(124,647,o),
(125,685,o),
(125,722,cs),
(125,741,o),
(129,760,o),
(118,772,c),
(106,776,o),
(91,773,o),
(81,771,c),
(71,772,o),
(60,774,o),
(51,771,c),
(40,762,o),
(42,734,o),
(46,719,c),
(45,714,o),
(47,709,o),
(46,705,c),
(46,698,o),
(45,693,o),
(45,687,cs),
(45,682,o),
(48,675,o),
(48,670,cs),
(48,667,o),
(46,667,o),
(46,664,cs),
(47,657,o),
(48,650,o),
(45,644,c),
(48,620,o),
(46,593,o),
(46,571,cs),
(47,520,o),
(48,459,o),
(48,408,cs),
(48,400,o),
(46,391,o),
(46,384,c),
(49,350,ls),
(51,314,o),
(48,273,o),
(48,235,cs),
(48,223,o),
(51,213,o),
(51,201,cs),
(51,177,o),
(47,151,o),
(51,127,c),
(44,106,o),
(51,85,o),
(51,64,cs),
(51,48,o),
(48,33,o),
(53,19,c),
(62,10,o),
(82,13,o),
(98,12,cs),
(111,12,o),
(124,8,o),
(130,16,c),
(135,26,o),
(129,36,o),
(128,46,cs),
(125,79,o),
(129,114,o),
(128,144,cs),
(128,149,o),
(127,153,o),
(127,157,cs),
(127,165,o),
(132,174,o),
(130,182,c),
(135,186,o),
(140,187,o),
(142,194,c),
(145,200,o),
(166,186,o),
(170,180,c),
(186,169,o),
(194,151,o),
(207,138,cs),
(220,124,o),
(228,107,o),
(241,95,cs),
(248,88,o),
(251,81,o),
(257,72,cs),
(263,66,o),
(272,61,o),
(275,50,c),
(287,36,o),
(297,21,o),
(313,11,c),
(324,11,o),
(342,10,o),
(353,11,cs),
(364,11,ls),
(382,11,o),
(406,10,o),
(404,28,c),
(400,31,ls)
);
}
);
width = 432;
}
);
unicode = 107;
},
{
glyphname = kgreenlandic;
kernLeft = h;
kernRight = k;
lastChange = "2025-02-13 12:00:19 +0000";
layers = (
{
anchors = (
{
name = bottom;
pos = (225,0);
},
{
name = top;
pos = (225,713);
}
);
layerId = "7C3BCDA4-8F92-4DF1-91BA-B714BE37B8B5";
shapes = (
{
closed = 1;
nodes = (
(397,43,o),
(387,60,o),
(375,68,c),
(374,68,o),
(371,68,o),
(371,69,cs),
(370,70,o),
(370,73,o),
(370,74,c),
(366,79,o),
(362,82,o),
(359,86,c),
(350,93,o),
(347,106,o),
(335,113,c),
(329,123,o),
(320,131,o),
(314,143,c),
(288,168,o),
(266,198,o),
(240,223,c),
(235,236,o),
(222,240,o),
(219,256,c),
(221,268,o),
(236,269,o),
(236,282,c),
(247,280,o),
(248,287,o),
(253,290,c),
(257,295,o),
(264,298,o),
(269,301,c),
(283,319,o),
(301,333,o),
(317,350,c),
(320,353,o),
(324,357,o),
(330,360,cs),
(336,362,o),
(336,369,o),
(342,371,cs),
(352,376,o),
(358,387,o),
(366,395,c),
(378,402,o),
(395,409,o),
(390,428,c),
(389,435,o),
(376,431,o),
(372,435,c),
(364,436,o),
(360,431,o),
(353,430,c),
(333,431,o),
(317,432,o),
(296,432,c),
(279,424,o),
(271,407,o),
(257,397,c),
(254,388,o),
(245,385,o),
(238,378,cs),
(232,372,o),
(229,364,o),
(219,358,c),
(183,320,ls),
(171,308,o),
(162,289,o),
(139,289,c),
(131,301,o),
(137,317,o),
(137,332,cs),
(137,339,o),
(136,348,o),
(136,355,cs),
(134,382,ls),
(134,401,o),
(138,420,o),
(126,432,c),
(115,436,o),
(100,433,o),
(89,431,c),
(80,432,o),
(68,434,o),
(60,431,c),
(48,422,o),
(50,394,o),
(54,379,c),
(53,374,o),
(55,369,o),
(54,365,c),
(58,350,l),
(60,314,o),
(56,273,o),
(56,235,cs),
(56,223,o),
(60,213,o),
(60,201,cs),
(60,177,o),
(55,151,o),
(60,127,c),
(52,106,o),
(60,85,o),
(60,64,cs),
(60,48,o),
(56,33,o),
(62,19,c),
(70,10,o),
(90,13,o),
(106,12,cs),
(120,12,o),
(132,8,o),
(139,16,c),
(143,26,o),
(138,36,o),
(137,46,cs),
(134,79,o),
(138,114,o),
(137,144,cs),
(137,149,o),
(136,153,o),
(136,157,cs),
(136,165,o),
(141,174,o),
(139,182,c),
(143,186,o),
(148,187,o),
(150,194,c),
(154,200,o),
(175,186,o),
(179,180,c),
(195,169,o),
(202,151,o),
(216,138,cs),
(229,124,o),
(237,107,o),
(250,95,cs),
(257,88,o),
(259,81,o),
(266,72,cs),
(272,66,o),
(280,61,o),
(283,50,c),
(295,36,o),
(306,21,o),
(321,11,c),
(333,11,o),
(351,10,o),
(362,11,cs),
(372,11,ls),
(390,11,o),
(414,10,o),
(412,28,c),
(409,31,ls)
);
}
);
width = 450;
}
);
unicode = 312;
},
{
glyphname = l;
kernLeft = h;
kernRight = l;
lastChange = "2025-02-13 12:00:19 +0000";
layers = (
{
anchors = (
{
name = bottom;
pos = (96,0);
},
{
name = center;
pos = (96,356);
},
{
name = top;
pos = (87,769);
},
{
name = topright;
pos = (179,713);
}
);
layerId = "7C3BCDA4-8F92-4DF1-91BA-B714BE37B8B5";
shapes = (
{
closed = 1;
nodes = (
(133,48,o),
(134,65,c),
(131,70,o),
(133,80,o),
(129,84,c),
(132,137,o),
(132,195,o),
(131,242,cs),
(131,261,o),
(130,279,o),
(133,297,c),
(126,312,o),
(131,329,o),
(131,345,cs),
(131,353,o),
(130,363,o),
(129,371,cs),
(129,390,o),
(131,409,o),
(129,427,cs),
(129,433,o),
(132,437,o),
(133,443,c),
(129,499,o),
(129,561,o),
(129,622,cs),
(129,631,o),
(131,640,o),
(131,649,cs),
(131,660,o),
(128,673,o),
(128,684,cs),
(128,687,o),
(130,690,o),
(129,692,c),
(129,701,o),
(128,710,o),
(126,719,c),
(129,724,o),
(130,733,o),
(129,741,cs),
(129,750,o),
(128,756,o),
(125,761,c),
(117,769,o),
(101,768,o),
(87,769,cs),
(72,769,o),
(57,770,o),
(48,763,cs),
(41,754,o),
(46,732,o),
(43,719,c),
(49,691,o),
(43,656,o),
(48,631,c),
(47,575,o),
(47,521,o),
(48,466,cs),
(49,428,o),
(46,391,o),
(50,360,c),
(47,333,o),
(49,306,o),
(50,278,cs),
(50,266,o),
(51,262,o),
(48,252,c),
(51,247,o),
(53,238,o),
(51,230,cs),
(48,203,o),
(54,179,o),
(54,154,cs),
(54,137,o),
(51,120,o),
(51,103,cs),
(51,87,o),
(50,72,o),
(50,58,cs),
(49,43,o),
(48,26,o),
(55,11,c),
(64,5,o),
(79,10,o),
(93,10,cs),
(107,10,o),
(123,8,o),
(131,14,c),
(138,26,o)
);
}
);
width = 178;
}
);
unicode = 108;
},
{
glyphname = lslash;
kernLeft = lslash;
kernRight = lslash;
lastChange = "2025-02-13 12:00:19 +0000";
layers = (
{
layerId = "7C3BCDA4-8F92-4DF1-91BA-B714BE37B8B5";
shapes = (
{
closed = 1;
nodes = (
(80,315,o),
(62,314,o),
(46,302,c),
(33,284,o),
(41,261,o),
(55,244,c),
(66,241,o),
(80,248,o),
(91,246,c),
(100,252,o),
(110,257,o),
(121,263,c),
(121,259,o),
(120,256,o),
(119,252,c),
(122,247,o),
(123,238,o),
(122,230,cs),
(118,203,o),
(124,179,o),
(124,154,cs),
(124,137,o),
(122,120,o),
(122,103,cs),
(122,87,o),
(121,72,o),
(121,58,cs),
(120,43,o),
(118,26,o),
(124,11,c),
(134,5,o),
(149,10,o),
(163,10,cs),
(178,10,o),
(192,8,o),
(201,14,c),
(207,26,o),
(203,48,o),
(204,65,c),
(201,70,o),
(203,80,o),
(200,84,c),
(202,137,o),
(202,195,o),
(201,242,cs),
(201,258,o),
(200,274,o),
(202,290,c),
(209,292,o),
(216,293,o),
(222,296,cs),
(242,306,o),
(262,317,o),
(281,325,c),
(280,329,o),
(283,331,o),
(283,333,c),
(287,346,o),
(284,359,o),
(280,365,cs),
(274,372,o),
(267,381,o),
(256,382,c),
(236,376,o),
(221,364,o),
(200,363,c),
(200,366,o),
(200,369,o),
(200,371,cs),
(200,390,o),
(201,409,o),
(200,427,cs),
(200,433,o),
(202,437,o),
(203,443,c),
(200,499,o),
(200,561,o),
(200,622,cs),
(200,631,o),
(201,640,o),
(201,649,cs),
(201,660,o),
(199,673,o),
(199,684,cs),
(199,687,o),
(200,690,o),
(200,692,c),
(200,701,o),
(199,710,o),
(197,719,c),
(200,724,o),
(200,733,o),
(200,741,cs),
(200,750,o),
(199,756,o),
(196,761,c),
(187,769,o),
(171,768,o),
(157,769,cs),
(142,769,o),
(127,770,o),
(119,763,cs),
(111,754,o),
(116,732,o),
(113,719,c),
(120,691,o),
(113,656,o),
(119,631,c),
(117,575,o),
(117,521,o),
(119,466,cs),
(120,428,o),
(116,391,o),
(121,360,c),
(119,351,o),
(119,340,o),
(119,331,c),
(96,325,l)
);
}
);
width = 314;
}
);
unicode = 322;
},
{
glyphname = m;
kernLeft = n;
kernRight = n;
lastChange = "2025-02-13 12:00:19 +0000";
layers = (
{
anchors = (
{
name = bottom;
pos = (338,0);
},
{
name = top;
pos = (338,432);
}
);
layerId = "7C3BCDA4-8F92-4DF1-91BA-B714BE37B8B5";
shapes = (
{
closed = 1;
nodes = (
(167,427,o),
(111,429,o),
(53,427,c),
(42,412,o),
(46,390,o),
(46,370,cs),
(47,352,o),
(45,335,o),
(45,317,cs),
(45,289,ls),
(45,279,o),
(43,269,o),
(43,259,cs),
(44,252,o),
(46,242,o),
(46,235,cs),
(47,223,o),
(44,213,o),
(48,203,c),
(43,182,o),
(46,157,o),
(46,133,cs),
(47,106,o),
(45,81,o),
(48,55,c),
(45,45,o),
(41,27,o),
(45,12,c),
(49,8,o),
(55,3,o),
(64,3,c),
(83,10,o),
(113,-2,o),
(127,8,c),
(134,24,o),
(128,44,o),
(127,62,cs),
(127,151,ls),
(126,181,o),
(124,209,o),
(124,238,cs),
(124,262,o),
(125,288,o),
(125,309,c),
(124,323,o),
(120,345,o),
(128,353,c),
(137,356,o),
(142,352,o),
(151,353,c),
(186,362,o),
(228,351,o),
(260,360,c),
(268,354,o),
(278,360,o),
(288,356,c),
(295,345,o),
(292,331,o),
(291,315,cs),
(291,291,o),
(294,261,o),
(294,238,cs),
(294,229,o),
(293,219,o),
(293,211,cs),
(293,195,o),
(296,180,o),
(291,166,c),
(298,144,o),
(293,119,o),
(293,95,cs),
(293,79,o),
(295,63,o),
(294,46,cs),
(291,33,o),
(289,16,o),
(297,8,c),
(309,1,o),
(324,10,o),
(337,10,c),
(349,7,o),
(367,3,o),
(378,10,c),
(383,22,o),
(378,35,o),
(376,49,cs),
(374,83,o),
(377,120,o),
(372,154,c),
(375,181,o),
(373,215,o),
(371,239,c),
(372,245,o),
(373,250,o),
(373,256,cs),
(374,261,o),
(375,269,o),
(375,274,cs),
(375,282,o),
(372,289,o),
(372,297,cs),
(372,303,o),
(373,310,o),
(373,317,cs),
(373,331,o),
(367,346,o),
(376,355,cs),
(385,362,o),
(403,356,o),
(414,355,c),
(422,358,o),
(433,356,o),
(442,358,c),
(459,355,ls),
(465,354,o),
(469,353,o),
(475,353,cs),
(483,354,o),
(489,358,o),
(497,360,c),
(514,358,o),
(526,363,o),
(539,356,c),
(543,337,o),
(540,317,o),
(541,297,cs),
(541,287,o),
(542,277,o),
(542,267,cs),
(542,256,o),
(543,245,o),
(543,235,cs),
(543,230,o),
(542,224,o),
(542,219,cs),
(542,205,o),
(543,192,o),
(543,180,cs),
(543,164,o),
(542,151,o),
(542,136,cs),
(542,122,o),
(543,107,o),
(543,94,cs),
(543,68,o),
(542,36,o),
(542,14,c),
(550,6,o),
(566,10,o),
(581,11,cs),
(596,11,o),
(609,10,o),
(619,11,c),
(627,20,o),
(624,38,o),
(624,53,c),
(619,64,o),
(624,71,o),
(619,81,c),
(625,91,o),
(620,104,o),
(620,116,cs),
(620,118,o),
(623,120,o),
(623,124,cs),
(622,149,o),
(623,181,o),
(620,207,c),
(620,218,o),
(618,225,o),
(618,235,cs),
(618,276,o),
(623,317,o),
(616,355,c),
(620,374,o),
(624,408,o),
(618,428,c),
(606,435,o),
(592,431,o),
(579,430,cs),
(551,429,o),
(523,432,o),
(497,430,cs),
(490,429,o),
(483,427,o),
(475,427,cs),
(467,426,o),
(460,428,o),
(452,428,cs),
(433,428,o),
(417,425,o),
(402,430,c),
(385,427,o),
(362,428,o),
(345,430,c),
(327,426,o),
(310,431,o),
(293,425,c),
(279,430,o),
(266,427,o),
(252,427,cs),
(230,427,ls)
);
}
);
width = 668;
}
);
unicode = 109;
},
{
glyphname = n;
kernLeft = n;
kernRight = n;
lastChange = "2025-02-13 12:00:19 +0000";
layers = (
{
anchors = (
{
name = bottom;
pos = (221,0);
},
{
name = top;
pos = (221,432);
}
);
layerId = "7C3BCDA4-8F92-4DF1-91BA-B714BE37B8B5";
shapes = (
{
closed = 1;
nodes = (
(124,104,o),
(128,107,o),
(127,116,cs),
(124,129,o),
(123,143,o),
(124,158,cs),
(124,166,o),
(127,174,o),
(127,182,cs),
(128,199,o),
(124,215,o),
(124,232,cs),
(124,246,o),
(129,258,o),
(122,270,c),
(125,293,o),
(124,321,o),
(127,342,c),
(129,349,o),
(136,349,o),
(141,351,c),
(150,351,o),
(146,362,o),
(154,362,c),
(162,359,o),
(167,352,o),
(176,351,cs),
(187,349,o),
(205,352,o),
(215,351,cs),
(222,351,ls),
(242,351,o),
(262,349,o),
(280,350,cs),
(294,350,o),
(308,354,o),
(319,346,c),
(323,325,o),
(320,305,o),
(321,286,cs),
(321,270,o),
(324,255,o),
(324,239,cs),
(324,225,o),
(320,213,o),
(319,199,cs),
(319,195,o),
(320,190,o),
(321,185,cs),
(321,181,o),
(319,178,o),
(319,173,cs),
(319,166,o),
(322,161,o),
(322,154,cs),
(322,149,o),
(320,144,o),
(321,139,c),
(321,121,o),
(322,103,o),
(322,86,cs),
(322,79,o),
(321,71,o),
(322,65,c),
(319,48,o),
(315,31,o),
(321,16,c),
(326,15,o),
(329,10,o),
(336,11,cs),
(358,15,o),
(377,10,o),
(396,11,c),
(405,18,o),
(403,28,o),
(402,39,cs),
(401,60,o),
(397,85,o),
(400,103,c),
(400,107,o),
(397,112,o),
(397,117,cs),
(398,144,o),
(400,170,o),
(400,197,cs),
(400,219,o),
(397,239,o),
(397,262,cs),
(397,267,o),
(399,274,o),
(399,279,cs),
(399,286,o),
(397,292,o),
(397,298,cs),
(398,304,o),
(400,308,o),
(400,314,cs),
(401,330,o),
(398,343,o),
(399,358,cs),
(399,372,o),
(401,387,o),
(400,402,c),
(397,409,o),
(396,420,o),
(389,425,c),
(373,428,o),
(354,424,o),
(338,428,c),
(318,423,o),
(287,431,o),
(272,425,c),
(263,431,o),
(254,427,o),
(246,427,cs),
(242,427,o),
(239,428,o),
(237,428,cs),
(216,428,o),
(195,425,o),
(173,425,cs),
(163,425,o),
(153,428,o),
(143,428,cs),
(129,429,o),
(115,426,o),
(100,427,cs),
(84,428,o),
(66,431,o),
(52,422,c),
(48,416,o),
(46,406,o),
(44,397,c),
(45,383,o),
(47,363,o),
(44,350,c),
(48,341,o),
(45,332,o),
(45,322,cs),
(46,305,o),
(45,288,o),
(45,273,cs),
(45,257,o),
(48,239,o),
(48,223,cs),
(48,202,o),
(44,181,o),
(45,162,cs),
(46,156,o),
(45,153,o),
(45,151,cs),
(45,142,o),
(45,134,o),
(47,124,c),
(40,112,o),
(45,97,o),
(45,83,cs),
(46,66,o),
(42,48,o),
(47,31,c),
(56,24,o),
(104,18,o),
(112,20,cs),
(119,22,o),
(124,55,o),
(127,78,c),
(124,97,l)
);
}
);
width = 446;
}
);
unicode = 110;
},
{
glyphname = nhookleft;
kernLeft = nhookleft;
kernRight = nhookleft;
lastChange = "2025-02-13 12:00:19 +0000";
layers = (
{
layerId = "7C3BCDA4-8F92-4DF1-91BA-B714BE37B8B5";
shapes = (
{
ref = n;
},
{
closed = 1;
nodes = (
(47,202,o),
(47,195,o),
(48,184,cs),
(48,180,l),
(48,89,l),
(48,81,ls),
(46,70,o),
(46,65,o),
(47,58,cs),
(48,32,l),
(47,27,ls),
(46,23,o),
(47,17,o),
(48,7,cs),
(48,-1,l),
(48,-47,l),
(48,-58,ls),
(46,-68,o),
(46,-73,o),
(47,-77,c),
(48,-103,l),
(47,-108,ls),
(46,-112,o),
(46,-116,o),
(47,-121,c),
(44,-147,l),
(27,-160,l),
(0,-153,l),
(-17,-142,l),
(-28,-132,ls),
(-39,-123,o),
(-50,-123,o),
(-60,-133,cs),
(-69,-143,l),
(-78,-153,ls),
(-88,-164,o),
(-88,-176,o),
(-77,-186,cs),
(-67,-195,l),
(-59,-203,ls),
(-50,-212,o),
(-44,-216,o),
(-32,-219,cs),
(-20,-223,l),
(-12,-225,ls),
(-2,-228,o),
(6,-229,o),
(16,-229,cs),
(30,-229,l),
(39,-228,ls),
(50,-227,o),
(58,-225,o),
(67,-219,cs),
(75,-216,l),
(79,-213,ls),
(88,-206,o),
(93,-201,o),
(100,-194,cs),
(106,-186,o),
(110,-180,o),
(114,-172,cs),
(118,-163,o),
(119,-157,o),
(120,-145,cs),
(121,-137,l),
(122,-114,l),
(121,-91,l),
(122,-69,l),
(121,-47,l),
(121,-1,l),
(122,21,l),
(121,44,l),
(120,52,l),
(120,78,ls),
(121,86,o),
(121,91,o),
(120,97,c),
(120,123,l),
(121,134,l),
(120,140,l),
(120,167,ls),
(121,177,o),
(121,181,o),
(120,187,c),
(120,213,l),
(121,219,o),
(119,224,o),
(115,223,c),
(92,223,l),
(85,224,l),
(79,223,l),
(49,224,ls),
(48,224,o),
(48,219,o),
(48,212,cs)
);
}
);
width = 446;
}
);
unicode = 626;
},
{
glyphname = eng;
kernLeft = n;
kernRight = j;
lastChange = "2025-02-13 12:00:19 +0000";
layers = (
{
layerId = "7C3BCDA4-8F92-4DF1-91BA-B714BE37B8B5";
shapes = (
{
ref = n;
},
{
closed = 1;
nodes = (
(320,5,l),
(319,-8,ls),
(318,-18,o),
(317,-24,o),
(318,-28,cs),
(322,-56,l),
(321,-63,ls),
(320,-67,o),
(320,-71,o),
(321,-75,c),
(322,-103,l),
(320,-116,l),
(321,-121,l),
(318,-147,l),
(301,-160,l),
(275,-152,l),
(257,-141,l),
(246,-131,l),
(244,-129,ls),
(235,-121,o),
(226,-121,o),
(218,-129,cs),
(205,-143,l),
(190,-160,ls),
(183,-166,o),
(186,-176,o),
(198,-186,cs),
(207,-195,l),
(216,-203,ls),
(224,-212,o),
(231,-216,o),
(242,-219,cs),
(255,-223,l),
(262,-225,ls),
(273,-228,o),
(280,-229,o),
(291,-229,cs),
(305,-229,l),
(311,-228,ls),
(322,-226,o),
(330,-225,o),
(339,-220,cs),
(350,-216,l),
(355,-212,ls),
(365,-206,o),
(371,-200,o),
(377,-192,cs),
(383,-183,l),
(386,-178,ls),
(390,-168,o),
(393,-161,o),
(394,-149,cs),
(395,-137,l),
(399,-43,l),
(400,-19,l),
(403,5,l),
(402,13,l),
(402,40,l),
(403,47,o),
(401,51,o),
(399,50,c),
(366,50,l),
(356,51,l),
(351,50,l),
(321,51,ls),
(320,51,o),
(320,43,o),
(320,29,cs)
);
}
);
width = 446;
}
);
unicode = 331;
},
{
glyphname = o;
kernLeft = o;
kernRight = o;
lastChange = "2025-02-13 12:00:19 +0000";
layers = (
{
anchors = (
{
name = bottom;
pos = (252,0);
},
{
name = center;
pos = (252,217);
},
{
name = ogonek;
pos = (260,10);
},
{
name = top;
pos = (252,432);
},
{
name = topright;
pos = (344,427);
}
);
layerId = "7C3BCDA4-8F92-4DF1-91BA-B714BE37B8B5";
shapes = (
{
closed = 1;
nodes = (
(210,437,o),
(185,434,o),
(166,425,c),
(154,424,o),
(143,420,o),
(133,417,c),
(125,413,o),
(123,404,o),
(117,398,cs),
(110,392,o),
(102,390,o),
(97,383,c),
(94,373,o),
(87,370,o),
(80,365,c),
(76,357,o),
(70,352,o),
(65,346,c),
(63,335,o),
(56,332,o),
(53,322,cs),
(49,308,o),
(43,297,o),
(41,281,c),
(37,267,o),
(36,249,o),
(33,235,c),
(36,221,o),
(31,209,o),
(33,194,cs),
(34,185,o),
(37,181,o),
(36,169,c),
(47,141,l),
(48,138,o),
(49,138,o),
(50,136,cs),
(61,114,l),
(67,104,o),
(76,96,o),
(80,84,c),
(95,71,o),
(110,57,o),
(126,48,cs),
(132,45,o),
(139,41,o),
(145,38,cs),
(160,31,o),
(179,22,o),
(194,19,c),
(196,18,o),
(200,19,o),
(201,19,c),
(205,16,l),
(237,8,o),
(272,11,o),
(310,12,c),
(320,16,o),
(328,22,o),
(340,23,c),
(343,29,o),
(349,29,o),
(355,31,c),
(358,36,o),
(363,39,o),
(370,41,c),
(378,48,o),
(389,53,o),
(399,58,c),
(405,65,o),
(411,70,o),
(419,76,c),
(424,83,o),
(430,88,o),
(438,94,c),
(443,105,o),
(449,116,o),
(457,127,c),
(472,163,l),
(475,173,o),
(474,188,o),
(477,199,cs),
(479,211,o),
(481,221,o),
(480,237,cs),
(480,238,o),
(480,238,o),
(479,238,c),
(478,257,o),
(471,272,o),
(471,292,c),
(466,299,o),
(463,305,o),
(460,313,cs),
(458,316,o),
(455,318,o),
(453,322,cs),
(452,326,o),
(453,331,o),
(449,334,cs),
(444,341,o),
(440,350,o),
(434,355,c),
(429,364,o),
(423,370,o),
(419,378,c),
(414,381,o),
(410,382,o),
(408,384,cs),
(402,389,o),
(399,392,o),
(394,397,cs),
(388,402,o),
(381,409,o),
(374,413,cs),
(367,417,o),
(360,418,o),
(355,424,c),
(347,423,o),
(344,427,o),
(337,428,c),
(334,432,o),
(323,429,o),
(322,435,c),
(309,437,o),
(296,439,o),
(285,443,c),
(233,443,l)
);
},
{
closed = 1;
nodes = (
(259,363,o),
(285,362,o),
(306,352,cs),
(314,348,o),
(324,340,o),
(333,336,c),
(341,331,o),
(349,324,o),
(358,319,c),
(360,314,o),
(364,309,o),
(370,306,c),
(378,288,o),
(388,271,o),
(394,251,c),
(396,251,o),
(395,249,o),
(396,248,c),
(397,248,o),
(397,247,o),
(397,246,cs),
(395,230,o),
(397,209,o),
(394,194,cs),
(386,161,o),
(363,141,o),
(345,117,c),
(334,111,o),
(322,105,o),
(314,97,c),
(306,97,o),
(301,95,o),
(295,91,c),
(283,91,o),
(269,93,o),
(259,88,c),
(242,91,o),
(226,91,o),
(207,95,c),
(207,97,o),
(206,97,o),
(205,97,c),
(198,100,o),
(189,103,o),
(183,107,c),
(179,114,o),
(169,115,o),
(163,122,cs),
(154,133,o),
(140,140,o),
(130,154,cs),
(126,162,o),
(124,170,o),
(122,180,cs),
(119,187,o),
(116,196,o),
(111,203,c),
(108,234,o),
(117,255,o),
(122,281,c),
(127,290,o),
(135,298,o),
(139,309,c),
(157,323,o),
(174,339,o),
(193,352,c),
(229,362,l)
);
}
);
width = 513;
}
);
unicode = 111;
},
{
glyphname = oslash;
kernLeft = o;
kernRight = o;
lastChange = "2025-02-13 12:00:19 +0000";
layers = (
{
layerId = "7C3BCDA4-8F92-4DF1-91BA-B714BE37B8B5";
shapes = (
{
closed = 1;
nodes = (
(375,420,o),
(378,423,o),
(378,424,c),
(381,433,o),
(382,437,o),
(382,439,c),
(383,440,o),
(386,447,o),
(396,469,c),
(406,483,o),
(416,504,o),
(409,511,c),
(401,517,o),
(386,514,o),
(372,514,cs),
(356,514,o),
(366,517,o),
(348,510,c),
(334,497,o),
(333,481,o),
(328,466,cs),
(325,459,o),
(322,449,o),
(317,437,c),
(310,439,o),
(303,440,o),
(296,443,c),
(244,443,l),
(221,437,o),
(197,434,o),
(178,425,c),
(165,424,o),
(155,420,o),
(144,417,c),
(137,413,o),
(134,404,o),
(128,398,cs),
(122,392,o),
(113,390,o),
(108,383,c),
(105,373,o),
(99,370,o),
(91,365,c),
(87,357,o),
(82,352,o),
(76,346,c),
(74,335,o),
(67,332,o),
(65,322,cs),
(61,308,o),
(54,297,o),
(52,281,c),
(48,267,o),
(48,249,o),
(45,235,c),
(48,221,o),
(43,209,o),
(45,194,cs),
(46,185,o),
(48,181,o),
(48,169,c),
(58,141,l),
(60,138,o),
(61,138,o),
(62,136,cs),
(72,114,l),
(79,104,o),
(87,96,o),
(91,84,c),
(106,71,o),
(122,57,o),
(138,48,c),
(140,46,o),
(143,45,o),
(146,43,c),
(139,28,o),
(132,13,o),
(129,3,c),
(122,-8,o),
(116,-20,o),
(113,-31,c),
(107,-39,o),
(100,-46,o),
(98,-55,cs),
(95,-70,o),
(118,-73,o),
(138,-72,cs),
(159,-71,o),
(161,-72,o),
(172,-56,c),
(181,-50,o),
(178,-43,o),
(181,-36,c),
(185,-31,o),
(183,-22,o),
(186,-15,cs),
(200,15,o),
(200,13,o),
(199,12,c),
(201,19,l),
(205,19,l),
(207,18,o),
(211,19,o),
(213,19,c),
(217,16,l),
(248,8,o),
(283,11,o),
(321,12,c),
(332,16,o),
(339,22,o),
(352,23,c),
(354,29,o),
(360,29,o),
(367,31,c),
(370,36,o),
(374,39,o),
(381,41,c),
(390,48,o),
(400,53,o),
(410,58,c),
(416,65,o),
(423,70,o),
(430,76,c),
(435,83,o),
(442,88,o),
(449,94,c),
(454,105,o),
(461,116,o),
(468,127,c),
(484,163,l),
(486,173,o),
(485,188,o),
(488,199,cs),
(490,211,o),
(492,221,o),
(491,237,cs),
(491,238,o),
(491,238,o),
(490,238,c),
(489,257,o),
(483,272,o),
(483,292,c),
(477,299,o),
(474,305,o),
(471,313,cs),
(469,316,o),
(466,318,o),
(465,322,cs),
(464,326,o),
(465,331,o),
(461,334,cs),
(455,341,o),
(451,350,o),
(446,355,c),
(441,364,o),
(434,370,o),
(430,378,c),
(426,381,o),
(422,382,o),
(419,384,cs),
(413,389,o),
(410,392,o),
(406,397,cs),
(399,402,o),
(392,409,o),
(386,413,c),
(373,418,l)
);
},
{
closed = 1;
nodes = (
(179,118,o),
(177,120,o),
(175,122,cs),
(165,133,o),
(151,140,o),
(142,154,cs),
(138,162,o),
(136,170,o),
(133,180,cs),
(130,187,o),
(127,196,o),
(123,203,c),
(120,234,o),
(128,255,o),
(133,281,c),
(139,290,o),
(146,298,o),
(150,309,c),
(168,323,o),
(185,339,o),
(204,352,c),
(240,362,l),
(256,362,o),
(270,362,o),
(282,360,c),
(279,346,ls),
(275,329,o),
(262,313,o),
(259,296,c),
(248,280,o),
(246,263,o),
(236,247,c),
(225,209,o),
(200,162,o),
(183,124,cs),
(181,117,l)
);
},
{
closed = 1;
nodes = (
(293,233,o),
(299,240,o),
(302,247,cs),
(312,264,o),
(315,280,o),
(321,295,cs),
(328,309,o),
(332,324,o),
(340,338,c),
(341,337,o),
(342,336,o),
(345,336,c),
(352,331,o),
(360,324,o),
(370,319,c),
(371,314,o),
(375,309,o),
(381,306,c),
(390,288,o),
(399,271,o),
(406,251,c),
(408,251,o),
(407,249,o),
(408,248,c),
(409,248,o),
(409,247,o),
(409,246,cs),
(407,230,o),
(409,209,o),
(406,194,cs),
(397,161,o),
(374,141,o),
(356,117,c),
(346,111,o),
(333,105,o),
(325,97,c),
(317,97,o),
(313,95,o),
(307,91,c),
(295,91,o),
(280,93,o),
(271,88,c),
(258,90,o),
(247,90,o),
(234,93,c),
(235,95,o),
(237,97,o),
(238,100,cs),
(238,102,o),
(237,102,o),
(238,104,cs),
(244,115,o),
(253,128,o),
(254,139,c),
(264,159,o),
(272,181,o),
(282,204,c),
(290,227,l)
);
}
);
width = 526;
}
);
unicode = 248;
},
{
glyphname = oe;
kernLeft = o;
kernRight = e;
lastChange = "2025-02-13 12:00:19 +0000";
layers = (
{
layerId = "7C3BCDA4-8F92-4DF1-91BA-B714BE37B8B5";
shapes = (
{
closed = 1;
nodes = (
(848,230,o),
(846,240,o),
(849,251,c),
(845,263,o),
(845,277,o),
(841,289,c),
(840,303,o),
(831,309,o),
(829,323,c),
(825,331,o),
(821,337,o),
(817,345,cs),
(809,362,ls),
(805,371,o),
(801,372,o),
(794,380,cs),
(784,391,o),
(771,404,o),
(760,414,c),
(742,421,o),
(729,433,o),
(714,443,c),
(694,449,o),
(672,453,o),
(645,454,cs),
(631,454,o),
(616,456,o),
(603,454,cs),
(590,452,o),
(580,446,o),
(568,447,c),
(557,440,o),
(542,436,o),
(530,432,c),
(523,425,o),
(515,419,o),
(507,413,cs),
(500,407,o),
(493,398,o),
(487,390,c),
(480,385,o),
(472,378,o),
(468,369,c),
(458,364,o),
(460,348,o),
(447,348,cs),
(437,349,o),
(441,364,o),
(433,365,c),
(428,371,o),
(425,376,o),
(422,384,c),
(413,390,o),
(406,399,o),
(398,406,cs),
(371,427,l),
(358,429,o),
(350,436,o),
(337,440,cs),
(325,443,o),
(314,448,o),
(301,451,c),
(277,450,o),
(264,451,o),
(240,452,c),
(218,449,o),
(200,439,o),
(178,436,c),
(162,428,o),
(148,416,o),
(130,409,c),
(119,397,l),
(113,393,ls),
(105,389,o),
(101,382,o),
(94,378,c),
(90,369,o),
(84,363,o),
(79,355,cs),
(74,349,o),
(71,339,o),
(65,333,c),
(65,326,o),
(62,323,o),
(58,319,c),
(49,284,o),
(36,252,o),
(37,206,c),
(40,187,o),
(46,171,o),
(48,151,c),
(56,140,o),
(58,124,o),
(65,113,cs),
(68,105,o),
(77,101,o),
(78,91,c),
(86,87,o),
(91,79,o),
(100,72,c),
(102,61,o),
(115,60,o),
(117,48,c),
(121,48,o),
(123,45,o),
(124,43,c),
(130,43,o),
(128,36,o),
(133,36,c),
(143,30,o),
(155,26,o),
(165,17,c),
(180,16,o),
(187,7,o),
(201,5,cs),
(219,2,o),
(237,-3,o),
(255,-5,cs),
(263,-6,o),
(271,-4,o),
(279,-6,c),
(295,-3,o),
(306,3,o),
(325,3,c),
(336,7,o),
(347,12,o),
(359,14,c),
(367,21,o),
(376,27,o),
(387,30,c),
(391,37,o),
(400,41,o),
(405,48,c),
(406,51,o),
(409,54,o),
(412,57,cs),
(416,61,o),
(420,62,o),
(424,66,c),
(426,73,o),
(431,80,o),
(436,86,c),
(443,90,o),
(442,103,o),
(452,105,c),
(461,100,o),
(463,86,o),
(469,80,c),
(474,78,o),
(473,69,o),
(480,68,c),
(484,66,o),
(485,61,o),
(488,55,c),
(499,52,o),
(502,44,o),
(510,39,c),
(517,32,o),
(526,29,o),
(533,22,c),
(540,20,o),
(547,19,o),
(552,16,c),
(556,11,o),
(564,11,o),
(568,6,c),
(578,6,o),
(586,2,o),
(595,0,cs),
(615,-3,o),
(639,2,o),
(661,-3,c),
(670,0,o),
(681,0,o),
(692,1,c),
(701,4,o),
(707,10,o),
(720,8,c),
(738,19,o),
(755,29,o),
(775,38,c),
(779,47,o),
(789,52,o),
(793,57,cs),
(794,58,o),
(793,61,o),
(794,62,cs),
(803,70,o),
(812,78,o),
(817,87,c),
(821,88,l),
(824,95,o),
(824,103,o),
(829,106,cs),
(836,112,o),
(839,122,o),
(838,135,c),
(832,144,o),
(820,146,o),
(810,151,cs),
(802,156,o),
(794,164,o),
(781,165,c),
(770,162,o),
(770,148,o),
(760,143,c),
(756,133,o),
(748,127,o),
(741,119,c),
(726,113,o),
(718,100,o),
(703,94,cs),
(688,87,o),
(670,84,o),
(653,80,c),
(640,81,o),
(634,81,o),
(622,80,c),
(595,83,o),
(576,94,o),
(554,102,c),
(542,112,o),
(530,122,o),
(519,133,c),
(516,140,o),
(508,144,o),
(507,154,c),
(504,162,o),
(498,166,o),
(494,174,c),
(494,188,o),
(485,199,o),
(488,212,c),
(534,216,o),
(585,209,o),
(630,213,cs),
(656,215,o),
(684,208,o),
(708,216,c),
(718,215,o),
(728,213,o),
(738,209,c),
(753,215,o),
(775,216,o),
(791,212,c),
(808,214,o),
(818,206,o),
(833,213,c),
(844,222,l)
);
},
{
closed = 1;
nodes = (
(750,277,o),
(734,279,o),
(720,279,cs),
(710,279,o),
(698,277,o),
(689,278,cs),
(668,279,o),
(633,278,o),
(604,278,cs),
(597,278,o),
(587,276,o),
(580,276,cs),
(559,277,o),
(538,278,o),
(516,276,c),
(508,279,o),
(499,278,o),
(493,282,c),
(494,295,o),
(503,299,o),
(509,306,c),
(514,315,o),
(521,321,o),
(524,331,c),
(537,338,o),
(548,348,o),
(558,357,c),
(575,365,o),
(595,369,o),
(612,374,c),
(626,374,o),
(640,373,o),
(653,375,c),
(662,372,o),
(671,371,o),
(681,367,cs),
(686,364,o),
(690,360,o),
(701,362,c),
(714,351,o),
(729,343,o),
(741,332,c),
(748,318,o),
(756,309,o),
(761,295,c),
(761,284,l)
);
},
{
closed = 1;
nodes = (
(187,99,o),
(173,111,o),
(157,121,c),
(144,140,o),
(131,158,o),
(120,180,c),
(119,195,o),
(113,205,o),
(114,223,cs),
(117,252,o),
(124,275,o),
(135,297,c),
(141,306,o),
(150,314,o),
(155,325,c),
(165,333,o),
(174,339,o),
(182,348,c),
(195,352,o),
(203,359,o),
(214,365,c),
(225,366,o),
(236,371,o),
(248,371,cs),
(259,372,o),
(273,369,o),
(287,371,c),
(302,368,o),
(314,359,o),
(332,357,c),
(345,347,o),
(358,336,o),
(372,328,c),
(379,315,o),
(387,306,o),
(395,297,c),
(395,290,o),
(398,286,o),
(401,282,c),
(405,265,o),
(412,252,o),
(412,232,c),
(414,232,o),
(413,230,o),
(412,230,c),
(414,200,o),
(404,182,o),
(398,161,c),
(391,152,o),
(386,144,o),
(381,135,c),
(370,123,o),
(355,115,o),
(345,103,c),
(331,99,o),
(319,90,o),
(307,84,c),
(293,86,o),
(279,78,o),
(265,78,cs),
(255,78,o),
(244,81,o),
(233,83,cs),
(204,88,l)
);
}
);
width = 882;
}
);
unicode = 339;
},
{
glyphname = p;
kernLeft = p;
kernRight = o;
lastChange = "2025-02-13 12:00:19 +0000";
layers = (
{
anchors = (
{
name = bottom;
pos = (252,0);
},
{
name = top;
pos = (252,432);
}
);
layerId = "7C3BCDA4-8F92-4DF1-91BA-B714BE37B8B5";
shapes = (
{
closed = 1;
nodes = (
(428,351,o),
(428,354,o),
(426,356,c),
(420,363,o),
(414,367,o),
(409,372,c),
(401,389,l),
(391,395,o),
(384,404,o),
(376,413,c),
(362,415,o),
(352,423,o),
(342,428,c),
(330,429,o),
(319,434,o),
(308,435,cs),
(301,435,o),
(295,433,o),
(289,433,cs),
(268,433,o),
(249,433,o),
(230,436,c),
(224,435,o),
(219,432,o),
(213,433,c),
(205,428,o),
(198,423,o),
(185,422,c),
(176,413,o),
(163,406,o),
(150,400,c),
(148,395,o),
(143,392,o),
(140,387,c),
(134,385,o),
(135,374,o),
(125,375,c),
(116,388,o),
(128,413,o),
(121,424,c),
(117,426,o),
(113,428,o),
(106,427,cs),
(98,425,o),
(97,430,o),
(90,430,c),
(79,427,o),
(66,431,o),
(56,428,c),
(54,422,o),
(52,414,o),
(52,408,c),
(49,387,o),
(50,365,o),
(48,341,cs),
(46,328,o),
(43,314,o),
(43,300,cs),
(43,284,o),
(46,266,o),
(46,254,cs),
(46,249,o),
(44,242,o),
(45,238,cs),
(45,234,o),
(48,229,o),
(48,223,c),
(43,185,o),
(46,143,o),
(45,97,c),
(46,88,o),
(48,85,o),
(48,76,cs),
(48,68,o),
(47,63,o),
(45,57,c),
(47,30,o),
(45,-4,o),
(46,-30,cs),
(47,-49,o),
(44,-69,o),
(46,-85,cs),
(47,-91,o),
(49,-97,o),
(48,-102,cs),
(44,-121,o),
(44,-148,o),
(46,-167,c),
(56,-180,o),
(83,-174,o),
(103,-173,c),
(111,-167,o),
(122,-163,o),
(127,-156,c),
(122,-130,o),
(125,-101,o),
(125,-73,cs),
(125,-30,o),
(121,13,o),
(124,53,cs),
(124,62,o),
(119,68,o),
(125,72,c),
(135,72,o),
(136,64,o),
(142,58,cs),
(146,52,o),
(151,48,o),
(156,41,c),
(175,29,o),
(192,16,o),
(214,10,c),
(228,10,o),
(240,2,o),
(254,1,cs),
(272,0,o),
(290,10,o),
(307,1,c),
(328,4,o),
(345,12,o),
(364,17,c),
(371,22,o),
(377,29,o),
(387,31,c),
(401,47,o),
(415,61,o),
(430,74,c),
(435,86,o),
(443,97,o),
(450,105,c),
(453,119,o),
(459,129,o),
(464,139,c),
(463,147,o),
(466,154,o),
(466,162,cs),
(468,178,o),
(466,192,o),
(469,206,c),
(467,220,o),
(466,237,o),
(466,254,c),
(463,268,o),
(458,282,o),
(458,300,c),
(449,313,o),
(445,326,o),
(440,341,c),
(437,342,o),
(435,346,o),
(435,346,c),
(431,348,l)
);
},
{
closed = 1;
nodes = (
(383,259,o),
(384,242,c),
(385,242,o),
(386,241,o),
(386,240,cs),
(384,223,o),
(386,206,o),
(384,192,cs),
(382,181,o),
(376,173,o),
(376,163,c),
(368,150,o),
(360,135,o),
(352,121,c),
(346,115,o),
(340,110,o),
(334,103,c),
(320,97,o),
(310,87,o),
(295,81,c),
(273,85,o),
(252,73,o),
(230,76,cs),
(225,77,o),
(219,79,o),
(214,81,cs),
(200,86,o),
(188,96,o),
(173,102,c),
(168,107,o),
(163,112,o),
(159,117,cs),
(151,124,o),
(144,132,o),
(139,143,c),
(132,153,o),
(129,165,o),
(124,178,c),
(119,206,o),
(119,234,o),
(123,265,c),
(126,275,o),
(131,283,o),
(133,295,c),
(143,308,o),
(156,319,o),
(165,333,c),
(171,335,o),
(177,337,o),
(180,342,c),
(192,349,o),
(207,352,o),
(218,360,c),
(235,362,o),
(253,366,o),
(272,362,cs),
(297,355,o),
(317,342,o),
(340,332,c),
(351,316,o),
(365,305,o),
(375,289,c),
(377,272,o)
);
}
);
width = 503;
}
);
unicode = 112;
},
{
glyphname = thorn;
kernLeft = h;
kernRight = o;
lastChange = "2025-02-13 12:00:19 +0000";
layers = (
{
layerId = "7C3BCDA4-8F92-4DF1-91BA-B714BE37B8B5";
shapes = (
{
closed = 1;
nodes = (
(434,351,o),
(434,354,o),
(431,356,c),
(426,363,o),
(420,367,o),
(415,372,c),
(407,389,l),
(397,395,o),
(390,404,o),
(382,413,c),
(368,415,o),
(358,423,o),
(348,428,c),
(335,429,o),
(325,434,o),
(314,435,cs),
(307,435,o),
(301,433,o),
(295,433,cs),
(274,433,o),
(255,433,o),
(236,436,c),
(230,435,o),
(225,432,o),
(219,433,c),
(211,428,o),
(203,423,o),
(191,422,c),
(181,413,o),
(169,406,o),
(156,400,c),
(154,395,o),
(148,392,o),
(145,387,c),
(140,385,o),
(141,374,o),
(131,375,c),
(122,388,o),
(134,561,o),
(126,572,c),
(123,574,o),
(119,576,o),
(112,575,cs),
(104,573,o),
(103,578,o),
(96,578,c),
(85,575,o),
(71,580,o),
(62,576,c),
(60,570,o),
(58,561,o),
(58,556,c),
(55,535,o),
(56,365,o),
(53,341,cs),
(51,328,o),
(48,314,o),
(48,300,cs),
(48,284,o),
(51,266,o),
(51,254,cs),
(51,249,o),
(49,242,o),
(50,238,cs),
(50,234,o),
(53,229,o),
(53,223,c),
(48,185,o),
(51,143,o),
(50,97,c),
(51,88,o),
(54,85,o),
(54,76,cs),
(54,68,o),
(52,63,o),
(50,57,c),
(52,30,o),
(50,-4,o),
(51,-30,cs),
(52,-49,o),
(49,-69,o),
(51,-85,cs),
(52,-91,o),
(55,-97,o),
(54,-102,cs),
(49,-121,o),
(49,-148,o),
(51,-167,c),
(62,-180,o),
(88,-174,o),
(108,-173,c),
(117,-167,o),
(127,-163,o),
(133,-156,c),
(127,-130,o),
(131,-101,o),
(131,-73,cs),
(131,-30,o),
(126,13,o),
(130,53,cs),
(130,62,o),
(124,68,o),
(131,72,c),
(141,72,o),
(142,64,o),
(147,58,cs),
(152,52,o),
(157,48,o),
(162,41,c),
(181,29,o),
(198,16,o),
(219,10,c),
(234,10,o),
(246,2,o),
(259,1,cs),
(277,0,o),
(295,10,o),
(313,1,c),
(333,4,o),
(351,12,o),
(370,17,c),
(376,22,o),
(383,29,o),
(392,31,c),
(407,47,o),
(421,61,o),
(436,74,c),
(441,86,o),
(448,97,o),
(456,105,c),
(459,119,o),
(465,129,o),
(469,139,c),
(468,147,o),
(471,154,o),
(472,162,cs),
(474,178,o),
(471,192,o),
(475,206,c),
(473,220,o),
(472,237,o),
(472,254,c),
(468,268,o),
(464,282,o),
(464,300,c),
(455,313,o),
(450,326,o),
(446,341,c),
(443,342,o),
(441,346,o),
(441,346,c),
(437,348,l)
);
},
{
closed = 1;
nodes = (
(389,259,o),
(390,242,c),
(390,242,o),
(391,241,o),
(391,240,cs),
(390,223,o),
(391,206,o),
(390,192,cs),
(388,181,o),
(382,173,o),
(382,163,c),
(373,150,o),
(366,135,o),
(358,121,c),
(352,115,o),
(346,110,o),
(340,103,c),
(326,97,o),
(315,87,o),
(301,81,c),
(278,85,o),
(257,73,o),
(236,76,cs),
(231,77,o),
(225,79,o),
(219,81,cs),
(206,86,o),
(194,96,o),
(179,102,c),
(174,107,o),
(169,112,o),
(164,117,cs),
(157,124,o),
(150,132,o),
(144,143,c),
(138,153,o),
(135,165,o),
(130,178,c),
(124,206,o),
(124,234,o),
(128,265,c),
(132,275,o),
(137,283,o),
(139,295,c),
(149,308,o),
(162,319,o),
(171,333,c),
(177,335,o),
(182,337,o),
(185,342,c),
(198,349,o),
(213,352,o),
(223,360,c),
(240,362,o),
(258,366,o),
(277,362,cs),
(303,355,o),
(323,342,o),
(346,332,c),
(356,316,o),
(371,305,o),
(381,289,c),
(383,272,o)
);
}
);
width = 515;
}
);
unicode = 254;
},
{
glyphname = q;
kernLeft = o;
kernRight = q;
lastChange = "2025-02-13 12:00:19 +0000";
layers = (
{
anchors = (
{
name = bottom;
pos = (257,0);
},
{
name = top;
pos = (257,432);
}
);
layerId = "7C3BCDA4-8F92-4DF1-91BA-B714BE37B8B5";
shapes = (
{
closed = 1;
nodes = (
(137,416,o),
(135,417,o),
(134,416,cs),
(133,415,o),
(132,413,o),
(131,413,c),
(129,412,o),
(127,412,o),
(126,410,c),
(121,407,o),
(118,401,o),
(113,398,cs),
(103,393,o),
(95,387,o),
(86,381,c),
(82,376,o),
(83,368,o),
(77,365,c),
(73,360,o),
(68,355,o),
(66,351,c),
(65,346,o),
(60,342,o),
(58,339,cs),
(53,333,o),
(51,325,o),
(48,317,cs),
(45,302,o),
(43,287,o),
(35,276,c),
(32,240,o),
(34,207,o),
(33,177,c),
(37,162,o),
(39,146,o),
(44,133,c),
(49,124,o),
(51,115,o),
(56,105,cs),
(58,103,o),
(63,102,o),
(61,97,c),
(68,86,o),
(75,76,o),
(85,68,c),
(92,56,o),
(102,49,o),
(110,39,c),
(123,32,o),
(133,24,o),
(143,16,c),
(186,-3,l),
(200,-1,o),
(211,-5,o),
(220,-8,c),
(229,-5,o),
(236,-4,o),
(245,-7,c),
(255,-3,o),
(264,-1,o),
(274,1,cs),
(283,4,o),
(293,8,o),
(302,10,c),
(306,16,o),
(316,17,o),
(321,23,c),
(331,27,o),
(334,34,o),
(344,36,c),
(348,43,o),
(353,47,o),
(358,52,cs),
(360,55,o),
(363,58,o),
(366,61,cs),
(368,63,o),
(370,68,o),
(374,65,c),
(377,47,o),
(381,19,o),
(374,3,c),
(380,-9,o),
(377,-35,o),
(375,-49,cs),
(375,-56,o),
(380,-58,o),
(378,-66,c),
(380,-75,o),
(374,-77,o),
(375,-85,cs),
(376,-93,o),
(381,-96,o),
(382,-104,c),
(380,-108,o),
(377,-113,o),
(377,-119,cs),
(379,-136,o),
(371,-148,o),
(375,-161,c),
(381,-171,o),
(394,-175,o),
(412,-173,c),
(428,-174,o),
(440,-175,o),
(454,-171,c),
(462,-158,o),
(459,-144,o),
(457,-129,c),
(455,-82,o),
(457,-36,o),
(456,12,c),
(457,16,o),
(459,20,o),
(457,26,c),
(461,27,o),
(457,28,o),
(457,30,cs),
(457,34,o),
(454,36,o),
(454,41,cs),
(456,55,o),
(452,68,o),
(453,83,cs),
(453,96,o),
(457,108,o),
(457,122,cs),
(457,127,o),
(456,131,o),
(456,136,cs),
(456,152,o),
(457,167,o),
(457,181,cs),
(457,195,o),
(454,208,o),
(454,221,cs),
(454,237,o),
(459,252,o),
(453,263,c),
(457,283,o),
(456,307,o),
(453,325,c),
(457,339,o),
(455,354,o),
(454,368,cs),
(454,388,o),
(461,409,o),
(451,425,c),
(449,426,o),
(449,427,o),
(448,428,c),
(437,435,o),
(426,431,o),
(410,432,cs),
(395,432,o),
(383,433,o),
(374,427,c),
(369,417,o),
(372,398,o),
(361,395,cs),
(349,393,o),
(346,403,o),
(338,408,c),
(333,414,o),
(326,418,o),
(319,424,c),
(302,433,o),
(276,434,o),
(253,439,c),
(235,435,o),
(211,440,o),
(193,436,cs),
(184,435,o),
(180,431,o),
(174,428,c),
(164,428,o),
(155,426,o),
(148,424,c),
(138,417,ls)
);
},
{
closed = 1;
nodes = (
(374,240,o),
(375,225,c),
(377,225,o),
(377,224,o),
(377,223,cs),
(375,207,o),
(370,195,o),
(371,177,c),
(370,168,o),
(362,168,o),
(363,158,c),
(361,152,o),
(358,146,o),
(355,139,c),
(344,123,o),
(329,108,o),
(314,95,c),
(296,87,o),
(278,82,o),
(258,78,c),
(243,82,o),
(233,82,o),
(215,81,c),
(200,87,o),
(185,97,o),
(168,103,c),
(164,113,o),
(155,118,o),
(148,124,c),
(143,135,o),
(137,146,o),
(131,155,c),
(128,166,o),
(125,175,o),
(121,184,c),
(121,205,o),
(117,224,o),
(120,242,cs),
(121,252,o),
(125,261,o),
(127,270,c),
(129,274,o),
(131,278,o),
(132,282,cs),
(134,288,o),
(133,292,o),
(135,297,c),
(137,300,o),
(143,303,o),
(143,308,c),
(158,321,o),
(170,338,o),
(187,351,c),
(204,353,o),
(219,358,o),
(236,362,c),
(250,358,o),
(271,362,o),
(284,356,c),
(296,353,o),
(304,347,o),
(316,342,c),
(324,335,o),
(332,330,o),
(341,323,c),
(352,308,o),
(363,292,o),
(371,273,c),
(371,256,o)
);
}
);
width = 502;
}
);
unicode = 113;
},
{
glyphname = r;
kernLeft = n;
kernRight = r;
lastChange = "2025-02-13 12:00:19 +0000";
layers = (
{
anchors = (
{
name = bottom;
pos = (82,0);
},
{
name = top;
pos = (138,432);
}
);
layerId = "7C3BCDA4-8F92-4DF1-91BA-B714BE37B8B5";
shapes = (
{
closed = 1;
nodes = (
(271,371,o),
(269,395,c),
(259,407,o),
(253,420,o),
(241,430,c),
(231,433,o),
(218,435,o),
(205,438,c),
(183,430,o),
(163,420,o),
(153,398,c),
(154,389,o),
(152,383,o),
(150,375,c),
(153,370,o),
(152,358,o),
(155,351,c),
(164,333,l),
(171,331,o),
(175,324,o),
(182,320,c),
(193,319,o),
(204,314,o),
(217,314,cs),
(227,315,o),
(237,321,o),
(246,323,c),
(250,326,o),
(253,331,o),
(257,333,cs),
(274,343,o)
);
},
{
closed = 1;
nodes = (
(43,81,o),
(45,77,o),
(45,72,cs),
(45,53,o),
(40,38,o),
(48,22,c),
(54,14,o),
(66,10,o),
(82,11,cs),
(98,11,o),
(114,10,o),
(124,16,c),
(126,20,o),
(127,23,o),
(127,30,cs),
(127,34,o),
(124,39,o),
(124,45,cs),
(128,61,o),
(124,77,o),
(124,91,cs),
(125,111,o),
(126,141,o),
(123,158,c),
(125,167,o),
(126,178,o),
(125,187,cs),
(125,195,o),
(126,207,o),
(124,218,c),
(126,221,o),
(125,230,o),
(127,235,c),
(123,246,o),
(128,265,o),
(124,279,cs),
(124,286,o),
(128,288,o),
(130,293,c),
(118,307,o),
(131,330,o),
(130,348,c),
(126,350,o),
(128,354,o),
(125,356,c),
(124,373,o),
(128,391,o),
(127,406,cs),
(127,413,o),
(126,421,o),
(123,427,c),
(114,433,o),
(98,429,o),
(86,427,c),
(74,429,o),
(63,434,o),
(51,428,c),
(47,425,o),
(48,418,o),
(48,413,cs),
(42,390,o),
(48,369,o),
(48,345,cs),
(47,318,o),
(45,292,o),
(48,268,c),
(42,245,o),
(51,205,o),
(45,182,c),
(49,166,o),
(47,150,o),
(45,135,cs),
(45,124,o),
(48,116,o),
(48,105,c),
(43,84,l)
);
}
);
width = 299;
}
);
unicode = 114;
},
